<svg width="115" height="32" viewBox="0 0 115 32" fill="none" xmlns="http://www.w3.org/2000/svg">
<rect width="115" height="32" rx="16" fill="#61308C"/>
<path d="M18.4102 19.0801V20H13.8926V19.0801H18.4102ZM14.1211 11.4688V20H12.9902V11.4688H14.1211ZM17.8125 15.1367V16.0566H13.8926V15.1367H17.8125ZM18.3516 11.4688V12.3945H13.8926V11.4688H18.3516ZM20.3789 13.6602L21.7676 15.9688L23.1738 13.6602H24.4453L22.3711 16.7891L24.5098 20H23.2559L21.791 17.6211L20.3262 20H19.0664L21.1992 16.7891L19.1309 13.6602H20.3789ZM26.6836 14.8789V22.4375H25.5938V13.6602H26.5898L26.6836 14.8789ZM30.9551 16.7773V16.9004C30.9551 17.3613 30.9004 17.7891 30.791 18.1836C30.6816 18.5742 30.5215 18.9141 30.3105 19.2031C30.1035 19.4922 29.8477 19.7168 29.543 19.877C29.2383 20.0371 28.8887 20.1172 28.4941 20.1172C28.0918 20.1172 27.7363 20.0508 27.4277 19.918C27.1191 19.7852 26.8574 19.5918 26.6426 19.3379C26.4277 19.084 26.2559 18.7793 26.127 18.4238C26.002 18.0684 25.916 17.668 25.8691 17.2227V16.5664C25.916 16.0977 26.0039 15.6777 26.1328 15.3066C26.2617 14.9355 26.4316 14.6191 26.6426 14.3574C26.8574 14.0918 27.1172 13.8906 27.4219 13.7539C27.7266 13.6133 28.0781 13.543 28.4766 13.543C28.875 13.543 29.2285 13.6211 29.5371 13.7773C29.8457 13.9297 30.1055 14.1484 30.3164 14.4336C30.5273 14.7188 30.6855 15.0605 30.791 15.459C30.9004 15.8535 30.9551 16.293 30.9551 16.7773ZM29.8652 16.9004V16.7773C29.8652 16.4609 29.832 16.1641 29.7656 15.8867C29.6992 15.6055 29.5957 15.3594 29.4551 15.1484C29.3184 14.9336 29.1426 14.7656 28.9277 14.6445C28.7129 14.5195 28.457 14.457 28.1602 14.457C27.8867 14.457 27.6484 14.5039 27.4453 14.5977C27.2461 14.6914 27.0762 14.8184 26.9355 14.9785C26.7949 15.1348 26.6797 15.3145 26.5898 15.5176C26.5039 15.7168 26.4395 15.9238 26.3965 16.1387V17.6562C26.4746 17.9297 26.584 18.1875 26.7246 18.4297C26.8652 18.668 27.0527 18.8613 27.2871 19.0098C27.5215 19.1543 27.8164 19.2266 28.1719 19.2266C28.4648 19.2266 28.7168 19.166 28.9277 19.0449C29.1426 18.9199 29.3184 18.75 29.4551 18.5352C29.5957 18.3203 29.6992 18.0742 29.7656 17.7969C29.832 17.5156 29.8652 17.2168 29.8652 16.9004ZM32.0508 16.9004V16.7656C32.0508 16.3086 32.1172 15.8848 32.25 15.4941C32.3828 15.0996 32.5742 14.7578 32.8242 14.4688C33.0742 14.1758 33.377 13.9492 33.7324 13.7891C34.0879 13.625 34.4863 13.543 34.9277 13.543C35.373 13.543 35.7734 13.625 36.1289 13.7891C36.4883 13.9492 36.793 14.1758 37.043 14.4688C37.2969 14.7578 37.4902 15.0996 37.623 15.4941C37.7559 15.8848 37.8223 16.3086 37.8223 16.7656V16.9004C37.8223 17.3574 37.7559 17.7812 37.623 18.1719C37.4902 18.5625 37.2969 18.9043 37.043 19.1973C36.793 19.4863 36.4902 19.7129 36.1348 19.877C35.7832 20.0371 35.3848 20.1172 34.9395 20.1172C34.4941 20.1172 34.0938 20.0371 33.7383 19.877C33.3828 19.7129 33.0781 19.4863 32.8242 19.1973C32.5742 18.9043 32.3828 18.5625 32.25 18.1719C32.1172 17.7812 32.0508 17.3574 32.0508 16.9004ZM33.1348 16.7656V16.9004C33.1348 17.2168 33.1719 17.5156 33.2461 17.7969C33.3203 18.0742 33.4316 18.3203 33.5801 18.5352C33.7324 18.75 33.9219 18.9199 34.1484 19.0449C34.375 19.166 34.6387 19.2266 34.9395 19.2266C35.2363 19.2266 35.4961 19.166 35.7188 19.0449C35.9453 18.9199 36.1328 18.75 36.2812 18.5352C36.4297 18.3203 36.541 18.0742 36.6152 17.7969C36.6934 17.5156 36.7324 17.2168 36.7324 16.9004V16.7656C36.7324 16.4531 36.6934 16.1582 36.6152 15.8809C36.541 15.5996 36.4277 15.3516 36.2754 15.1367C36.127 14.918 35.9395 14.7461 35.7129 14.6211C35.4902 14.4961 35.2285 14.4336 34.9277 14.4336C34.6309 14.4336 34.3691 14.4961 34.1426 14.6211C33.9199 14.7461 33.7324 14.918 33.5801 15.1367C33.4316 15.3516 33.3203 15.5996 33.2461 15.8809C33.1719 16.1582 33.1348 16.4531 33.1348 16.7656ZM40.2656 14.6562V20H39.1816V13.6602H40.2363L40.2656 14.6562ZM42.2461 13.625L42.2402 14.6328C42.1504 14.6133 42.0645 14.6016 41.9824 14.5977C41.9043 14.5898 41.8145 14.5859 41.7129 14.5859C41.4629 14.5859 41.2422 14.625 41.0508 14.7031C40.8594 14.7812 40.6973 14.8906 40.5645 15.0312C40.4316 15.1719 40.3262 15.3398 40.248 15.5352C40.1738 15.7266 40.125 15.9375 40.1016 16.168L39.7969 16.3438C39.7969 15.9609 39.834 15.6016 39.9082 15.2656C39.9863 14.9297 40.1055 14.6328 40.2656 14.375C40.4258 14.1133 40.6289 13.9102 40.875 13.7656C41.125 13.6172 41.4219 13.543 41.7656 13.543C41.8438 13.543 41.9336 13.5527 42.0352 13.5723C42.1367 13.5879 42.207 13.6055 42.2461 13.625ZM46.1953 13.6602V14.4922H42.7676V13.6602H46.1953ZM43.9277 12.1191H45.0117V18.4297C45.0117 18.6445 45.0449 18.8066 45.1113 18.916C45.1777 19.0254 45.2637 19.0977 45.3691 19.1328C45.4746 19.168 45.5879 19.1855 45.709 19.1855C45.7988 19.1855 45.8926 19.1777 45.9902 19.1621C46.0918 19.1426 46.168 19.127 46.2188 19.1152L46.2246 20C46.1387 20.0273 46.0254 20.0527 45.8848 20.0762C45.748 20.1035 45.582 20.1172 45.3867 20.1172C45.1211 20.1172 44.877 20.0645 44.6543 19.959C44.4316 19.8535 44.2539 19.6777 44.1211 19.4316C43.9922 19.1816 43.9277 18.8457 43.9277 18.4238V12.1191ZM52.916 20H51.1348L51.1465 19.0801H52.916C53.5254 19.0801 54.0332 18.9531 54.4395 18.6992C54.8457 18.4414 55.1504 18.082 55.3535 17.6211C55.5605 17.1562 55.6641 16.6133 55.6641 15.9922V15.4707C55.6641 14.9824 55.6055 14.5488 55.4883 14.1699C55.3711 13.7871 55.1992 13.4648 54.9727 13.2031C54.7461 12.9375 54.4688 12.7363 54.1406 12.5996C53.8164 12.4629 53.4434 12.3945 53.0215 12.3945H51.0996V11.4688H53.0215C53.5801 11.4688 54.0898 11.5625 54.5508 11.75C55.0117 11.9336 55.4082 12.2012 55.7402 12.5527C56.0762 12.9004 56.334 13.3223 56.5137 13.8184C56.6934 14.3105 56.7832 14.8652 56.7832 15.4824V15.9922C56.7832 16.6094 56.6934 17.166 56.5137 17.6621C56.334 18.1543 56.0742 18.5742 55.7344 18.9219C55.3984 19.2695 54.9922 19.5371 54.5156 19.7246C54.043 19.9082 53.5098 20 52.916 20ZM51.7383 11.4688V20H50.6074V11.4688H51.7383ZM62.0566 18.916V15.6523C62.0566 15.4023 62.0059 15.1855 61.9043 15.002C61.8066 14.8145 61.6582 14.6699 61.459 14.5684C61.2598 14.4668 61.0137 14.416 60.7207 14.416C60.4473 14.416 60.207 14.4629 60 14.5566C59.7969 14.6504 59.6367 14.7734 59.5195 14.9258C59.4062 15.0781 59.3496 15.2422 59.3496 15.418H58.2656C58.2656 15.1914 58.3242 14.9668 58.4414 14.7441C58.5586 14.5215 58.7266 14.3203 58.9453 14.1406C59.168 13.957 59.4336 13.8125 59.7422 13.707C60.0547 13.5977 60.4023 13.543 60.7852 13.543C61.2461 13.543 61.6523 13.6211 62.0039 13.7773C62.3594 13.9336 62.6367 14.1699 62.8359 14.4863C63.0391 14.7988 63.1406 15.1914 63.1406 15.6641V18.6172C63.1406 18.8281 63.1582 19.0527 63.1934 19.291C63.2324 19.5293 63.2891 19.7344 63.3633 19.9062V20H62.2324C62.1777 19.875 62.1348 19.709 62.1035 19.502C62.0723 19.291 62.0566 19.0957 62.0566 18.916ZM62.2441 16.1562L62.2559 16.918H61.1602C60.8516 16.918 60.5762 16.9434 60.334 16.9941C60.0918 17.041 59.8887 17.1133 59.7246 17.2109C59.5605 17.3086 59.4355 17.4316 59.3496 17.5801C59.2637 17.7246 59.2207 17.8945 59.2207 18.0898C59.2207 18.2891 59.2656 18.4707 59.3555 18.6348C59.4453 18.7988 59.5801 18.9297 59.7598 19.0273C59.9434 19.1211 60.168 19.168 60.4336 19.168C60.7656 19.168 61.0586 19.0977 61.3125 18.957C61.5664 18.8164 61.7676 18.6445 61.916 18.4414C62.0684 18.2383 62.1504 18.041 62.1621 17.8496L62.625 18.3711C62.5977 18.5352 62.5234 18.7168 62.4023 18.916C62.2812 19.1152 62.1191 19.3066 61.916 19.4902C61.7168 19.6699 61.4785 19.8203 61.2012 19.9414C60.9277 20.0586 60.6191 20.1172 60.2754 20.1172C59.8457 20.1172 59.4688 20.0332 59.1445 19.8652C58.8242 19.6973 58.5742 19.4727 58.3945 19.1914C58.2188 18.9062 58.1309 18.5879 58.1309 18.2363C58.1309 17.8965 58.1973 17.5977 58.3301 17.3398C58.4629 17.0781 58.6543 16.8613 58.9043 16.6895C59.1543 16.5137 59.4551 16.3809 59.8066 16.291C60.1582 16.2012 60.5508 16.1562 60.9844 16.1562H62.2441ZM67.5 13.6602V14.4922H64.0723V13.6602H67.5ZM65.2324 12.1191H66.3164V18.4297C66.3164 18.6445 66.3496 18.8066 66.416 18.916C66.4824 19.0254 66.5684 19.0977 66.6738 19.1328C66.7793 19.168 66.8926 19.1855 67.0137 19.1855C67.1035 19.1855 67.1973 19.1777 67.2949 19.1621C67.3965 19.1426 67.4727 19.127 67.5234 19.1152L67.5293 20C67.4434 20.0273 67.3301 20.0527 67.1895 20.0762C67.0527 20.1035 66.8867 20.1172 66.6914 20.1172C66.4258 20.1172 66.1816 20.0645 65.959 19.959C65.7363 19.8535 65.5586 19.6777 65.4258 19.4316C65.2969 19.1816 65.2324 18.8457 65.2324 18.4238V12.1191ZM72.5098 18.916V15.6523C72.5098 15.4023 72.459 15.1855 72.3574 15.002C72.2598 14.8145 72.1113 14.6699 71.9121 14.5684C71.7129 14.4668 71.4668 14.416 71.1738 14.416C70.9004 14.416 70.6602 14.4629 70.4531 14.5566C70.25 14.6504 70.0898 14.7734 69.9727 14.9258C69.8594 15.0781 69.8027 15.2422 69.8027 15.418H68.7188C68.7188 15.1914 68.7773 14.9668 68.8945 14.7441C69.0117 14.5215 69.1797 14.3203 69.3984 14.1406C69.6211 13.957 69.8867 13.8125 70.1953 13.707C70.5078 13.5977 70.8555 13.543 71.2383 13.543C71.6992 13.543 72.1055 13.6211 72.457 13.7773C72.8125 13.9336 73.0898 14.1699 73.2891 14.4863C73.4922 14.7988 73.5938 15.1914 73.5938 15.6641V18.6172C73.5938 18.8281 73.6113 19.0527 73.6465 19.291C73.6855 19.5293 73.7422 19.7344 73.8164 19.9062V20H72.6855C72.6309 19.875 72.5879 19.709 72.5566 19.502C72.5254 19.291 72.5098 19.0957 72.5098 18.916ZM72.6973 16.1562L72.709 16.918H71.6133C71.3047 16.918 71.0293 16.9434 70.7871 16.9941C70.5449 17.041 70.3418 17.1133 70.1777 17.2109C70.0137 17.3086 69.8887 17.4316 69.8027 17.5801C69.7168 17.7246 69.6738 17.8945 69.6738 18.0898C69.6738 18.2891 69.7188 18.4707 69.8086 18.6348C69.8984 18.7988 70.0332 18.9297 70.2129 19.0273C70.3965 19.1211 70.6211 19.168 70.8867 19.168C71.2188 19.168 71.5117 19.0977 71.7656 18.957C72.0195 18.8164 72.2207 18.6445 72.3691 18.4414C72.5215 18.2383 72.6035 18.041 72.6152 17.8496L73.0781 18.3711C73.0508 18.5352 72.9766 18.7168 72.8555 18.916C72.7344 19.1152 72.5723 19.3066 72.3691 19.4902C72.1699 19.6699 71.9316 19.8203 71.6543 19.9414C71.3809 20.0586 71.0723 20.1172 70.7285 20.1172C70.2988 20.1172 69.9219 20.0332 69.5977 19.8652C69.2773 19.6973 69.0273 19.4727 68.8477 19.1914C68.6719 18.9062 68.584 18.5879 68.584 18.2363C68.584 17.8965 68.6504 17.5977 68.7832 17.3398C68.916 17.0781 69.1074 16.8613 69.3574 16.6895C69.6074 16.5137 69.9082 16.3809 70.2598 16.291C70.6113 16.2012 71.0039 16.1562 71.4375 16.1562H72.6973Z" fill="white"/>
<mask id="mask0_77_9240" style="mask-type:alpha" maskUnits="userSpaceOnUse" x="83" y="6" width="20" height="20">
<rect x="83" y="6" width="20" height="20" fill="#D9D9D9"/>
</mask>
<g mask="url(#mask0_77_9240)">
<path d="M93 19.3333L88.8333 15.1667L90 13.9583L92.1666 16.125V9.33333H93.8333V16.125L96 13.9583L97.1666 15.1667L93 19.3333ZM88 22.6667C87.5416 22.6667 87.1493 22.5035 86.8229 22.1771C86.4965 21.8507 86.3333 21.4583 86.3333 21V18.5H88V21H98V18.5H99.6666V21C99.6666 21.4583 99.5035 21.8507 99.1771 22.1771C98.8507 22.5035 98.4583 22.6667 98 22.6667H88Z" fill="white"/>
</g>
</svg>
