<svg width="116" height="40" viewBox="0 0 116 40" fill="none" xmlns="http://www.w3.org/2000/svg">
<rect x="1" y="1" width="114" height="38" rx="11" fill="#3A379F"/>
<rect x="1" y="1" width="114" height="38" rx="11" stroke="#610BEF" stroke-width="2"/>
<path d="M36.7507 20.1C36.7507 19.1387 36.9654 18.28 37.3947 17.524C37.8334 16.7587 38.4261 16.166 39.1727 15.746C39.9287 15.3167 40.7734 15.102 41.7067 15.102C42.7987 15.102 43.7554 15.382 44.5767 15.942C45.3981 16.502 45.9721 17.2767 46.2987 18.266H44.0447C43.8207 17.7993 43.5034 17.4493 43.0927 17.216C42.6914 16.9827 42.2247 16.866 41.6927 16.866C41.1234 16.866 40.6147 17.0013 40.1667 17.272C39.7281 17.5333 39.3827 17.9067 39.1307 18.392C38.8881 18.8773 38.7667 19.4467 38.7667 20.1C38.7667 20.744 38.8881 21.3133 39.1307 21.808C39.3827 22.2933 39.7281 22.6713 40.1667 22.942C40.6147 23.2033 41.1234 23.334 41.6927 23.334C42.2247 23.334 42.6914 23.2173 43.0927 22.984C43.5034 22.7413 43.8207 22.3867 44.0447 21.92H46.2987C45.9721 22.9187 45.3981 23.698 44.5767 24.258C43.7647 24.8087 42.8081 25.084 41.7067 25.084C40.7734 25.084 39.9287 24.874 39.1727 24.454C38.4261 24.0247 37.8334 23.432 37.3947 22.676C36.9654 21.92 36.7507 21.0613 36.7507 20.1ZM55.4328 20.954C55.4328 21.234 55.4142 21.486 55.3768 21.71H49.7068C49.7535 22.27 49.9495 22.7087 50.2948 23.026C50.6402 23.3433 51.0648 23.502 51.5688 23.502C52.2968 23.502 52.8148 23.1893 53.1228 22.564H55.2368C55.0128 23.3107 54.5835 23.9267 53.9488 24.412C53.3142 24.888 52.5348 25.126 51.6108 25.126C50.8642 25.126 50.1922 24.9627 49.5948 24.636C49.0068 24.3 48.5448 23.8287 48.2088 23.222C47.8822 22.6153 47.7188 21.9153 47.7188 21.122C47.7188 20.3193 47.8822 19.6147 48.2088 19.008C48.5355 18.4013 48.9928 17.9347 49.5808 17.608C50.1688 17.2813 50.8455 17.118 51.6108 17.118C52.3482 17.118 53.0062 17.2767 53.5848 17.594C54.1728 17.9113 54.6255 18.364 54.9428 18.952C55.2695 19.5307 55.4328 20.198 55.4328 20.954ZM53.4028 20.394C53.3935 19.89 53.2115 19.4887 52.8568 19.19C52.5022 18.882 52.0682 18.728 51.5548 18.728C51.0695 18.728 50.6588 18.8773 50.3228 19.176C49.9962 19.4653 49.7955 19.8713 49.7208 20.394H53.4028ZM59.3955 18.854V22.606C59.3955 22.8673 59.4561 23.0587 59.5775 23.18C59.7081 23.292 59.9228 23.348 60.2215 23.348H61.1315V25H59.8995C58.2475 25 57.4215 24.1973 57.4215 22.592V18.854H56.4975V17.244H57.4215V15.326H59.3955V17.244H61.1315V18.854H59.3955ZM62.2872 21.094C62.2872 20.31 62.4412 19.6147 62.7492 19.008C63.0665 18.4013 63.4912 17.9347 64.0232 17.608C64.5645 17.2813 65.1665 17.118 65.8292 17.118C66.4079 17.118 66.9119 17.2347 67.3412 17.468C67.7799 17.7013 68.1299 17.9953 68.3912 18.35V17.244H70.3652V25H68.3912V23.866C68.1392 24.23 67.7892 24.5333 67.3412 24.776C66.9025 25.0093 66.3939 25.126 65.8152 25.126C65.1619 25.126 64.5645 24.958 64.0232 24.622C63.4912 24.286 63.0665 23.8147 62.7492 23.208C62.4412 22.592 62.2872 21.8873 62.2872 21.094ZM68.3912 21.122C68.3912 20.646 68.2979 20.24 68.1112 19.904C67.9245 19.5587 67.6725 19.2973 67.3552 19.12C67.0379 18.9333 66.6972 18.84 66.3332 18.84C65.9692 18.84 65.6332 18.9287 65.3252 19.106C65.0172 19.2833 64.7652 19.5447 64.5692 19.89C64.3825 20.226 64.2892 20.6273 64.2892 21.094C64.2892 21.5607 64.3825 21.9713 64.5692 22.326C64.7652 22.6713 65.0172 22.9373 65.3252 23.124C65.6425 23.3107 65.9785 23.404 66.3332 23.404C66.6972 23.404 67.0379 23.3153 67.3552 23.138C67.6725 22.9513 67.9245 22.69 68.1112 22.354C68.2979 22.0087 68.3912 21.598 68.3912 21.122ZM77.1215 25L74.4895 21.696V25H72.5295V14.64H74.4895V20.534L77.0935 17.244H79.6415L76.2255 21.136L79.6695 25H77.1215Z" fill="white"/>
</svg>
