<svg width="223" height="40" viewBox="0 0 223 40" fill="none" xmlns="http://www.w3.org/2000/svg">
<rect width="223" height="40" rx="8" fill="#3A379F"/>
<path d="M32.5431 25.098C31.8618 25.098 31.2458 24.9813 30.6951 24.748C30.1538 24.5147 29.7245 24.1787 29.4071 23.74C29.0898 23.3013 28.9265 22.7833 28.9171 22.186H31.0171C31.0451 22.5873 31.1851 22.9047 31.4371 23.138C31.6985 23.3713 32.0531 23.488 32.5011 23.488C32.9585 23.488 33.3178 23.3807 33.5791 23.166C33.8405 22.942 33.9711 22.6527 33.9711 22.298C33.9711 22.0087 33.8825 21.7707 33.7051 21.584C33.5278 21.3973 33.3038 21.2527 33.0331 21.15C32.7718 21.038 32.4078 20.9167 31.9411 20.786C31.3065 20.5993 30.7885 20.4173 30.3871 20.24C29.9951 20.0533 29.6545 19.778 29.3651 19.414C29.0851 19.0407 28.9451 18.546 28.9451 17.93C28.9451 17.3513 29.0898 16.8473 29.3791 16.418C29.6685 15.9887 30.0745 15.662 30.5971 15.438C31.1198 15.2047 31.7171 15.088 32.3891 15.088C33.3971 15.088 34.2138 15.3353 34.8391 15.83C35.4738 16.3153 35.8238 16.9967 35.8891 17.874H33.7331C33.7145 17.538 33.5698 17.2627 33.2991 17.048C33.0378 16.824 32.6878 16.712 32.2491 16.712C31.8665 16.712 31.5585 16.81 31.3251 17.006C31.1011 17.202 30.9891 17.4867 30.9891 17.86C30.9891 18.1213 31.0731 18.3407 31.2411 18.518C31.4185 18.686 31.6331 18.826 31.8851 18.938C32.1465 19.0407 32.5105 19.162 32.9771 19.302C33.6118 19.4887 34.1298 19.6753 34.5311 19.862C34.9325 20.0487 35.2778 20.3287 35.5671 20.702C35.8565 21.0753 36.0011 21.5653 36.0011 22.172C36.0011 22.6947 35.8658 23.18 35.5951 23.628C35.3245 24.076 34.9278 24.4353 34.4051 24.706C33.8825 24.9673 33.2618 25.098 32.5431 25.098ZM45.1604 20.954C45.1604 21.234 45.1417 21.486 45.1044 21.71H39.4344C39.481 22.27 39.677 22.7087 40.0224 23.026C40.3677 23.3433 40.7924 23.502 41.2964 23.502C42.0244 23.502 42.5424 23.1893 42.8504 22.564H44.9644C44.7404 23.3107 44.311 23.9267 43.6764 24.412C43.0417 24.888 42.2624 25.126 41.3384 25.126C40.5917 25.126 39.9197 24.9627 39.3224 24.636C38.7344 24.3 38.2724 23.8287 37.9364 23.222C37.6097 22.6153 37.4464 21.9153 37.4464 21.122C37.4464 20.3193 37.6097 19.6147 37.9364 19.008C38.263 18.4013 38.7204 17.9347 39.3084 17.608C39.8964 17.2813 40.573 17.118 41.3384 17.118C42.0757 17.118 42.7337 17.2767 43.3124 17.594C43.9004 17.9113 44.353 18.364 44.6704 18.952C44.997 19.5307 45.1604 20.198 45.1604 20.954ZM43.1304 20.394C43.121 19.89 42.939 19.4887 42.5844 19.19C42.2297 18.882 41.7957 18.728 41.2824 18.728C40.797 18.728 40.3864 18.8773 40.0504 19.176C39.7237 19.4653 39.523 19.8713 39.4484 20.394H43.1304ZM51.139 17.132C52.063 17.132 52.8097 17.426 53.379 18.014C53.9483 18.5927 54.233 19.4047 54.233 20.45V25H52.273V20.716C52.273 20.1 52.119 19.6287 51.811 19.302C51.503 18.966 51.083 18.798 50.551 18.798C50.0097 18.798 49.5803 18.966 49.263 19.302C48.955 19.6287 48.801 20.1 48.801 20.716V25H46.841V17.244H48.801V18.21C49.0623 17.874 49.3937 17.6127 49.795 17.426C50.2057 17.23 50.6537 17.132 51.139 17.132ZM55.8429 21.094C55.8429 20.31 55.9969 19.6147 56.3049 19.008C56.6222 18.4013 57.0515 17.9347 57.5929 17.608C58.1342 17.2813 58.7362 17.118 59.3989 17.118C59.9029 17.118 60.3835 17.23 60.8409 17.454C61.2982 17.6687 61.6622 17.958 61.9329 18.322V14.64H63.9209V25H61.9329V23.852C61.6902 24.2347 61.3495 24.5427 60.9109 24.776C60.4722 25.0093 59.9635 25.126 59.3849 25.126C58.7315 25.126 58.1342 24.958 57.5929 24.622C57.0515 24.286 56.6222 23.8147 56.3049 23.208C55.9969 22.592 55.8429 21.8873 55.8429 21.094ZM61.9469 21.122C61.9469 20.646 61.8535 20.24 61.6669 19.904C61.4802 19.5587 61.2282 19.2973 60.9109 19.12C60.5935 18.9333 60.2529 18.84 59.8889 18.84C59.5249 18.84 59.1889 18.9287 58.8809 19.106C58.5729 19.2833 58.3209 19.5447 58.1249 19.89C57.9382 20.226 57.8449 20.6273 57.8449 21.094C57.8449 21.5607 57.9382 21.9713 58.1249 22.326C58.3209 22.6713 58.5729 22.9373 58.8809 23.124C59.1982 23.3107 59.5342 23.404 59.8889 23.404C60.2529 23.404 60.5935 23.3153 60.9109 23.138C61.2282 22.9513 61.4802 22.69 61.6669 22.354C61.8535 22.0087 61.9469 21.598 61.9469 21.122ZM76.7971 18.252C76.7971 18.7747 76.6711 19.2647 76.4191 19.722C76.1764 20.1793 75.7891 20.548 75.2571 20.828C74.7344 21.108 74.0717 21.248 73.2691 21.248H71.6311V25H69.6711V15.228H73.2691C74.0251 15.228 74.6691 15.3587 75.2011 15.62C75.7331 15.8813 76.1297 16.2407 76.3911 16.698C76.6617 17.1553 76.7971 17.6733 76.7971 18.252ZM73.1851 19.666C73.7264 19.666 74.1277 19.5447 74.3891 19.302C74.6504 19.05 74.7811 18.7 74.7811 18.252C74.7811 17.3 74.2491 16.824 73.1851 16.824H71.6311V19.666H73.1851ZM80.3987 18.448C80.6507 18.0373 80.9773 17.7153 81.3787 17.482C81.7893 17.2487 82.256 17.132 82.7787 17.132V19.19H82.2607C81.6447 19.19 81.178 19.3347 80.8607 19.624C80.5527 19.9133 80.3987 20.4173 80.3987 21.136V25H78.4387V17.244H80.3987V18.448ZM87.7928 25.126C87.0461 25.126 86.3741 24.9627 85.7768 24.636C85.1795 24.3 84.7081 23.8287 84.3628 23.222C84.0268 22.6153 83.8588 21.9153 83.8588 21.122C83.8588 20.3287 84.0315 19.6287 84.3768 19.022C84.7315 18.4153 85.2121 17.9487 85.8188 17.622C86.4255 17.286 87.1021 17.118 87.8488 17.118C88.5955 17.118 89.2721 17.286 89.8788 17.622C90.4855 17.9487 90.9615 18.4153 91.3068 19.022C91.6615 19.6287 91.8388 20.3287 91.8388 21.122C91.8388 21.9153 91.6568 22.6153 91.2928 23.222C90.9381 23.8287 90.4528 24.3 89.8368 24.636C89.2301 24.9627 88.5488 25.126 87.7928 25.126ZM87.7928 23.418C88.1475 23.418 88.4788 23.334 88.7868 23.166C89.1041 22.9887 89.3561 22.7273 89.5428 22.382C89.7295 22.0367 89.8228 21.6167 89.8228 21.122C89.8228 20.3847 89.6268 19.82 89.2348 19.428C88.8521 19.0267 88.3808 18.826 87.8208 18.826C87.2608 18.826 86.7895 19.0267 86.4068 19.428C86.0335 19.82 85.8468 20.3847 85.8468 21.122C85.8468 21.8593 86.0288 22.4287 86.3928 22.83C86.7661 23.222 87.2328 23.418 87.7928 23.418ZM103.159 17.132C104.111 17.132 104.876 17.426 105.455 18.014C106.043 18.5927 106.337 19.4047 106.337 20.45V25H104.377V20.716C104.377 20.1093 104.223 19.6473 103.915 19.33C103.607 19.0033 103.187 18.84 102.655 18.84C102.123 18.84 101.698 19.0033 101.381 19.33C101.073 19.6473 100.919 20.1093 100.919 20.716V25H98.9585V20.716C98.9585 20.1093 98.8045 19.6473 98.4965 19.33C98.1885 19.0033 97.7685 18.84 97.2365 18.84C96.6952 18.84 96.2659 19.0033 95.9485 19.33C95.6405 19.6473 95.4865 20.1093 95.4865 20.716V25H93.5265V17.244H95.4865V18.182C95.7385 17.8553 96.0605 17.5987 96.4525 17.412C96.8539 17.2253 97.2925 17.132 97.7685 17.132C98.3752 17.132 98.9165 17.2627 99.3925 17.524C99.8685 17.776 100.237 18.14 100.499 18.616C100.751 18.168 101.115 17.8087 101.591 17.538C102.076 17.2673 102.599 17.132 103.159 17.132ZM111.89 25.126C111.144 25.126 110.472 24.9627 109.874 24.636C109.277 24.3 108.806 23.8287 108.46 23.222C108.124 22.6153 107.956 21.9153 107.956 21.122C107.956 20.3287 108.129 19.6287 108.474 19.022C108.829 18.4153 109.31 17.9487 109.916 17.622C110.523 17.286 111.2 17.118 111.946 17.118C112.693 17.118 113.37 17.286 113.976 17.622C114.583 17.9487 115.059 18.4153 115.404 19.022C115.759 19.6287 115.936 20.3287 115.936 21.122C115.936 21.9153 115.754 22.6153 115.39 23.222C115.036 23.8287 114.55 24.3 113.934 24.636C113.328 24.9627 112.646 25.126 111.89 25.126ZM111.89 23.418C112.245 23.418 112.576 23.334 112.884 23.166C113.202 22.9887 113.454 22.7273 113.64 22.382C113.827 22.0367 113.92 21.6167 113.92 21.122C113.92 20.3847 113.724 19.82 113.332 19.428C112.95 19.0267 112.478 18.826 111.918 18.826C111.358 18.826 110.887 19.0267 110.504 19.428C110.131 19.82 109.944 20.3847 109.944 21.122C109.944 21.8593 110.126 22.4287 110.49 22.83C110.864 23.222 111.33 23.418 111.89 23.418ZM120.734 20.1C120.734 19.1387 120.949 18.28 121.378 17.524C121.817 16.7587 122.409 16.166 123.156 15.746C123.912 15.3167 124.757 15.102 125.69 15.102C126.782 15.102 127.739 15.382 128.56 15.942C129.381 16.502 129.955 17.2767 130.282 18.266H128.028C127.804 17.7993 127.487 17.4493 127.076 17.216C126.675 16.9827 126.208 16.866 125.676 16.866C125.107 16.866 124.598 17.0013 124.15 17.272C123.711 17.5333 123.366 17.9067 123.114 18.392C122.871 18.8773 122.75 19.4467 122.75 20.1C122.75 20.744 122.871 21.3133 123.114 21.808C123.366 22.2933 123.711 22.6713 124.15 22.942C124.598 23.2033 125.107 23.334 125.676 23.334C126.208 23.334 126.675 23.2173 127.076 22.984C127.487 22.7413 127.804 22.3867 128.028 21.92H130.282C129.955 22.9187 129.381 23.698 128.56 24.258C127.748 24.8087 126.791 25.084 125.69 25.084C124.757 25.084 123.912 24.874 123.156 24.454C122.409 24.0247 121.817 23.432 121.378 22.676C120.949 21.92 120.734 21.0613 120.734 20.1ZM135.65 25.126C134.904 25.126 134.232 24.9627 133.634 24.636C133.037 24.3 132.566 23.8287 132.22 23.222C131.884 22.6153 131.716 21.9153 131.716 21.122C131.716 20.3287 131.889 19.6287 132.234 19.022C132.589 18.4153 133.07 17.9487 133.676 17.622C134.283 17.286 134.96 17.118 135.706 17.118C136.453 17.118 137.13 17.286 137.736 17.622C138.343 17.9487 138.819 18.4153 139.164 19.022C139.519 19.6287 139.696 20.3287 139.696 21.122C139.696 21.9153 139.514 22.6153 139.15 23.222C138.796 23.8287 138.31 24.3 137.694 24.636C137.088 24.9627 136.406 25.126 135.65 25.126ZM135.65 23.418C136.005 23.418 136.336 23.334 136.644 23.166C136.962 22.9887 137.214 22.7273 137.4 22.382C137.587 22.0367 137.68 21.6167 137.68 21.122C137.68 20.3847 137.484 19.82 137.092 19.428C136.71 19.0267 136.238 18.826 135.678 18.826C135.118 18.826 134.647 19.0267 134.264 19.428C133.891 19.82 133.704 20.3847 133.704 21.122C133.704 21.8593 133.886 22.4287 134.25 22.83C134.624 23.222 135.09 23.418 135.65 23.418ZM140.88 21.094C140.88 20.31 141.034 19.6147 141.342 19.008C141.659 18.4013 142.089 17.9347 142.63 17.608C143.171 17.2813 143.773 17.118 144.436 17.118C144.94 17.118 145.421 17.23 145.878 17.454C146.335 17.6687 146.699 17.958 146.97 18.322V14.64H148.958V25H146.97V23.852C146.727 24.2347 146.387 24.5427 145.948 24.776C145.509 25.0093 145.001 25.126 144.422 25.126C143.769 25.126 143.171 24.958 142.63 24.622C142.089 24.286 141.659 23.8147 141.342 23.208C141.034 22.592 140.88 21.8873 140.88 21.094ZM146.984 21.122C146.984 20.646 146.891 20.24 146.704 19.904C146.517 19.5587 146.265 19.2973 145.948 19.12C145.631 18.9333 145.29 18.84 144.926 18.84C144.562 18.84 144.226 18.9287 143.918 19.106C143.61 19.2833 143.358 19.5447 143.162 19.89C142.975 20.226 142.882 20.6273 142.882 21.094C142.882 21.5607 142.975 21.9713 143.162 22.326C143.358 22.6713 143.61 22.9373 143.918 23.124C144.235 23.3107 144.571 23.404 144.926 23.404C145.29 23.404 145.631 23.3153 145.948 23.138C146.265 22.9513 146.517 22.69 146.704 22.354C146.891 22.0087 146.984 21.598 146.984 21.122ZM158.332 20.954C158.332 21.234 158.314 21.486 158.276 21.71H152.606C152.653 22.27 152.849 22.7087 153.194 23.026C153.54 23.3433 153.964 23.502 154.468 23.502C155.196 23.502 155.714 23.1893 156.022 22.564H158.136C157.912 23.3107 157.483 23.9267 156.848 24.412C156.214 24.888 155.434 25.126 154.51 25.126C153.764 25.126 153.092 24.9627 152.494 24.636C151.906 24.3 151.444 23.8287 151.108 23.222C150.782 22.6153 150.618 21.9153 150.618 21.122C150.618 20.3193 150.782 19.6147 151.108 19.008C151.435 18.4013 151.892 17.9347 152.48 17.608C153.068 17.2813 153.745 17.118 154.51 17.118C155.248 17.118 155.906 17.2767 156.484 17.594C157.072 17.9113 157.525 18.364 157.842 18.952C158.169 19.5307 158.332 20.198 158.332 20.954ZM156.302 20.394C156.293 19.89 156.111 19.4887 155.756 19.19C155.402 18.882 154.968 18.728 154.454 18.728C153.969 18.728 153.558 18.8773 153.222 19.176C152.896 19.4653 152.695 19.8713 152.62 20.394H156.302Z" fill="white"/>
<mask id="mask0_3426_36989" style="mask-type:luminance" maskUnits="userSpaceOnUse" x="172" y="10" width="21" height="21">
<path fill-rule="evenodd" clip-rule="evenodd" d="M172 10H193V31H172V10Z" fill="white"/>
</mask>
<g mask="url(#mask0_3426_36989)">
<path fill-rule="evenodd" clip-rule="evenodd" d="M181.628 22.4088L185.004 27.8857C185.152 28.1257 185.382 28.1229 185.476 28.11C185.569 28.0971 185.793 28.0398 185.874 27.7675L190.096 13.51C190.17 13.258 190.034 13.0863 189.973 13.0254C189.914 12.9645 189.745 12.8343 189.5 12.9035L175.233 17.0816C174.962 17.1609 174.903 17.388 174.89 17.4813C174.877 17.5763 174.874 17.8117 175.113 17.9622L180.652 21.4267L185.547 16.4806C185.815 16.2092 186.254 16.2064 186.526 16.4751C186.798 16.7437 186.8 17.1831 186.532 17.4545L181.628 22.4088ZM185.404 29.5003C184.761 29.5003 184.172 29.1735 183.825 28.6123L180.246 22.805L174.379 19.1356C173.746 18.7396 173.416 18.0343 173.518 17.293C173.62 16.5518 174.129 15.9628 174.843 15.7533L189.111 11.5753C189.767 11.3833 190.47 11.5651 190.954 12.047C191.438 12.5335 191.618 13.2443 191.422 13.9034L187.201 28.1599C186.989 28.8772 186.399 29.384 185.659 29.4828C185.572 29.4938 185.488 29.5003 185.404 29.5003Z" fill="white"/>
<path d="M181.628 22.4088L181.45 22.233L181.312 22.3727L181.415 22.54L181.628 22.4088ZM185.004 27.8857L185.217 27.7547L185.217 27.7545L185.004 27.8857ZM185.874 27.7675L186.114 27.839L186.114 27.8385L185.874 27.7675ZM190.096 13.51L190.335 13.581L190.336 13.5803L190.096 13.51ZM189.973 13.0254L189.793 13.1994L189.796 13.2022L189.973 13.0254ZM189.5 12.9035L189.432 12.663L189.43 12.6636L189.5 12.9035ZM175.233 17.0816L175.162 16.8416L175.162 16.8417L175.233 17.0816ZM174.89 17.4813L174.643 17.4469L174.642 17.4476L174.89 17.4813ZM175.113 17.9622L174.979 18.1738L174.98 18.1742L175.113 17.9622ZM180.652 21.4267L180.52 21.6386L180.689 21.7447L180.83 21.6025L180.652 21.4267ZM185.547 16.4806L185.369 16.3047L185.369 16.3048L185.547 16.4806ZM186.532 17.4545L186.354 17.2786L186.354 17.2786L186.532 17.4545ZM183.825 28.6123L183.612 28.7434L183.612 28.7438L183.825 28.6123ZM180.246 22.805L180.459 22.6738L180.428 22.624L180.379 22.593L180.246 22.805ZM174.379 19.1356L174.246 19.3474L174.246 19.3475L174.379 19.1356ZM173.518 17.293L173.766 17.3273L173.766 17.327L173.518 17.293ZM174.843 15.7533L174.773 15.5134L174.773 15.5134L174.843 15.7533ZM189.111 11.5753L189.041 11.3353L189.04 11.3353L189.111 11.5753ZM190.954 12.047L191.131 11.8707L191.131 11.8699L190.954 12.047ZM191.422 13.9034L191.183 13.8322L191.183 13.8324L191.422 13.9034ZM187.201 28.1599L186.961 28.089L186.961 28.0893L187.201 28.1599ZM185.659 29.4828L185.691 29.7308L185.692 29.7306L185.659 29.4828ZM181.415 22.54L184.791 28.0169L185.217 27.7545L181.841 22.2777L181.415 22.54ZM184.791 28.0167C185.016 28.3822 185.377 28.376 185.51 28.3576L185.441 27.8624C185.417 27.8657 185.376 27.8672 185.335 27.8543C185.3 27.8432 185.257 27.8196 185.217 27.7547L184.791 28.0167ZM185.51 28.3576C185.64 28.3396 185.991 28.2521 186.114 27.839L185.635 27.6961C185.613 27.7705 185.576 27.8054 185.544 27.8256C185.508 27.8491 185.467 27.8587 185.441 27.8624L185.51 28.3576ZM186.114 27.8385L190.335 13.581L189.856 13.439L185.635 27.6966L186.114 27.8385ZM190.336 13.5803C190.447 13.1991 190.238 12.9364 190.15 12.8486L189.796 13.2022C189.83 13.2362 189.892 13.3169 189.856 13.4397L190.336 13.5803ZM190.152 12.8513C190.062 12.7584 189.803 12.558 189.432 12.663L189.568 13.1441C189.687 13.1106 189.765 13.1705 189.793 13.1994L190.152 12.8513ZM189.43 12.6636L175.162 16.8416L175.303 17.3215L189.571 13.1435L189.43 12.6636ZM175.162 16.8417C174.75 16.9628 174.66 17.3179 174.643 17.4469L175.138 17.5156C175.141 17.4902 175.151 17.4487 175.175 17.4111C175.196 17.3786 175.231 17.3426 175.303 17.3214L175.162 16.8417ZM174.642 17.4476C174.625 17.5788 174.616 17.9447 174.979 18.1738L175.246 17.7506C175.182 17.7103 175.158 17.6656 175.146 17.6279C175.133 17.5845 175.134 17.5411 175.138 17.5149L174.642 17.4476ZM174.98 18.1742L180.52 21.6386L180.785 21.2147L175.245 17.7502L174.98 18.1742ZM180.83 21.6025L185.724 16.6564L185.369 16.3048L180.475 21.2508L180.83 21.6025ZM185.724 16.6565C185.896 16.4831 186.176 16.4812 186.35 16.653L186.702 16.2971C186.331 15.9317 185.735 15.9353 185.369 16.3047L185.724 16.6565ZM186.35 16.653C186.524 16.8243 186.526 17.1052 186.354 17.2786L186.709 17.6304C187.075 17.261 187.073 16.663 186.702 16.2971L186.35 16.653ZM186.354 17.2786L181.45 22.233L181.806 22.5847L186.709 17.6304L186.354 17.2786ZM185.404 29.2503C184.849 29.2503 184.34 28.9691 184.038 28.4808L183.612 28.7438C184.005 29.3779 184.674 29.7503 185.404 29.7503V29.2503ZM184.038 28.4811L180.459 22.6738L180.033 22.9361L183.612 28.7434L184.038 28.4811ZM180.379 22.593L174.511 18.9236L174.246 19.3475L180.114 23.0169L180.379 22.593ZM174.511 18.9237C173.962 18.5799 173.677 17.9709 173.766 17.3273L173.271 17.2588C173.155 18.0977 173.53 18.8992 174.246 19.3474L174.511 18.9237ZM173.766 17.327C173.854 16.6834 174.293 16.175 174.913 15.9932L174.773 15.5134C173.964 15.7506 173.386 16.4202 173.271 17.2591L173.766 17.327ZM174.913 15.9932L189.181 11.8152L189.04 11.3353L174.773 15.5134L174.913 15.9932ZM189.181 11.8152C189.749 11.649 190.358 11.8061 190.778 12.2241L191.131 11.8699C190.583 11.3241 189.785 11.1175 189.041 11.3353L189.181 11.8152ZM190.777 12.2232C191.196 12.645 191.352 13.2609 191.183 13.8322L191.662 13.9745C191.884 13.2276 191.68 12.422 191.131 11.8707L190.777 12.2232ZM191.183 13.8324L186.961 28.089L187.441 28.2309L191.662 13.9743L191.183 13.8324ZM186.961 28.0893C186.777 28.7121 186.267 29.1493 185.626 29.235L185.692 29.7306C186.53 29.6187 187.201 29.0423 187.441 28.2306L186.961 28.0893ZM185.628 29.2348C185.549 29.2448 185.476 29.2503 185.404 29.2503V29.7503C185.501 29.7503 185.596 29.7429 185.691 29.7308L185.628 29.2348Z" fill="white"/>
</g>
</svg>
