<svg width="184" height="40" viewBox="0 0 184 40" fill="none" xmlns="http://www.w3.org/2000/svg">
<rect width="184" height="40" rx="8" fill="#ECEFF1"/>
<path d="M38 22V22.8C38 23.9201 38 24.4802 37.782 24.908C37.5903 25.2843 37.2843 25.5903 36.908 25.782C36.4802 26 35.9201 26 34.8 26H29.2C28.0799 26 27.5198 26 27.092 25.782C26.7157 25.5903 26.4097 25.2843 26.218 24.908C26 24.4802 26 23.9201 26 22.8V22M35.3333 18.6667L32 22M32 22L28.6667 18.6667M32 22V14" stroke="#546E7A" stroke-width="2" stroke-linecap="round" stroke-linejoin="round"/>
<path d="M56.8078 15.228C57.8344 15.228 58.7351 15.4287 59.5098 15.83C60.2938 16.2313 60.8958 16.8053 61.3158 17.552C61.7451 18.2893 61.9598 19.148 61.9598 20.128C61.9598 21.108 61.7451 21.9667 61.3158 22.704C60.8958 23.432 60.2938 23.9967 59.5098 24.398C58.7351 24.7993 57.8344 25 56.8078 25H53.3918V15.228H56.8078ZM56.7378 23.334C57.7644 23.334 58.5578 23.054 59.1178 22.494C59.6778 21.934 59.9578 21.1453 59.9578 20.128C59.9578 19.1107 59.6778 18.3173 59.1178 17.748C58.5578 17.1693 57.7644 16.88 56.7378 16.88H55.3518V23.334H56.7378ZM67.1209 25.126C66.3743 25.126 65.7023 24.9627 65.1049 24.636C64.5076 24.3 64.0363 23.8287 63.6909 23.222C63.3549 22.6153 63.1869 21.9153 63.1869 21.122C63.1869 20.3287 63.3596 19.6287 63.7049 19.022C64.0596 18.4153 64.5403 17.9487 65.1469 17.622C65.7536 17.286 66.4303 17.118 67.1769 17.118C67.9236 17.118 68.6003 17.286 69.2069 17.622C69.8136 17.9487 70.2896 18.4153 70.6349 19.022C70.9896 19.6287 71.1669 20.3287 71.1669 21.122C71.1669 21.9153 70.9849 22.6153 70.6209 23.222C70.2663 23.8287 69.7809 24.3 69.1649 24.636C68.5583 24.9627 67.8769 25.126 67.1209 25.126ZM67.1209 23.418C67.4756 23.418 67.8069 23.334 68.1149 23.166C68.4323 22.9887 68.6843 22.7273 68.8709 22.382C69.0576 22.0367 69.1509 21.6167 69.1509 21.122C69.1509 20.3847 68.9549 19.82 68.5629 19.428C68.1803 19.0267 67.7089 18.826 67.1489 18.826C66.5889 18.826 66.1176 19.0267 65.7349 19.428C65.3616 19.82 65.1749 20.3847 65.1749 21.122C65.1749 21.8593 65.3569 22.4287 65.7209 22.83C66.0943 23.222 66.5609 23.418 67.1209 23.418ZM83.6067 17.244L81.3387 25H79.2247L77.8107 19.582L76.3967 25H74.2687L71.9867 17.244H73.9747L75.3467 23.152L76.8307 17.244H78.9027L80.3587 23.138L81.7307 17.244H83.6067ZM89.2152 17.132C90.1392 17.132 90.8858 17.426 91.4552 18.014C92.0245 18.5927 92.3092 19.4047 92.3092 20.45V25H90.3492V20.716C90.3492 20.1 90.1952 19.6287 89.8872 19.302C89.5792 18.966 89.1592 18.798 88.6272 18.798C88.0858 18.798 87.6565 18.966 87.3392 19.302C87.0312 19.6287 86.8772 20.1 86.8772 20.716V25H84.9172V17.244H86.8772V18.21C87.1385 17.874 87.4698 17.6127 87.8712 17.426C88.2818 17.23 88.7298 17.132 89.2152 17.132ZM96.383 14.64V25H94.423V14.64H96.383ZM102.014 25.126C101.267 25.126 100.595 24.9627 99.9975 24.636C99.4002 24.3 98.9288 23.8287 98.5835 23.222C98.2475 22.6153 98.0795 21.9153 98.0795 21.122C98.0795 20.3287 98.2522 19.6287 98.5975 19.022C98.9522 18.4153 99.4328 17.9487 100.04 17.622C100.646 17.286 101.323 17.118 102.07 17.118C102.816 17.118 103.493 17.286 104.1 17.622C104.706 17.9487 105.182 18.4153 105.528 19.022C105.882 19.6287 106.06 20.3287 106.06 21.122C106.06 21.9153 105.878 22.6153 105.514 23.222C105.159 23.8287 104.674 24.3 104.058 24.636C103.451 24.9627 102.77 25.126 102.014 25.126ZM102.014 23.418C102.368 23.418 102.7 23.334 103.008 23.166C103.325 22.9887 103.577 22.7273 103.764 22.382C103.95 22.0367 104.044 21.6167 104.044 21.122C104.044 20.3847 103.848 19.82 103.456 19.428C103.073 19.0267 102.602 18.826 102.042 18.826C101.482 18.826 101.01 19.0267 100.628 19.428C100.254 19.82 100.068 20.3847 100.068 21.122C100.068 21.8593 100.25 22.4287 100.614 22.83C100.987 23.222 101.454 23.418 102.014 23.418ZM107.243 21.094C107.243 20.31 107.397 19.6147 107.705 19.008C108.023 18.4013 108.447 17.9347 108.979 17.608C109.521 17.2813 110.123 17.118 110.785 17.118C111.364 17.118 111.868 17.2347 112.297 17.468C112.736 17.7013 113.086 17.9953 113.347 18.35V17.244H115.321V25H113.347V23.866C113.095 24.23 112.745 24.5333 112.297 24.776C111.859 25.0093 111.35 25.126 110.771 25.126C110.118 25.126 109.521 24.958 108.979 24.622C108.447 24.286 108.023 23.8147 107.705 23.208C107.397 22.592 107.243 21.8873 107.243 21.094ZM113.347 21.122C113.347 20.646 113.254 20.24 113.067 19.904C112.881 19.5587 112.629 19.2973 112.311 19.12C111.994 18.9333 111.653 18.84 111.289 18.84C110.925 18.84 110.589 18.9287 110.281 19.106C109.973 19.2833 109.721 19.5447 109.525 19.89C109.339 20.226 109.245 20.6273 109.245 21.094C109.245 21.5607 109.339 21.9713 109.525 22.326C109.721 22.6713 109.973 22.9373 110.281 23.124C110.599 23.3107 110.935 23.404 111.289 23.404C111.653 23.404 111.994 23.3153 112.311 23.138C112.629 22.9513 112.881 22.69 113.067 22.354C113.254 22.0087 113.347 21.598 113.347 21.122ZM116.982 21.094C116.982 20.31 117.136 19.6147 117.444 19.008C117.761 18.4013 118.19 17.9347 118.732 17.608C119.273 17.2813 119.875 17.118 120.538 17.118C121.042 17.118 121.522 17.23 121.98 17.454C122.437 17.6687 122.801 17.958 123.072 18.322V14.64H125.06V25H123.072V23.852C122.829 24.2347 122.488 24.5427 122.05 24.776C121.611 25.0093 121.102 25.126 120.524 25.126C119.87 25.126 119.273 24.958 118.732 24.622C118.19 24.286 117.761 23.8147 117.444 23.208C117.136 22.592 116.982 21.8873 116.982 21.094ZM123.086 21.122C123.086 20.646 122.992 20.24 122.806 19.904C122.619 19.5587 122.367 19.2973 122.05 19.12C121.732 18.9333 121.392 18.84 121.028 18.84C120.664 18.84 120.328 18.9287 120.02 19.106C119.712 19.2833 119.46 19.5447 119.264 19.89C119.077 20.226 118.984 20.6273 118.984 21.094C118.984 21.5607 119.077 21.9713 119.264 22.326C119.46 22.6713 119.712 22.9373 120.02 23.124C120.337 23.3107 120.673 23.404 121.028 23.404C121.392 23.404 121.732 23.3153 122.05 23.138C122.367 22.9513 122.619 22.69 122.806 22.354C122.992 22.0087 123.086 21.598 123.086 21.122ZM130.334 20.1C130.334 19.1387 130.548 18.28 130.978 17.524C131.416 16.7587 132.009 16.166 132.756 15.746C133.512 15.3167 134.356 15.102 135.29 15.102C136.382 15.102 137.338 15.382 138.16 15.942C138.981 16.502 139.555 17.2767 139.882 18.266H137.628C137.404 17.7993 137.086 17.4493 136.676 17.216C136.274 16.9827 135.808 16.866 135.276 16.866C134.706 16.866 134.198 17.0013 133.75 17.272C133.311 17.5333 132.966 17.9067 132.714 18.392C132.471 18.8773 132.35 19.4467 132.35 20.1C132.35 20.744 132.471 21.3133 132.714 21.808C132.966 22.2933 133.311 22.6713 133.75 22.942C134.198 23.2033 134.706 23.334 135.276 23.334C135.808 23.334 136.274 23.2173 136.676 22.984C137.086 22.7413 137.404 22.3867 137.628 21.92H139.882C139.555 22.9187 138.981 23.698 138.16 24.258C137.348 24.8087 136.391 25.084 135.29 25.084C134.356 25.084 133.512 24.874 132.756 24.454C132.009 24.0247 131.416 23.432 130.978 22.676C130.548 21.92 130.334 21.0613 130.334 20.1ZM145.18 25.098C144.499 25.098 143.883 24.9813 143.332 24.748C142.791 24.5147 142.361 24.1787 142.044 23.74C141.727 23.3013 141.563 22.7833 141.554 22.186H143.654C143.682 22.5873 143.822 22.9047 144.074 23.138C144.335 23.3713 144.69 23.488 145.138 23.488C145.595 23.488 145.955 23.3807 146.216 23.166C146.477 22.942 146.608 22.6527 146.608 22.298C146.608 22.0087 146.519 21.7707 146.342 21.584C146.165 21.3973 145.941 21.2527 145.67 21.15C145.409 21.038 145.045 20.9167 144.578 20.786C143.943 20.5993 143.425 20.4173 143.024 20.24C142.632 20.0533 142.291 19.778 142.002 19.414C141.722 19.0407 141.582 18.546 141.582 17.93C141.582 17.3513 141.727 16.8473 142.016 16.418C142.305 15.9887 142.711 15.662 143.234 15.438C143.757 15.2047 144.354 15.088 145.026 15.088C146.034 15.088 146.851 15.3353 147.476 15.83C148.111 16.3153 148.461 16.9967 148.526 17.874H146.37C146.351 17.538 146.207 17.2627 145.936 17.048C145.675 16.824 145.325 16.712 144.886 16.712C144.503 16.712 144.195 16.81 143.962 17.006C143.738 17.202 143.626 17.4867 143.626 17.86C143.626 18.1213 143.71 18.3407 143.878 18.518C144.055 18.686 144.27 18.826 144.522 18.938C144.783 19.0407 145.147 19.162 145.614 19.302C146.249 19.4887 146.767 19.6753 147.168 19.862C147.569 20.0487 147.915 20.3287 148.204 20.702C148.493 21.0753 148.638 21.5653 148.638 22.172C148.638 22.6947 148.503 23.18 148.232 23.628C147.961 24.076 147.565 24.4353 147.042 24.706C146.519 24.9673 145.899 25.098 145.18 25.098ZM159.365 15.228L155.781 25H153.401L149.817 15.228H151.917L154.605 22.998L157.279 15.228H159.365Z" fill="#546E7A"/>
</svg>
