<svg width="122" height="40" viewBox="0 0 122 40" fill="none" xmlns="http://www.w3.org/2000/svg">
<rect x="1" y="1" width="120" height="38" rx="11" fill="#3A379F"/>
<rect x="1" y="1" width="120" height="38" rx="11" stroke="#610BEF" stroke-width="2"/>
<path d="M36.5632 20.1C36.5632 19.1387 36.7779 18.28 37.2072 17.524C37.6459 16.7587 38.2386 16.166 38.9852 15.746C39.7412 15.3167 40.5859 15.102 41.5192 15.102C42.6112 15.102 43.5679 15.382 44.3892 15.942C45.2106 16.502 45.7846 17.2767 46.1112 18.266H43.8572C43.6332 17.7993 43.3159 17.4493 42.9052 17.216C42.5039 16.9827 42.0372 16.866 41.5052 16.866C40.9359 16.866 40.4272 17.0013 39.9792 17.272C39.5406 17.5333 39.1952 17.9067 38.9432 18.392C38.7006 18.8773 38.5792 19.4467 38.5792 20.1C38.5792 20.744 38.7006 21.3133 38.9432 21.808C39.1952 22.2933 39.5406 22.6713 39.9792 22.942C40.4272 23.2033 40.9359 23.334 41.5052 23.334C42.0372 23.334 42.5039 23.2173 42.9052 22.984C43.3159 22.7413 43.6332 22.3867 43.8572 21.92H46.1112C45.7846 22.9187 45.2106 23.698 44.3892 24.258C43.5772 24.8087 42.6206 25.084 41.5192 25.084C40.5859 25.084 39.7412 24.874 38.9852 24.454C38.2386 24.0247 37.6459 23.432 37.2072 22.676C36.7779 21.92 36.5632 21.0613 36.5632 20.1ZM49.9953 18.448C50.2473 18.0373 50.574 17.7153 50.9753 17.482C51.386 17.2487 51.8527 17.132 52.3753 17.132V19.19H51.8573C51.2413 19.19 50.7747 19.3347 50.4573 19.624C50.1493 19.9133 49.9953 20.4173 49.9953 21.136V25H48.0353V17.244H49.9953V18.448ZM61.1555 20.954C61.1555 21.234 61.1368 21.486 61.0995 21.71H55.4295C55.4762 22.27 55.6722 22.7087 56.0175 23.026C56.3628 23.3433 56.7875 23.502 57.2915 23.502C58.0195 23.502 58.5375 23.1893 58.8455 22.564H60.9595C60.7355 23.3107 60.3062 23.9267 59.6715 24.412C59.0368 24.888 58.2575 25.126 57.3335 25.126C56.5868 25.126 55.9148 24.9627 55.3175 24.636C54.7295 24.3 54.2675 23.8287 53.9315 23.222C53.6048 22.6153 53.4415 21.9153 53.4415 21.122C53.4415 20.3193 53.6048 19.6147 53.9315 19.008C54.2582 18.4013 54.7155 17.9347 55.3035 17.608C55.8915 17.2813 56.5682 17.118 57.3335 17.118C58.0708 17.118 58.7288 17.2767 59.3075 17.594C59.8955 17.9113 60.3482 18.364 60.6655 18.952C60.9922 19.5307 61.1555 20.198 61.1555 20.954ZM59.1255 20.394C59.1162 19.89 58.9342 19.4887 58.5795 19.19C58.2248 18.882 57.7908 18.728 57.2775 18.728C56.7922 18.728 56.3815 18.8773 56.0455 19.176C55.7188 19.4653 55.5182 19.8713 55.4435 20.394H59.1255ZM62.3321 21.094C62.3321 20.31 62.4861 19.6147 62.7941 19.008C63.1115 18.4013 63.5361 17.9347 64.0681 17.608C64.6095 17.2813 65.2115 17.118 65.8741 17.118C66.4528 17.118 66.9568 17.2347 67.3861 17.468C67.8248 17.7013 68.1748 17.9953 68.4361 18.35V17.244H70.4101V25H68.4361V23.866C68.1841 24.23 67.8341 24.5333 67.3861 24.776C66.9475 25.0093 66.4388 25.126 65.8601 25.126C65.2068 25.126 64.6095 24.958 64.0681 24.622C63.5361 24.286 63.1115 23.8147 62.7941 23.208C62.4861 22.592 62.3321 21.8873 62.3321 21.094ZM68.4361 21.122C68.4361 20.646 68.3428 20.24 68.1561 19.904C67.9695 19.5587 67.7175 19.2973 67.4001 19.12C67.0828 18.9333 66.7421 18.84 66.3781 18.84C66.0141 18.84 65.6781 18.9287 65.3701 19.106C65.0621 19.2833 64.8101 19.5447 64.6141 19.89C64.4275 20.226 64.3341 20.6273 64.3341 21.094C64.3341 21.5607 64.4275 21.9713 64.6141 22.326C64.8101 22.6713 65.0621 22.9373 65.3701 23.124C65.6875 23.3107 66.0235 23.404 66.3781 23.404C66.7421 23.404 67.0828 23.3153 67.4001 23.138C67.7175 22.9513 67.9695 22.69 68.1561 22.354C68.3428 22.0087 68.4361 21.598 68.4361 21.122ZM74.8564 18.854V22.606C74.8564 22.8673 74.9171 23.0587 75.0384 23.18C75.1691 23.292 75.3837 23.348 75.6824 23.348H76.5924V25H75.3604C73.7084 25 72.8824 24.1973 72.8824 22.592V18.854H71.9584V17.244H72.8824V15.326H74.8564V17.244H76.5924V18.854H74.8564ZM85.4621 20.954C85.4621 21.234 85.4435 21.486 85.4061 21.71H79.7361C79.7828 22.27 79.9788 22.7087 80.3241 23.026C80.6695 23.3433 81.0941 23.502 81.5981 23.502C82.3261 23.502 82.8441 23.1893 83.1521 22.564H85.2661C85.0421 23.3107 84.6128 23.9267 83.9781 24.412C83.3435 24.888 82.5641 25.126 81.6401 25.126C80.8935 25.126 80.2215 24.9627 79.6241 24.636C79.0361 24.3 78.5741 23.8287 78.2381 23.222C77.9115 22.6153 77.7481 21.9153 77.7481 21.122C77.7481 20.3193 77.9115 19.6147 78.2381 19.008C78.5648 18.4013 79.0221 17.9347 79.6101 17.608C80.1981 17.2813 80.8748 17.118 81.6401 17.118C82.3775 17.118 83.0355 17.2767 83.6141 17.594C84.2021 17.9113 84.6548 18.364 84.9721 18.952C85.2988 19.5307 85.4621 20.198 85.4621 20.954ZM83.4321 20.394C83.4228 19.89 83.2408 19.4887 82.8861 19.19C82.5315 18.882 82.0975 18.728 81.5841 18.728C81.0988 18.728 80.6881 18.8773 80.3521 19.176C80.0255 19.4653 79.8248 19.8713 79.7501 20.394H83.4321Z" fill="white"/>
</svg>
