<svg width="30" height="36" viewBox="0 0 30 36" fill="none" xmlns="http://www.w3.org/2000/svg">
<path d="M28.5 30V19.5C28.5 16.1863 25.8137 13.5 22.5 13.5H19.3816C18.1389 13.5 17.1316 12.4926 17.1316 11.25V7.5C17.1316 4.18629 14.4453 1.5 11.1316 1.5H6M28.5 30C28.5 32.4853 26.4853 34.5 24 34.5H6C3.51472 34.5 1.5 32.4853 1.5 30V6C1.5 3.51472 3.51472 1.5 6 1.5M28.5 30V19.9271C28.5 16.745 27.376 13.6652 25.3263 11.2312L21.1772 6.30417C18.6121 3.25815 14.8331 1.5 10.8509 1.5H6" stroke="#61308C" stroke-width="3"/>
</svg>
