<svg width="96" height="96" viewBox="0 0 96 96" fill="none" xmlns="http://www.w3.org/2000/svg">
<path d="M87.3231 56.48C87.1536 53.6617 85.9145 51.0144 83.859 49.0788C81.8034 47.1433 79.0865 46.0654 76.2631 46.0654C73.4397 46.0654 70.7228 47.1433 68.6673 49.0788C66.6118 51.0144 65.3727 53.6617 65.2031 56.48V60.48C65.2031 60.96 65.2031 61.52 65.2031 62.08V64.64C65.2136 65.3969 65.5217 66.1192 66.0607 66.6507C66.5996 67.1821 67.3262 67.4801 68.0831 67.48C68.5681 67.4879 69.0463 67.3659 69.4683 67.1268C69.8903 66.8877 70.2407 66.5401 70.4831 66.12C70.4963 66.0271 70.4963 65.9329 70.4831 65.84C70.6555 65.491 70.751 65.1091 70.7631 64.72V56.32C70.7626 55.6252 70.9024 54.9375 71.1741 54.298C71.4459 53.6586 71.8439 53.0806 72.3445 52.5988C72.845 52.1169 73.4377 51.7411 74.087 51.4938C74.7363 51.2466 75.4289 51.1331 76.1231 51.16C77.2368 51.09 78.3418 51.3946 79.2624 52.0252C80.183 52.6558 80.8661 53.5763 81.2031 54.64C81.3613 55.186 81.4421 55.7515 81.4431 56.32V64.68C81.4552 65.0691 81.5507 65.451 81.7231 65.8V66.08C81.9689 66.5061 82.3255 66.8577 82.7552 67.0971C83.1849 67.3366 83.6715 67.4551 84.1631 67.44C84.9131 67.4296 85.6295 67.1271 86.1599 66.5967C86.6902 66.0664 86.9928 65.35 87.0031 64.6V56.6L87.3231 56.48Z" fill="#61308C"/>
<path d="M65.1999 37.0799C64.5999 38.9599 62.1599 45.0799 58.8399 43.7199C57.0825 42.7218 55.6832 41.1966 54.8399 39.3599C54.4331 38.6781 54.0723 37.9698 53.7599 37.2399C50.9508 37.4768 48.1413 36.7885 45.7599 35.2799C45.5372 35.0488 45.3607 34.7773 45.2399 34.4799C44.9982 33.8214 44.9982 33.0984 45.2399 32.4399C45.9457 30.4948 47.0963 28.7415 48.5999 27.3199L49.2399 26.7199C48.578 24.9447 48.1609 23.0876 47.9999 21.1999C48.0154 20.5399 48.1941 19.8941 48.5199 19.3199C48.6445 19.1291 48.7923 18.9544 48.9599 18.7999C51.0799 17.0799 54.7599 18.7999 56.9599 20.1599L57.5999 20.5199L58.1999 20.1199C59.2436 19.3593 60.325 18.6517 61.4399 17.9999C63.1599 17.0799 65.0799 16.4399 66.2799 17.2799C66.7689 17.556 67.1819 17.9489 67.4821 18.4235C67.7822 18.8982 67.9601 19.4397 67.9999 19.9999C68.0399 20.6393 68.0399 21.2805 67.9999 21.9199C67.9999 22.8399 67.7599 23.7599 67.6399 24.5599C67.5199 25.3599 67.3599 26.0799 67.2799 26.4399C68.1199 27.0799 69.3199 27.9599 70.3999 28.9599C71.0374 29.5765 71.5891 30.2761 72.0399 31.0399C72.2859 31.4282 72.4516 31.8619 72.5272 32.3154C72.6027 32.7688 72.5867 33.2328 72.4799 33.6799C72.4199 33.8938 72.3253 34.0965 72.1999 34.2799C70.9599 36.1999 66.5999 36.7199 65.3199 36.9999" fill="#B3742A"/>
<path d="M64.9559 36.5189C64.3559 38.3189 62.0359 44.1189 58.7959 42.9189C57.0429 41.9891 55.6391 40.5152 54.7959 38.7189C54.4145 38.0774 54.0802 37.409 53.7959 36.7189C51.0942 36.9442 48.3938 36.2691 46.1159 34.7989C45.8944 34.5822 45.7177 34.3239 45.5959 34.0389C45.3534 33.3943 45.3534 32.6835 45.5959 32.0389C46.2964 30.1782 47.4033 28.4974 48.8359 27.1189L49.4359 26.5589C48.9138 24.8187 48.6312 23.0154 48.5959 21.1989C48.5971 20.5674 48.7625 19.9471 49.0759 19.3989C49.1907 19.2123 49.3401 19.0494 49.5159 18.9189C51.5159 17.2389 55.0759 18.9189 57.2759 20.2389L57.9159 20.5989C58.0994 20.4422 58.3008 20.3079 58.5159 20.1989C59.5133 19.4558 60.5552 18.7745 61.6359 18.1589C63.2759 17.2389 65.1159 16.6389 66.2759 17.4389C66.6956 17.7554 67.034 18.167 67.2635 18.6399C67.493 19.1128 67.6069 19.6334 67.5959 20.1589C67.6551 20.7708 67.6551 21.387 67.5959 21.9989C67.5363 22.8442 67.4294 23.6855 67.2759 24.5189C67.2759 25.3589 66.9959 25.9989 66.9559 26.3589C67.9995 27.1007 68.9886 27.9161 69.9159 28.7989C70.5514 29.3875 71.1032 30.0604 71.5559 30.7989C71.7855 31.1718 71.9391 31.5864 72.0077 32.0189C72.0764 32.4514 72.0588 32.8932 71.9559 33.3189C71.9005 33.5151 71.8198 33.7034 71.7159 33.8789C70.4759 35.7589 66.2759 36.2789 65.0359 36.5189" fill="#FBF28B"/>
<path d="M71.3222 33.0396C71.2843 33.2416 71.2024 33.4328 71.0822 33.5996C69.9222 35.4396 65.8422 35.9196 64.6422 36.1596C64.0422 37.9196 61.8022 43.5196 58.6422 42.3996C56.988 41.497 55.6589 40.0979 54.8422 38.3996C54.4022 37.6396 54.0822 36.9196 53.8422 36.3996C51.2263 36.6343 48.6072 35.9865 46.4022 34.5596C46.1906 34.3497 46.0149 34.1065 45.8822 33.8396C45.6799 33.202 45.6799 32.5173 45.8822 31.8796C46.5562 30.083 47.6379 28.4673 49.0422 27.1596L49.6422 26.5996C49.1403 24.9232 48.858 23.1887 48.8022 21.4396C48.8029 20.8207 48.9686 20.2132 49.2822 19.6796C49.3938 19.5146 49.5285 19.3664 49.6822 19.2396C51.6422 17.5996 55.1222 19.2396 57.2422 20.5196L57.8422 20.8396L58.4422 20.4396C59.1622 19.9596 60.2822 19.1196 61.4422 18.4796C62.6022 17.8396 64.7622 16.9996 65.9222 17.7596C66.3073 18.0638 66.6162 18.4536 66.8245 18.8979C67.0328 19.3423 67.1347 19.829 67.1222 20.3196C67.1622 20.919 67.1622 21.5203 67.1222 22.1196C67.1222 22.9996 66.9222 23.8396 66.8022 24.5996C66.6822 25.3596 66.5222 26.0396 66.4822 26.3596C67.4879 27.0888 68.4496 27.8769 69.3622 28.7196C69.9819 29.287 70.5084 29.9484 70.9222 30.6796C71.3599 31.3834 71.5035 32.2309 71.3222 33.0396Z" fill="url(#paint0_linear_3581_30122)"/>
<path d="M67.1236 22.0804C67.1236 22.9604 66.9236 23.8004 66.8036 24.5204C60.7404 24.3339 54.6908 25.2001 48.9236 27.0804L49.5236 26.5204C49.0217 24.8439 48.7393 23.1094 48.6836 21.3604C51.4702 20.8381 54.2909 20.5173 57.1236 20.4004L57.7236 20.7604L58.2836 20.3604C62.2836 20.3604 65.6836 20.3604 67.1236 20.3604C67.1601 20.9331 67.1601 21.5076 67.1236 22.0804Z" fill="url(#paint1_linear_3581_30122)"/>
<path d="M70.9626 30.6417C65.9898 33.9036 60.6106 36.4991 54.9626 38.3617C54.608 37.7122 54.2876 37.0446 54.0026 36.3617C54.0026 36.3617 47.2026 36.3617 46.0026 33.7617C45.8012 33.1512 45.8012 32.4922 46.0026 31.8817C54.0234 32.9579 62.1861 31.8668 69.6426 28.7217C70.1503 29.3124 70.5929 29.9561 70.9626 30.6417Z" fill="url(#paint2_linear_3581_30122)"/>
<path d="M66.5166 23.3609C66.2766 24.2409 65.5966 24.8009 64.9566 24.6409C64.3166 24.4809 64.0366 23.6409 64.2766 22.7609C64.5166 21.8809 65.1966 21.2809 65.8366 21.4409C66.1674 21.62 66.4201 21.9155 66.5457 22.2701C66.6713 22.6248 66.6609 23.0135 66.5166 23.3609Z" fill="#FBF28D"/>
<path d="M65.9569 26.5201C65.838 26.6326 65.6806 26.6953 65.5169 26.6953C65.3532 26.6953 65.1958 26.6326 65.0769 26.5201C64.9417 26.4232 64.8467 26.2802 64.8099 26.118C64.773 25.9559 64.7969 25.7859 64.8769 25.6401C64.9958 25.5276 65.1532 25.4648 65.3169 25.4648C65.4806 25.4648 65.638 25.5276 65.7569 25.6401C65.8175 25.6963 65.8658 25.7643 65.8989 25.84C65.9319 25.9157 65.949 25.9975 65.949 26.0801C65.949 26.1627 65.9319 26.2444 65.8989 26.3201C65.8658 26.3958 65.8175 26.4639 65.7569 26.5201" fill="#FBF28D"/>
<path d="M57.2393 26.559C56.5593 27.599 55.5593 28.159 54.9993 27.799C54.4393 27.439 54.5593 26.319 55.2393 25.279C55.9193 24.239 56.8793 23.679 57.4393 23.999C57.9993 24.319 57.8793 25.519 57.4393 26.559" fill="#231F20"/>
<path d="M63.4386 31.9996V31.7196C63.7578 31.2128 63.9499 30.6365 63.9986 30.0396C63.9986 29.6396 63.9986 29.3596 63.7586 29.2396C63.6309 29.1658 63.486 29.127 63.3386 29.127C63.1911 29.127 63.0463 29.1658 62.9186 29.2396C62.4736 29.5032 62.1022 29.8746 61.8386 30.3196H61.5586C61.5586 30.3196 61.5586 30.3196 61.5586 30.0396C61.8797 29.5541 62.3029 29.1446 62.7986 28.8396C62.9857 28.7267 63.2001 28.667 63.4186 28.667C63.6371 28.667 63.8515 28.7267 64.0386 28.8396C64.2256 28.9708 64.3679 29.1562 64.4466 29.3706C64.5252 29.5851 64.5364 29.8185 64.4786 30.0396C64.4235 30.6165 64.2164 31.1686 63.8786 31.6396C63.8786 31.6396 63.5186 31.9996 63.4386 31.9996Z" fill="#231F20"/>
<path d="M57.4768 25.6792C57.1568 26.1192 56.7568 26.3592 56.5168 26.2392C56.2768 26.1192 56.5168 25.5992 56.5168 25.1592C56.5168 24.7192 57.2368 24.4392 57.4368 24.5992C57.6368 24.7592 57.4368 25.2392 57.4368 25.6792" fill="white"/>
<path d="M56.001 25.5605C56.001 25.5605 55.721 25.8005 55.641 25.7605C55.561 25.7205 55.641 25.5205 55.641 25.3605C55.641 25.2005 55.881 25.1205 56.001 25.3605C56.121 25.6005 56.001 25.6005 56.001 25.7605" fill="white"/>
<path d="M56.001 26.5607C56.001 26.5607 55.721 26.8407 55.641 26.7607C55.561 26.6807 55.641 26.5607 55.641 26.3607C55.641 26.1607 55.881 26.1207 56.001 26.3607C56.121 26.6007 56.001 26.3607 56.001 26.7207" fill="white"/>
<path d="M55.1571 28.3605C55.1571 28.3605 54.5171 28.3605 54.0771 28.3605C53.6371 28.3605 53.3571 27.6805 53.4771 27.4805C53.5971 27.2805 54.0771 27.4805 54.5571 27.4805C55.0371 27.4805 55.2771 28.1605 55.1571 28.3605Z" fill="#D96282"/>
<path d="M62.7223 33.2403C62.7223 33.2403 62.1223 33.2403 61.6423 33.2403C61.1623 33.2403 60.9223 32.5203 61.0423 32.3203C61.1623 32.1203 61.6423 32.3203 62.1223 32.3203C62.6023 32.3203 62.8423 33.0403 62.7223 33.2403Z" fill="#D96282"/>
<path d="M55.6812 34.8C54.9941 34.5632 54.4281 34.065 54.106 33.4135C53.784 32.7619 53.732 32.0097 53.9612 31.32C53.9612 30.76 54.5212 30.6 54.9612 30.76L55.6812 31.24C56.0476 31.5214 56.4515 31.7503 56.8812 31.92C57.318 32.0955 57.7748 32.2164 58.2412 32.28H59.0412C59.5212 32.48 59.6012 32.84 59.4012 33.4C59.0595 34.0453 58.4823 34.5341 57.7896 34.765C57.0968 34.9959 56.3418 34.9511 55.6812 34.64" fill="white"/>
<path d="M58.9984 32.6391C59.2784 32.6391 59.4384 32.9591 59.2384 33.4791C58.8942 34.057 58.3534 34.4917 57.715 34.7037C57.0765 34.9156 56.3831 34.8906 55.7616 34.6333C55.1401 34.3759 54.632 33.9034 54.3302 33.3022C54.0285 32.701 53.9533 32.0112 54.1184 31.3591C54.3184 30.8791 54.5584 30.7991 54.8784 30.9591C55.1984 31.1191 55.9584 31.7591 56.7984 32.1191C57.6384 32.4791 58.5184 32.4391 58.9984 32.6391ZM58.9984 32.2791L58.2384 31.9991C57.8004 31.9447 57.3705 31.8373 56.9584 31.6791C56.6153 31.5187 56.293 31.3172 55.9984 31.0791L55.2384 30.5991C55.1164 30.5418 54.9827 30.5133 54.8479 30.5158C54.7131 30.5183 54.5806 30.5518 54.4608 30.6136C54.3409 30.6755 54.2369 30.7641 54.1568 30.8725C54.0766 30.9809 54.0224 31.1064 53.9984 31.2391C53.873 31.604 53.8211 31.9903 53.8458 32.3754C53.8706 32.7605 53.9714 33.1369 54.1425 33.4829C54.3136 33.8288 54.5516 34.1374 54.8427 34.3907C55.1338 34.6441 55.4722 34.8373 55.8384 34.9591C56.1897 35.1362 56.5727 35.2415 56.9651 35.2688C57.3575 35.2962 57.7514 35.2451 58.1238 35.1184C58.4962 34.9918 58.8397 34.7922 59.1341 34.5314C59.4285 34.2705 59.6679 33.9535 59.8384 33.5991C60.1984 32.7591 59.8384 32.3991 59.3984 32.2791" fill="#231F20"/>
<path d="M59.1612 33.6404C58.7923 34.1495 58.265 34.5217 57.6618 34.6989C57.0587 34.876 56.4138 34.848 55.8282 34.6193C55.2427 34.3905 54.7496 33.974 54.4262 33.4349C54.1028 32.8959 53.9674 32.2647 54.0412 31.6404C54.6571 32.3267 55.4239 32.8607 56.2812 33.2004C57.1866 33.595 58.1793 33.7466 59.1612 33.6404ZM59.1612 33.3204H58.9612C58.0578 33.4085 57.1472 33.2567 56.3212 32.8804C55.5031 32.5895 54.7732 32.0937 54.2012 31.4404C54.1373 31.4645 54.0793 31.5019 54.031 31.5502C53.9827 31.5985 53.9453 31.6565 53.9212 31.7204C53.8289 32.4312 53.9778 33.1524 54.3442 33.7684C54.7105 34.3844 55.2731 34.8596 55.9417 35.1178C56.6103 35.376 57.3462 35.4023 58.0315 35.1925C58.7168 34.9826 59.3118 34.5487 59.7212 33.9604C59.7608 33.9012 59.7819 33.8316 59.7819 33.7604C59.7819 33.6892 59.7608 33.6196 59.7212 33.5604" fill="#231F20"/>
<path d="M28.0003 29.4804C25.8788 28.0229 23.4609 27.053 20.9203 26.6404C18.8939 26.304 16.9182 25.7126 15.0403 24.8804C14.8461 24.7549 14.686 24.5833 14.5744 24.3809C14.4627 24.1785 14.4029 23.9516 14.4003 23.7204C14.3985 23.4629 14.464 23.2093 14.5903 22.9848C14.7166 22.7603 14.8992 22.5727 15.1203 22.4404C16.2223 21.892 17.4537 21.6568 18.6803 21.7604C19.6406 21.724 20.597 21.9016 21.4803 22.2804C21.8171 22.4287 22.0975 22.681 22.2803 23.0004C22.5378 23.41 22.8905 23.7512 23.3084 23.995C23.7263 24.2388 24.197 24.3779 24.6803 24.4004C25.0652 24.4058 25.4473 24.334 25.804 24.1891C26.1607 24.0443 26.4848 23.8294 26.757 23.5572C27.0292 23.2849 27.2441 22.9609 27.389 22.6042C27.5338 22.2475 27.6056 21.8654 27.6003 21.4804C27.6225 21.2944 27.6225 21.1064 27.6003 20.9204C27.4418 20.3604 27.1218 19.8595 26.6803 19.4804L26.0003 18.8004C23.7777 17.5788 21.2502 17.0233 18.7203 17.2004C16.0036 16.9878 13.2989 17.7383 11.0803 19.3204C10.308 19.9473 9.68743 20.7406 9.26491 21.6411C8.84238 22.5415 8.62885 23.5258 8.64027 24.5204C8.60397 25.5896 8.84677 26.6499 9.34475 27.5967C9.84273 28.5436 10.5787 29.3444 11.4803 29.9204C14.5484 31.4265 17.8247 32.4646 21.2003 33.0004C21.9555 33.0924 22.673 33.3822 23.2803 33.8404C23.4374 33.9975 23.5609 34.1849 23.6435 34.3911C23.726 34.5974 23.7657 34.8183 23.7603 35.0404C23.7651 35.3673 23.6913 35.6905 23.5451 35.9828C23.3989 36.2752 23.1846 36.5282 22.9203 36.7204C21.8342 37.435 20.5321 37.7463 19.2403 37.6004C15.4003 37.4404 14.8003 36.0004 14.8003 36.0004C14.5823 35.4439 14.1943 34.9704 13.6916 34.6472C13.1889 34.324 12.597 34.1677 12.0003 34.2004H11.6803C11.1672 34.2777 10.6851 34.4941 10.2863 34.8261C9.88751 35.1581 9.58731 35.593 9.41829 36.0836C9.24927 36.5742 9.21787 37.1017 9.32752 37.6089C9.43718 38.116 9.68368 38.5835 10.0403 38.9604C10.4832 39.4029 10.9651 39.8046 11.4803 40.1604C13.8034 41.6007 16.5104 42.2983 19.2403 42.1604C22.1006 42.3312 24.9306 41.4964 27.2403 39.8004C28.0856 39.1139 28.7681 38.2483 29.2385 37.266C29.7088 36.2838 29.9554 35.2094 29.9603 34.1204C30.0034 33.2494 29.8496 32.3799 29.5103 31.5765C29.1709 30.7732 28.6548 30.0567 28.0003 29.4804Z" fill="#61308C"/>
<path d="M43.7179 72.0007C43.5478 71.6109 43.2683 71.2787 42.9134 71.0445C42.5584 70.8102 42.1432 70.6838 41.7179 70.6807C41.1676 70.692 40.6407 70.9056 40.2379 71.2807C37.8997 73.5603 34.7634 74.8361 31.4979 74.8361C28.2324 74.8361 25.0961 73.5603 22.7579 71.2807C22.355 70.9056 21.8282 70.692 21.2779 70.6807C20.8562 70.6912 20.4468 70.825 20.1003 71.0655C19.7538 71.306 19.4853 71.6427 19.3279 72.034C19.1705 72.4254 19.1311 72.8542 19.2146 73.2677C19.2982 73.6811 19.5009 74.0611 19.7979 74.3607C22.9583 77.3589 27.1619 79.0087 31.5179 78.9607C35.8731 79.0045 40.0752 77.3553 43.2379 74.3607C43.5343 74.0538 43.737 73.6687 43.822 73.2507C43.9071 72.8326 43.8709 72.3989 43.7179 72.0007Z" fill="#BD202F"/>
<path d="M87.3619 19.7203C87.2655 19.0133 86.917 18.3649 86.3804 17.8945C85.8439 17.4242 85.1555 17.1634 84.4419 17.1603C83.1842 16.933 81.893 16.9703 80.6505 17.2697C79.408 17.5692 78.2415 18.1242 77.2254 18.8994C76.2093 19.6747 75.3659 20.6531 74.7489 21.7724C74.1319 22.8917 73.7549 24.1272 73.6419 25.4003C73.6419 25.6003 73.6419 25.7603 73.6419 25.9603V39.3603C73.6301 39.7435 73.6982 40.1249 73.8419 40.4803C74.0673 40.9925 74.437 41.4279 74.9059 41.7334C75.3747 42.0388 75.9224 42.2011 76.4819 42.2003C77.0472 42.203 77.6003 42.0369 78.0706 41.7234C78.541 41.4098 78.907 40.9631 79.1219 40.4403C79.2013 40.0847 79.2013 39.7159 79.1219 39.3603V27.7203C78.9957 26.9998 79.0462 26.2593 79.2692 25.5626C79.4921 24.8659 79.8808 24.2337 80.4019 23.7203C80.835 23.371 81.3361 23.1159 81.8734 22.9713C82.4106 22.8266 82.9721 22.7956 83.5219 22.8803C83.9939 23.0677 84.5076 23.1252 85.0093 23.0466C85.511 22.9681 85.9825 22.7564 86.3747 22.4337C86.7668 22.111 87.0652 21.6891 87.2389 21.2119C87.4125 20.7346 87.455 20.2195 87.3619 19.7203Z" fill="#61308C"/>
<path d="M62.3589 47.1998C62.1448 46.6876 61.7833 46.2507 61.3204 45.9445C60.8575 45.6382 60.314 45.4765 59.7589 45.4798C59.1959 45.4628 58.6413 45.6186 58.1693 45.926C57.6974 46.2335 57.3309 46.6779 57.1189 47.1998C56.9637 47.5529 56.882 47.934 56.8789 48.3198V55.1998V57.8798V64.7598C56.882 65.1455 56.9637 65.5266 57.1189 65.8798C57.3309 66.4016 57.6974 66.8461 58.1693 67.1535C58.6413 67.461 59.1959 67.6167 59.7589 67.5998C60.314 67.6031 60.8575 67.4413 61.3204 67.1351C61.7833 66.8288 62.1448 66.3919 62.3589 65.8798C62.5187 65.5281 62.6006 65.146 62.5989 64.7598V48.3198C62.6006 47.9335 62.5187 47.5514 62.3589 47.1998Z" fill="#61308C"/>
<path d="M42.9582 36.6014C42.4334 36.6861 41.8964 36.6547 41.385 36.5096C40.8737 36.3645 40.4003 36.1091 39.9982 35.7614C39.4742 35.2501 39.0835 34.6181 38.8604 33.9207C38.6372 33.2234 38.5884 32.482 38.7182 31.7614V28.2014H41.5182C41.8876 28.278 42.2687 28.278 42.6382 28.2014C43.1503 27.9761 43.5857 27.6064 43.8912 27.1375C44.1967 26.6687 44.3589 26.121 44.3582 25.5614C44.3663 24.995 44.2024 24.4394 43.8882 23.9681C43.574 23.4967 43.1241 23.1318 42.5982 22.9214C42.2425 22.8421 41.8738 22.8421 41.5182 22.9214H38.7182V20.0014C38.7153 19.6285 38.6335 19.2604 38.4782 18.9214C38.2733 18.4028 37.9141 17.9597 37.449 17.652C36.984 17.3444 36.4356 17.1871 35.8782 17.2014C35.3152 17.1845 34.7605 17.3402 34.2886 17.6477C33.8167 17.9551 33.4501 18.3996 33.2382 18.9214C33.0386 19.2499 32.9156 19.619 32.8782 20.0014V33.4414C32.8583 33.6142 32.8583 33.7887 32.8782 33.9614C32.9918 35.2357 33.3689 36.4724 33.9854 37.5933C34.6019 38.7143 35.4444 39.695 36.4597 40.4733C37.4749 41.2517 38.6408 41.8108 39.8833 42.1151C41.1259 42.4195 42.4181 42.4625 43.6782 42.2414C44.3953 42.2287 45.0842 41.9594 45.6199 41.4824C46.1556 41.0055 46.5026 40.3523 46.5982 39.6414C46.6512 39.1744 46.5875 38.7015 46.4127 38.2651C46.2379 37.8287 45.9576 37.4426 45.5968 37.1413C45.236 36.84 44.806 36.6329 44.3455 36.5387C43.885 36.4445 43.4083 36.466 42.9582 36.6014Z" fill="#61308C"/>
<path d="M44.0009 45.4805C41.0729 45.4805 38.2649 46.6436 36.1945 48.714C34.1241 50.7844 32.9609 53.5925 32.9609 56.5205C32.9609 59.4485 34.1241 62.2565 36.1945 64.3269C38.2649 66.3973 41.0729 67.5605 44.0009 67.5605C46.9289 67.5605 49.737 66.3973 51.8074 64.3269C53.8778 62.2565 55.0409 59.4485 55.0409 56.5205C55.0409 53.5925 53.8778 50.7844 51.8074 48.714C49.737 46.6436 46.9289 45.4805 44.0009 45.4805ZM44.0009 61.8805C42.9408 61.8805 41.9045 61.5661 41.0231 60.9771C40.1416 60.3882 39.4546 59.5511 39.0489 58.5717C38.6433 57.5922 38.5371 56.5145 38.7439 55.4748C38.9507 54.435 39.4612 53.48 40.2108 52.7304C40.9605 51.9808 41.9155 51.4703 42.9553 51.2635C43.995 51.0566 45.0727 51.1628 46.0521 51.5685C47.0315 51.9742 47.8687 52.6612 48.4576 53.5426C49.0466 54.4241 49.3609 55.4604 49.3609 56.5205C49.3609 57.942 48.7962 59.3054 47.791 60.3106C46.7858 61.3158 45.4225 61.8805 44.0009 61.8805Z" fill="#61308C"/>
<path d="M8.60087 56.5601C8.58096 56.8798 8.58096 57.2004 8.60087 57.5201C8.60087 56.7201 8.60087 55.9201 8.60087 55.1201C8.64087 55.6001 8.60087 56.0001 8.60087 56.5601ZM15.6809 66.8001H15.2409L16.0409 67.1201L15.6809 66.8001Z" fill="#61308C"/>
<path d="M20.3597 45.44H18.4797C15.9863 45.6735 13.6497 46.76 11.8644 48.5162C10.079 50.2724 8.9542 52.5908 8.67969 55.08C8.67969 55.88 8.67969 56.68 8.67969 57.48C8.67969 59.68 8.67969 62.08 8.67969 65.04V73.04C8.67969 73.7932 8.9789 74.5156 9.5115 75.0482C10.0441 75.5808 10.7665 75.88 11.5197 75.88C12.2766 75.8801 13.0032 75.5821 13.5421 75.0507C14.0811 74.5192 14.3892 73.7969 14.3997 73.04V66.84C14.3997 66.84 14.3997 66.36 14.8797 66.52H15.3597H15.7997H16.1597C17.2666 66.9039 18.4282 67.1065 19.5997 67.12C22.4518 67.1049 25.1883 65.9905 27.2395 64.0087C29.2907 62.027 30.4987 59.3305 30.6121 56.4806C30.7255 53.6307 29.7355 50.8468 27.8482 48.7084C25.9609 46.5699 23.3216 45.2417 20.4797 45L20.3597 45.44ZM19.5597 61.84H18.6397H17.9997L17.4797 61.64H17.1997C16.7352 61.2479 16.3309 60.7897 15.9997 60.28L15.5997 60L15.2797 59.6V59.4L15.0397 59V58.72V58.44C15.0167 58.254 15.0167 58.066 15.0397 57.88V57.64C15.0004 57.2811 15.0004 56.9189 15.0397 56.56C15.0397 56.56 15.0397 56.24 15.0397 56.12C15.0397 56 15.0397 55.84 15.0397 55.72C15.0397 55.72 15.0397 55.52 15.0397 55.4C15.0223 55.3209 15.0223 55.2391 15.0397 55.16C15.1357 54.934 15.2564 54.7194 15.3997 54.52L15.6397 54.2L15.8797 53.88L15.9997 52.6L16.2797 52.36L16.5997 52H16.9597H17.3597H17.7197H18.1197H18.5997H19.3197C20.7412 52 22.1046 52.5647 23.1098 53.5699C24.115 54.5751 24.6797 55.9384 24.6797 57.36C24.6797 58.7816 24.115 60.1449 23.1098 61.1501C22.1046 62.1553 20.7412 62.72 19.3197 62.72L19.5597 61.84Z" fill="#61308C"/>
<defs>
<linearGradient id="paint0_linear_3581_30122" x1="50.0022" y1="29.8796" x2="68.2422" y2="29.8796" gradientUnits="userSpaceOnUse">
<stop stop-color="#F6B419"/>
<stop offset="1" stop-color="#FBE822"/>
</linearGradient>
<linearGradient id="paint1_linear_3581_30122" x1="48.6836" y1="23.6404" x2="67.1636" y2="23.6404" gradientUnits="userSpaceOnUse">
<stop stop-color="#FFC809"/>
<stop offset="1" stop-color="#F5ED6D"/>
</linearGradient>
<linearGradient id="paint2_linear_3581_30122" x1="45.6426" y1="33.5217" x2="70.9626" y2="33.5217" gradientUnits="userSpaceOnUse">
<stop stop-color="#F4A51E"/>
<stop offset="1" stop-color="#FFE000"/>
</linearGradient>
</defs>
</svg>
