<svg width="17" height="17" viewBox="0 0 17 17" fill="none" xmlns="http://www.w3.org/2000/svg">
<path fill-rule="evenodd" clip-rule="evenodd" d="M7.85536 10.0077L10.6686 14.5717C10.7916 14.7717 10.984 14.7694 11.0616 14.7587C11.1393 14.7479 11.3263 14.7002 11.394 14.4733L14.9118 2.59201C14.9733 2.382 14.8603 2.23892 14.8095 2.18815C14.7603 2.13737 14.6195 2.02891 14.4156 2.0866L2.52591 5.56828C2.30052 5.63444 2.25129 5.82368 2.24052 5.90138C2.22975 5.98061 2.22667 6.17677 2.42591 6.30216L7.04225 9.1892L11.1209 5.06749C11.3447 4.84133 11.7101 4.83902 11.9371 5.06288C12.164 5.28673 12.1655 5.6529 11.9417 5.87907L7.85536 10.0077ZM11.0016 15.9172C10.4662 15.9172 9.97543 15.6449 9.68619 15.1772L6.70376 10.3378L1.81433 7.27997C1.28738 6.94995 1.01199 6.36224 1.09737 5.74452C1.18199 5.1268 1.60586 4.63601 2.20127 4.46139L14.091 0.979708C14.6379 0.819702 15.2241 0.971246 15.6272 1.3728C16.0303 1.7782 16.1803 2.37053 16.0172 2.91979L12.4994 14.8003C12.3232 15.398 11.8309 15.8203 11.2147 15.9026C11.1424 15.9119 11.0724 15.9172 11.0016 15.9172Z" fill="#61308C"/>
<path d="M7.85536 10.0077L7.67768 9.83183L7.5394 9.97154L7.64254 10.1389L7.85536 10.0077ZM10.6686 14.5717L10.8815 14.4407L10.8814 14.4406L10.6686 14.5717ZM11.394 14.4733L11.6335 14.5447L11.6337 14.5442L11.394 14.4733ZM14.9118 2.59201L15.1515 2.66298L15.1517 2.66231L14.9118 2.59201ZM14.8095 2.18815L14.63 2.3622L14.6327 2.36492L14.8095 2.18815ZM14.4156 2.0866L14.3476 1.84604L14.3454 1.84668L14.4156 2.0866ZM2.52591 5.56828L2.45566 5.32836L2.4555 5.3284L2.52591 5.56828ZM2.24052 5.90138L1.99288 5.86705L1.99279 5.8677L2.24052 5.90138ZM2.42591 6.30216L2.29275 6.51375L2.29335 6.51412L2.42591 6.30216ZM7.04225 9.1892L6.90969 9.40117L7.07927 9.50722L7.21996 9.36505L7.04225 9.1892ZM11.1209 5.06749L10.9432 4.89163L10.9432 4.89165L11.1209 5.06749ZM11.9417 5.87907L11.764 5.7032L11.764 5.7032L11.9417 5.87907ZM9.68619 15.1772L9.47336 15.3084L9.47356 15.3087L9.68619 15.1772ZM6.70376 10.3378L6.91659 10.2066L6.8859 10.1568L6.83632 10.1258L6.70376 10.3378ZM1.81433 7.27997L1.68163 7.49185L1.68177 7.49193L1.81433 7.27997ZM1.09737 5.74452L1.34502 5.77875L1.34506 5.77845L1.09737 5.74452ZM2.20127 4.46139L2.13101 4.22147L2.13091 4.22149L2.20127 4.46139ZM14.091 0.979708L14.0208 0.739765L14.0207 0.739783L14.091 0.979708ZM15.6272 1.3728L15.8045 1.19653L15.8036 1.19569L15.6272 1.3728ZM16.0172 2.91979L15.7776 2.84863L15.7775 2.84881L16.0172 2.91979ZM12.4994 14.8003L12.2597 14.7293L12.2596 14.7296L12.4994 14.8003ZM11.2147 15.9026L11.2464 16.1506L11.2478 16.1504L11.2147 15.9026ZM7.64254 10.1389L10.4557 14.7029L10.8814 14.4406L8.06818 9.87652L7.64254 10.1389ZM10.4556 14.7028C10.6559 15.0282 10.9787 15.0226 11.096 15.0063L11.0273 14.511C11.011 14.5133 10.9836 14.5141 10.9573 14.5058C10.9369 14.4994 10.9091 14.4856 10.8815 14.4407L10.4556 14.7028ZM11.096 15.0063C11.2104 14.9904 11.5239 14.9124 11.6335 14.5447L11.1544 14.4018C11.139 14.4536 11.1151 14.4747 11.0966 14.4866C11.073 14.5018 11.0457 14.5085 11.0273 14.511L11.096 15.0063ZM11.6337 14.5442L15.1515 2.66298L14.6721 2.52103L11.1543 14.4023L11.6337 14.5442ZM15.1517 2.66231C15.2511 2.32312 15.0639 2.089 14.9863 2.01137L14.6327 2.36492C14.6425 2.37466 14.6596 2.39518 14.6702 2.42197C14.6791 2.44457 14.6854 2.47576 14.6719 2.5217L15.1517 2.66231ZM14.989 2.01411C14.9087 1.93134 14.6777 1.75263 14.3476 1.84605L14.4837 2.32715C14.5273 2.31482 14.5573 2.32082 14.5791 2.32939C14.6051 2.33957 14.6237 2.3557 14.63 2.36218L14.989 2.01411ZM14.3454 1.84668L2.45566 5.32836L2.59617 5.80821L14.4859 2.32653L14.3454 1.84668ZM2.4555 5.3284C2.08786 5.43631 2.00861 5.75358 1.99288 5.86705L2.48815 5.9357C2.49059 5.91808 2.49753 5.88988 2.51324 5.86536C2.52565 5.84598 2.54674 5.82272 2.59632 5.80817L2.4555 5.3284ZM1.99279 5.8677C1.97712 5.98302 1.96866 6.30979 2.29275 6.51375L2.55907 6.09058C2.51493 6.0628 2.5005 6.03417 2.49356 6.01144C2.48486 5.98296 2.48576 5.95328 2.48824 5.93505L1.99279 5.8677ZM2.29335 6.51412L6.90969 9.40117L7.17481 8.97724L2.55847 6.0902L2.29335 6.51412ZM7.21996 9.36505L11.2986 5.24334L10.9432 4.89165L6.86455 9.01336L7.21996 9.36505ZM11.2986 5.24336C11.4254 5.11525 11.6327 5.11381 11.7615 5.24086L12.1126 4.8849C11.7876 4.56424 11.2641 4.56741 10.9432 4.89163L11.2986 5.24336ZM11.7615 5.24086C11.8898 5.36738 11.8909 5.57503 11.764 5.7032L12.1194 6.05493C12.4402 5.73078 12.4382 5.20609 12.1126 4.8849L11.7615 5.24086ZM11.764 5.7032L7.67768 9.83183L8.03305 10.1836L12.1194 6.05493L11.764 5.7032ZM11.0016 15.6672C10.5537 15.6672 10.143 15.4405 9.89882 15.0457L9.47356 15.3087C9.80789 15.8493 10.3787 16.1672 11.0016 16.1672V15.6672ZM9.89902 15.0461L6.91659 10.2066L6.49093 10.4689L9.47336 15.3084L9.89902 15.0461ZM6.83632 10.1258L1.94689 7.06801L1.68177 7.49193L6.5712 10.5497L6.83632 10.1258ZM1.94702 7.06809C1.50342 6.79027 1.27312 6.29885 1.34502 5.77875L0.849729 5.71029C0.750847 6.42562 1.07135 7.10964 1.68163 7.49185L1.94702 7.06809ZM1.34506 5.77845C1.4163 5.25839 1.77068 4.8482 2.27162 4.70129L2.13091 4.22149C1.44103 4.42382 0.947684 4.99522 0.849687 5.71059L1.34506 5.77845ZM2.27152 4.70131L14.1612 1.21963L14.0207 0.739783L2.13101 4.22147L2.27152 4.70131ZM14.1612 1.21965C14.62 1.08544 15.1118 1.21223 15.4508 1.54992L15.8036 1.19569C15.3364 0.730258 14.6559 0.553965 14.0208 0.739765L14.1612 1.21965ZM15.4499 1.54907C15.7886 1.8897 15.9146 2.38717 15.7776 2.84863L16.2569 2.99095C16.446 2.3539 16.272 1.6667 15.8045 1.19653L15.4499 1.54907ZM15.7775 2.84881L12.2597 14.7293L12.7391 14.8713L16.2569 2.99077L15.7775 2.84881ZM12.2596 14.7296C12.1112 15.2329 11.6997 15.5856 11.1816 15.6548L11.2478 16.1504C11.9621 16.055 12.5352 15.5631 12.7392 14.871L12.2596 14.7296ZM11.1831 15.6546C11.1188 15.6628 11.0596 15.6672 11.0016 15.6672V16.1672C11.0852 16.1672 11.166 16.1609 11.2464 16.1506L11.1831 15.6546Z" fill="#61308C"/>
</svg>
