<svg width="91" height="87" viewBox="0 0 91 87" fill="none" xmlns="http://www.w3.org/2000/svg">
<g opacity="0.5">
<path d="M67.824 30.5766L59.5395 38.5485L57.5967 40.4243C57.4404 40.5582 57.1725 40.5136 57.0832 40.3126L46.052 16.5979C45.9962 16.4862 46.0074 16.3634 46.0632 16.2853C46.1413 16.1736 46.2864 16.1066 46.4316 16.1401L65.6244 21.6892C69.5322 22.828 70.7381 27.7518 67.8128 30.5655L67.824 30.5766Z" fill="#62308B"/>
</g>
<g opacity="0.5">
<path d="M39.6986 57.6292L37.8005 59.4603L29.4713 67.4768C26.546 70.3016 21.6669 68.8836 20.6843 64.9423L15.8611 45.5485C15.8164 45.3699 15.9168 45.2024 16.0843 45.1577C16.1625 45.1354 16.2518 45.1354 16.33 45.1801L39.6092 57.1156C39.799 57.2161 39.8437 57.4617 39.6986 57.618V57.6292Z" fill="#62308B"/>
</g>
<path d="M44.7446 16.4747C44.7446 16.1621 44.8227 15.8495 45.0013 15.5815C45.3921 14.9786 46.1067 14.7218 46.7877 14.9116L65.9918 20.4607C68.2694 21.1194 69.9665 22.8947 70.5248 25.1947C71.083 27.4947 70.4131 29.8394 68.7049 31.4806L58.4776 41.3283C58.0534 41.6967 57.5397 41.8307 57.0485 41.7302C56.5572 41.6297 56.1441 41.2948 55.932 40.837L44.9008 17.1223C44.8003 16.9102 44.7557 16.6869 44.7446 16.4635V16.4747ZM68.169 26.702C68.169 26.4005 68.1243 26.1102 68.0462 25.8088C67.7 24.402 66.6617 23.3189 65.2661 22.917L48.0606 17.9374L57.6625 38.5817L66.9296 29.6607C67.7559 28.868 68.1913 27.8073 68.169 26.702Z" fill="#62308B" stroke="#62308B" stroke-width="0.61" stroke-miterlimit="10"/>
<g opacity="0.5">
<path d="M36.349 6.18052L35.1989 4.98584C33.5242 3.24408 31.213 2.2504 28.8014 2.26157H12.0872C7.3867 2.26157 3.49007 5.94606 3.2221 10.6354L2.29538 26.7243C2.15023 29.1918 3.04347 31.6035 4.7629 33.3899L16.0954 45.1691L29.7057 59.3041C31.9053 61.5818 35.5339 61.66 37.8116 59.4605L39.7097 57.6294L57.6073 40.4128L59.5501 38.537C61.8277 36.3375 61.9059 32.7088 59.7064 30.42L46.0738 16.2626L41.6189 11.6291M11.3391 14.4874C9.642 14.1859 8.5032 12.5781 8.80466 10.881C9.10612 9.18392 10.725 8.05626 12.411 8.34655C14.0969 8.63685 15.2358 10.2558 14.9343 11.9529C14.6328 13.65 13.025 14.7776 11.3391 14.4762V14.4874Z" fill="white"/>
</g>
<path d="M14.5772 45.5043C14.566 44.8009 15.0349 44.131 15.7495 43.9412C16.0844 43.8184 16.531 43.8519 16.933 44.064L40.2011 55.9884C40.6366 56.2117 40.9492 56.6359 41.0385 57.1272C41.1278 57.6185 40.9715 58.1321 40.6365 58.4893C40.6253 58.5117 40.603 58.5228 40.5919 58.534L30.3535 68.3928C28.6564 70.0341 26.2782 70.6258 24.0005 69.9671C21.7228 69.3084 20.0257 67.5443 19.4563 65.2554L14.633 45.8616C14.5995 45.7388 14.5883 45.6271 14.5883 45.5043H14.5772ZM15.7718 46.3305H15.7495C15.7495 46.3305 15.7607 46.3305 15.7718 46.3305ZM17.0893 45.2587C17.0893 45.2587 17.0893 45.2587 17.0893 45.2475V45.2587ZM37.8452 57.6631L17.5918 47.2796L21.9127 64.6637C22.2588 66.0705 23.2971 67.1535 24.6928 67.5554C26.0884 67.9574 27.5398 67.6001 28.5782 66.5952L37.8452 57.6743V57.6631Z" fill="#62308B" stroke="#62308B" stroke-width="0.61" stroke-miterlimit="10"/>
<path d="M59.6955 30.4315L46.0629 16.2741L35.1881 4.97499C33.5133 3.23324 31.2021 2.23954 28.7904 2.2507H12.0763C7.37577 2.2507 3.47914 5.93519 3.21118 10.6245L2.28445 26.7135C2.13931 29.181 3.03254 31.5926 4.75197 33.3791L16.0845 45.1583L29.6948 59.2933C31.8943 61.571 35.523 61.6491 37.8007 59.4496L39.6988 57.6185L57.5964 40.4019L59.5392 38.5262C61.8169 36.3266 61.895 32.698 59.6955 30.4091V30.4315ZM11.3282 14.4988C9.63108 14.1974 8.49228 12.5896 8.79374 10.8925C9.0952 9.19541 10.7141 8.06773 12.4 8.35802C14.086 8.64832 15.2248 10.2673 14.9234 11.9644C14.6219 13.6614 13.0141 14.7891 11.3282 14.4877V14.4988Z" fill="white"/>
<path d="M1.01118 27.4502C1.01118 27.1822 1.01119 26.9254 1.02235 26.6574L1.94908 10.5685C2.25053 5.19808 6.70542 1 12.0758 1H28.79C31.5366 1 34.2051 2.12767 36.1031 4.11506L37.2532 5.30974C37.7444 5.81217 37.7332 6.61606 37.2196 7.10732C36.7172 7.59859 35.9133 7.57626 35.4221 7.07383L34.2721 5.87915C32.843 4.39419 30.8444 3.53448 28.79 3.54565H12.0758C8.04524 3.54565 4.70688 6.70537 4.48358 10.7248L3.55686 26.8137C3.43404 28.924 4.20445 31.0007 5.66708 32.5303L30.6099 58.4445C31.4361 59.3042 32.5526 59.7955 33.7361 59.8178C34.9308 59.8402 36.0585 59.4047 36.9182 58.5785L58.6567 37.6551C60.4319 35.9468 60.4878 33.1109 58.7795 31.3356L40.6921 12.5559C40.2119 12.0535 40.2231 11.2496 40.7255 10.7583C41.2279 10.267 42.0318 10.2894 42.5231 10.7918L60.6106 29.5827C63.2902 32.374 63.1897 36.8177 60.4208 39.4862L38.6823 60.3984C37.3313 61.6936 35.5561 62.3858 33.6915 62.3523C31.8269 62.3188 30.074 61.5484 28.7788 60.2086L3.83598 34.2944C2.06073 32.4521 1.05583 29.9958 1 27.4725L1.01118 27.4502ZM8.88264 13.0583C8.88264 12.7792 8.8938 12.5001 8.94963 12.2098C9.36274 9.8316 11.6516 8.22382 14.0297 8.6481C16.4079 9.0612 18.0045 11.3501 17.5914 13.7282C17.3904 14.8782 16.754 15.8831 15.7938 16.553C14.8336 17.2229 13.6724 17.4797 12.5224 17.2787C10.4234 16.9103 8.92724 15.1015 8.89375 13.0472L8.88264 13.0583ZM15.7491 12.9132C15.7268 11.752 14.8894 10.7248 13.7059 10.5238C12.3549 10.2894 11.071 11.1937 10.8254 12.5447C10.5909 13.9069 11.4953 15.1685 12.8462 15.4142C13.4938 15.5258 14.1525 15.3807 14.6996 15.0011C15.2355 14.6214 15.604 14.052 15.7157 13.4044C15.7492 13.237 15.7603 13.0806 15.7491 12.9243V12.9132Z" fill="#62308B" stroke="#62308B" stroke-width="0.61" stroke-miterlimit="10"/>
<path d="M68.8942 83.577C69.3297 83.5323 69.4525 82.9629 69.0728 82.7396C67.4986 81.8464 66.6724 79.3119 68.4699 78.0168C71.9758 75.4934 73.2709 83.845 81.7899 85.0731C84.4919 85.4639 86.8477 85.0508 88.4443 84.593C88.9021 84.459 88.8574 83.8003 88.3997 83.7221C85.653 83.2755 81.254 81.1988 80.6064 72.5682C79.6462 59.8958 77.2792 54.2127 70.569 50.3942C65.567 47.5471 58.7786 48.0607 52.515 54.6258C46.8877 60.521 44.2975 69.6318 52.4815 78.0391C58.8679 84.6153 65.9242 83.8784 68.9053 83.5658L68.8942 83.577Z" fill="#F2789D"/>
<path d="M45.7605 66.8741C45.66 61.7939 48.1052 57.1158 51.4436 53.6211C57.5621 47.2123 64.9868 45.5264 71.2951 49.1215C78.3403 53.1298 81.0646 59.025 82.0807 72.4678C82.6277 79.7809 85.9549 81.8465 88.6457 82.2819C89.5389 82.4271 90.1976 83.1528 90.2535 84.0572C90.3204 84.9392 89.7399 85.7654 88.869 86.0222C87.2054 86.5023 84.5928 86.9713 81.5894 86.5358C76.5762 85.8101 73.7515 82.8179 71.8869 80.8305C69.9442 78.7761 69.799 78.8877 69.3412 79.2115C69.0509 79.4237 68.9393 79.7028 68.9393 80.0377C68.9728 80.5737 69.3412 81.1877 69.8101 81.4557C70.5359 81.8688 70.9155 82.695 70.7369 83.5101C70.5694 84.3363 69.8883 84.9504 69.0509 85.0285C66.1145 85.3412 58.3101 86.1562 51.41 79.0664C47.4576 75.0023 45.8387 70.8042 45.7605 66.8629V66.8741ZM84.4253 83.7557C81.9801 82.1591 79.6132 78.9882 79.1442 72.6911C78.2064 60.2643 75.951 55.1619 69.8437 51.6895C64.7859 48.8089 58.7009 50.2939 53.5761 55.6643C51.1532 58.1988 43.9964 67.2313 53.5314 77.0343C58.232 81.8688 63.3232 82.4159 66.6169 82.2931C66.2485 81.6567 66.0252 80.9421 65.9917 80.2164C65.9247 78.8542 66.5165 77.6261 67.6106 76.8333C70.3126 74.8906 72.367 77.0678 74.0194 78.8207C75.7947 80.7076 78.0054 83.0523 82.0025 83.6329C82.851 83.7557 83.6661 83.7892 84.4141 83.7669L84.4253 83.7557Z" fill="#62308B"/>
<path d="M71.7081 72.4231C72.0654 72.8027 70.3236 69.3415 67.9343 68.3032C66.2372 67.5551 64.808 67.6444 63.4571 66.5167C63.044 66.1706 61.291 64.2726 63.1779 62.3187C64.06 61.4031 66.0474 60.9119 68.0794 62.9551C68.3809 63.2565 68.8945 63.0221 68.8387 62.5978C68.4925 59.9517 66.7285 57.2497 63.9707 56.0327C61.5367 54.9497 58.7231 55.6196 56.5236 57.7298C54.8711 59.3153 52.8391 63.7813 56.9255 67.4881C61.5367 71.6527 67.6886 68.2697 71.6969 72.4343L71.7081 72.4231Z" fill="#F9C131"/>
<path d="M53.0736 62.6761V62.6315C53.0401 59.9853 54.3688 57.7635 55.5188 56.6581C58.1649 54.1237 61.6373 53.3644 64.5848 54.6707C67.6329 56.0217 69.8771 59.0475 70.3237 62.397C70.4466 63.3907 69.8101 64.3174 68.7718 64.5295C68.1465 64.6524 67.499 64.4291 67.0524 63.9825C66.4048 63.3349 65.746 62.9999 65.1431 62.9999C64.6183 62.9999 64.3281 63.2679 64.2499 63.346C63.7921 63.8261 63.8033 64.1499 63.8033 64.2616C63.8256 64.7417 64.2611 65.2553 64.4062 65.3893C64.998 65.8805 65.6232 66.048 66.4829 66.2713C67.0858 66.4388 67.8004 66.5616 68.5262 66.9412C71.6524 68.5937 72.7243 70.2684 73.0704 71.3291C73.4165 72.3898 72.847 73.5175 71.7752 73.6514C71.4961 73.6849 71.2058 73.6514 70.9266 73.551L70.0334 72.9034C68.4145 71.2174 66.8849 71.6082 64.4174 71.4184C61.7043 71.2174 58.6227 70.983 55.9431 68.5713C54.1008 66.9077 53.1071 64.8645 53.0624 62.6761H53.0736ZM66.5387 60.2645C65.813 59.0028 64.7077 57.9533 63.3902 57.3727C61.5256 56.5465 59.3484 57.0824 57.562 58.7907C56.8028 59.5164 55.9989 61.0125 56.0212 62.5868V62.6091C56.0547 63.9825 56.6912 65.2553 57.9305 66.3718C59.6052 67.8791 61.5703 68.214 63.6805 68.3927C63.2897 68.2029 62.9101 67.9572 62.5193 67.6334C62.363 67.4995 60.9562 66.2825 60.8557 64.4067C60.8222 63.6475 61.0008 62.4417 62.1285 61.2805C62.8766 60.4989 63.9708 60.0523 65.1096 60.0412C65.5116 60.0412 65.9916 60.0858 66.5276 60.2533L66.5387 60.2645Z" fill="#62308B"/>
<g opacity="0.5">
<path d="M42.835 36.7393C44.8082 36.7393 46.4078 35.1397 46.4078 33.1665C46.4078 31.1932 44.8082 29.5936 42.835 29.5936C40.8618 29.5936 39.2621 31.1932 39.2621 33.1665C39.2621 35.1397 40.8618 36.7393 42.835 36.7393Z" fill="#62308B"/>
<path d="M21.6213 34.6519C23.5945 34.6519 25.1941 33.0523 25.1941 31.0791C25.1941 29.1059 23.5945 27.5062 21.6213 27.5062C19.648 27.5062 18.0484 29.1059 18.0484 31.0791C18.0484 33.0523 19.648 34.6519 21.6213 34.6519Z" fill="#62308B"/>
<path d="M34.0441 19.6232L32.2843 19.5005C31.7307 19.4618 31.2506 19.8794 31.212 20.433L29.5603 44.1125C29.5217 44.6661 29.9392 45.1462 30.4928 45.1848L32.2526 45.3076C32.8062 45.3462 33.2863 44.9287 33.3249 44.3751L34.9766 20.6956C35.0152 20.1419 34.5978 19.6618 34.0441 19.6232Z" fill="#62308B"/>
</g>
<path d="M37.9906 33.2676C37.9683 31.9725 38.4595 30.6661 39.4532 29.6948C40.3799 28.7904 41.6081 28.3103 42.9033 28.3215C44.1984 28.3326 45.4042 28.8574 46.3086 29.7841C47.213 30.7108 47.7155 31.9725 47.682 33.223C47.6596 34.5181 47.146 35.724 46.2193 36.6283C45.2926 37.5327 44.0645 38.0128 42.7693 38.0016C41.4741 37.9793 40.2683 37.4657 39.364 36.539C38.4707 35.6235 38.0241 34.44 37.9906 33.2565V33.2676ZM45.1363 33.1225C45.1251 32.5419 44.8906 31.9836 44.4887 31.5705C44.0644 31.1239 43.4838 30.8783 42.8697 30.8671C42.2557 30.856 41.6751 31.0904 41.2285 31.5147C40.313 32.3967 40.3018 33.8594 41.1839 34.7749C41.6081 35.2104 42.1887 35.4671 42.8028 35.4671C43.4168 35.4671 43.9975 35.2438 44.4441 34.8196C44.8907 34.3953 45.1363 33.8147 45.1475 33.2006C45.1475 33.1783 45.1475 33.1448 45.1475 33.1225H45.1363Z" fill="#62308B"/>
<path d="M16.7878 31.1681C16.7655 29.873 17.2456 28.5667 18.2504 27.5953C19.1771 26.6909 20.4053 26.2108 21.7005 26.222C22.9956 26.2332 24.2014 26.7579 25.1058 27.6846C26.0102 28.6113 26.4791 29.8395 26.4791 31.1346C26.4568 32.4298 25.9432 33.6356 25.0165 34.54C24.0898 35.4444 22.8616 35.9245 21.5665 35.9133C20.2713 35.891 19.0655 35.3774 18.1611 34.4507C17.2679 33.5351 16.8213 32.3628 16.799 31.1681H16.7878ZM23.9335 31.023C23.9223 30.4424 23.6878 29.8953 23.2859 29.471C22.8616 29.0244 22.281 28.7788 21.6669 28.7676C21.0529 28.7676 20.4723 28.9909 20.0257 29.4152C19.1102 30.2973 19.099 31.7599 19.981 32.6754C20.4053 33.1109 20.9859 33.3677 21.6 33.3677C22.214 33.3677 22.7947 33.1444 23.2413 32.7201C23.6879 32.2958 23.9335 31.7152 23.9447 31.1011C23.9447 31.0788 23.9447 31.0453 23.9447 31.023H23.9335Z" fill="#62308B"/>
<path d="M28.3436 43.4499C28.3436 43.3494 28.3436 43.2601 28.3436 43.1596L29.8732 21.2425C29.9291 20.4051 30.3198 19.6347 30.9562 19.0765C31.5926 18.5182 32.4077 18.2502 33.2451 18.3061C34.0824 18.3619 34.8528 18.7527 35.4111 19.3891C35.9694 20.0255 36.2373 20.8406 36.1815 21.6779L34.6519 43.5951C34.5291 45.3368 33.0218 46.6431 31.2801 46.5203C30.4427 46.4645 29.6723 46.0737 29.114 45.4373C28.6228 44.8791 28.3548 44.1756 28.3436 43.4276V43.4499ZM33.6471 21.4435C33.6471 21.2537 33.5577 21.1197 33.5019 21.0527C33.4349 20.9857 33.3009 20.8629 33.0776 20.8406C32.7315 20.8182 32.4412 21.075 32.4189 21.41L30.8892 43.3271C30.8892 43.6509 31.1237 43.9635 31.4587 43.9858C31.7936 44.0082 32.0951 43.7514 32.1174 43.4164L33.6471 21.4993C33.6471 21.4993 33.6471 21.4546 33.6471 21.4435Z" fill="#62308B"/>
</svg>
