<svg width="83" height="95" viewBox="0 0 83 95" fill="none" xmlns="http://www.w3.org/2000/svg">
<path d="M25.0871 26.0518C25.0871 26.0518 24.5177 7.16038 35.6605 2.11375C43.7775 -1.57074 50.3762 5.34046 50.6776 11.7046C51.0572 19.4532 41.2877 24.31 34.2425 25.4042" fill="#F2789D"/>
<path d="M25.0873 27.1349C24.5067 27.1349 24.0266 26.6659 24.0043 26.0853C23.982 25.2815 23.5465 6.41238 35.214 1.12012C38.8315 -0.521154 42.5718 -0.353662 45.7539 1.58907C49.2151 3.69928 51.571 7.6517 51.7719 11.6488C52.1962 20.4246 41.3549 25.3931 34.4102 26.4761C33.8184 26.5654 33.2602 26.1635 33.1709 25.5717C33.0815 24.98 33.4835 24.4217 34.0752 24.3324C40.7297 23.3052 49.9408 18.7163 49.5947 11.7605C49.4384 8.51142 47.4399 5.17308 44.6151 3.44248C42.8064 2.33714 39.8699 1.38807 36.0961 3.09633C25.7461 7.78568 26.1591 25.8397 26.1591 26.0184C26.1815 26.6213 25.7014 27.1125 25.1096 27.1349C25.1096 27.1349 25.0873 27.1349 25.0762 27.1349H25.0873Z" fill="#62308B"/>
<path d="M31.586 24.9691L29.5987 24.1094C29.822 23.5846 35.2817 11.1913 43.2313 8.82433C45.9555 8.00928 48.6464 8.44473 51.2255 10.1307L50.042 11.9506C47.9988 10.6108 45.9779 10.2646 43.8677 10.9011C36.8783 12.9889 31.6531 24.8574 31.6084 24.9803L31.586 24.9691Z" fill="#62308B"/>
<path d="M31.7649 30.753C31.7649 30.753 22.2968 14.3961 10.1604 15.9704C1.31759 17.1204 -0.64744 26.4656 2.4453 32.037C6.20794 38.8142 17.0604 37.8094 23.6367 35.0181" fill="#F2789D"/>
<path d="M13.2309 38.2338C8.46338 38.2338 3.84106 36.7823 1.50755 32.5619C-0.435184 29.0561 -0.50219 24.456 1.31772 20.8497C2.99249 17.5225 6.09638 15.4123 10.0265 14.8987C22.7212 13.2462 32.3009 29.5138 32.7029 30.2061C33.0043 30.7197 32.8257 31.3896 32.3121 31.691C31.7985 31.9925 31.1286 31.8138 30.8271 31.3002C30.7378 31.1439 21.5601 15.5797 10.3056 17.0535C6.19687 17.5895 4.19834 19.9453 3.2493 21.8322C1.76434 24.7798 1.82017 28.6765 3.39445 31.5236C6.76632 37.6197 17.0159 36.6595 23.2125 34.0357C23.7596 33.8012 24.396 34.058 24.6305 34.6163C24.865 35.1634 24.6081 35.7998 24.0499 36.0342C21.1358 37.2736 17.1276 38.2561 13.2086 38.2561L13.2309 38.2338Z" fill="#62308B"/>
<path d="M25.6684 33.2651C25.5567 33.1869 14.8494 25.8626 7.82653 27.7607C5.69399 28.3412 4.16434 29.6922 3.12599 31.9029L1.16095 30.9874C2.4561 28.1961 4.51048 26.4097 7.25709 25.6616C15.2625 23.4956 26.4276 31.1437 26.8966 31.4675L25.6572 33.2539L25.6684 33.2651Z" fill="#62308B"/>
<path d="M16.893 25.561L20.2425 33.332L26.908 48.8068L30.3023 56.6894L32.9596 62.8525C33.5848 62.4394 34.2994 62.1603 35.0809 62.0375L47.4853 60.0054L52.733 59.1457L63.6637 57.3593C64.9923 57.1471 66.12 57.9399 66.4326 58.9559L61.3413 33.1868L60.1466 27.1242L59.0413 21.5192L58.9631 21.1396C58.6617 20.1236 57.5228 19.3532 56.2388 19.543L48.9033 20.6149L42.8295 21.4969L41.579 21.6756L35.36 22.5799L26.0372 23.9309L24.9765 24.0872L19.4609 24.8911L17.9983 25.1033C17.775 25.1368 17.574 25.1926 17.373 25.2819C17.1832 25.3601 17.0269 25.4605 16.8706 25.5722L16.893 25.561Z" fill="#F9C131"/>
<path d="M32.4798 64.4601L15.5535 25.2147L16.2233 24.7011C16.4466 24.5336 16.6923 24.3885 16.9603 24.2768C17.2171 24.1652 17.5185 24.0759 17.8423 24.0201L56.0828 18.471C57.8246 18.2142 59.5105 19.2302 60.0018 20.8268L60.1023 21.3181L67.4936 58.7547L65.3946 59.2907C65.2383 58.7771 64.613 58.3193 63.8314 58.4533L35.2487 63.1315C34.6347 63.232 34.0429 63.4552 33.5516 63.779L32.4686 64.4936L32.4798 64.4601ZM18.3224 26.1414L33.4958 61.345C33.9424 61.1664 34.4225 61.0324 34.9026 60.9543L63.4853 56.2761C63.9319 56.1979 64.3785 56.2091 64.8028 56.2984L57.9139 21.4186C57.7241 20.9161 57.1324 20.503 56.3955 20.6147L18.3113 26.1414H18.3224Z" fill="#62308B"/>
<path d="M59.0519 21.5077C59.0519 21.3737 59.0184 21.2509 58.9738 21.1281L59.0519 21.5077Z" fill="white"/>
<path d="M57.9912 21.72L57.913 21.3404L60.0121 20.8157C60.0791 21.0166 60.1125 21.2176 60.1349 21.4186L57.9912 21.72Z" fill="#62308B"/>
<path d="M5.95117 50.1354L6.24148 50.6044L9.57987 55.8631L11.8017 59.3578L23.6479 78.0259C23.2683 77.4118 23.2236 76.6303 23.6925 75.9492L26.7629 71.3715L28.6387 68.5802L31.5751 64.2035C31.9324 63.6676 32.4125 63.2098 32.9707 62.8525L30.3135 56.6894L26.9193 48.8068L20.2537 33.3319L16.9042 25.561C16.6474 25.762 16.4352 26.0188 16.3012 26.3091L11.0871 37.4965L9.40119 41.114L5.95117 48.5165C5.69437 49.0748 5.72788 49.6442 5.96235 50.1466L5.95117 50.1354Z" fill="#F9C131"/>
<path d="M22.7432 78.5956L4.97946 50.6047C4.57752 49.7784 4.56636 48.8741 4.95714 48.0478L15.3072 25.8404C15.5082 25.405 15.8208 25.003 16.2227 24.6904L17.3281 23.8307L34.3214 63.2436L33.5398 63.746C33.1044 64.0251 32.736 64.3824 32.468 64.7843L24.5854 76.5412C24.3398 76.9097 24.4403 77.2335 24.5743 77.4456L22.732 78.5844L22.7432 78.5956ZM7.10083 49.9236L7.16781 50.0241L23.0223 75.0004L30.6704 63.5897C30.9383 63.1877 31.2622 62.8193 31.6306 62.4843L16.7252 27.9171L6.91104 48.9634C6.81055 49.1755 6.81054 49.3988 6.89986 49.6109L7.08968 49.9124L7.10083 49.9236Z" fill="#62308B"/>
<path d="M23.658 78.0148L23.725 78.1153C24.2162 78.8411 25.1541 79.3212 26.226 79.1425L56.115 74.2522C56.7626 74.1406 57.3097 73.8056 57.6446 73.3032L66.2082 60.5414C66.4762 60.1395 66.5767 59.7152 66.5321 59.3021C66.5321 59.1681 66.4985 59.0453 66.465 58.9337C66.1524 57.9176 65.0136 57.1249 63.6961 57.3371L52.7655 59.1235L47.5178 59.9832L35.1134 62.0152C34.3319 62.1381 33.6173 62.4172 32.992 62.8303C32.4338 63.1876 31.9537 63.6454 31.5964 64.1813L28.6599 68.558L26.7842 71.3493L23.7138 75.927C23.256 76.608 23.3007 77.3785 23.6692 78.0037L23.658 78.0148Z" fill="white"/>
<path d="M25.7796 80.2701C24.5961 80.2701 23.4684 79.7007 22.8096 78.7293L22.7203 78.5842C22.095 77.5458 22.1174 76.3288 22.7873 75.3463L30.6587 63.6006C31.0942 62.9419 31.6747 62.3836 32.367 61.937C33.1039 61.4569 33.9859 61.1108 34.9015 60.9656L63.4841 56.2875C65.2482 55.9972 66.9677 57.002 67.4701 58.6321C67.5259 58.8108 67.5594 58.9783 67.5817 59.1569V59.2239C67.6599 59.905 67.4925 60.586 67.0905 61.1778L58.5268 73.9395C58.0244 74.6764 57.2094 75.19 56.2715 75.3463L26.3825 80.2366C26.1815 80.2701 25.9806 80.2813 25.7796 80.2813V80.2701ZM24.5737 77.4454L24.6295 77.5347C24.8305 77.8361 25.333 78.1934 26.0364 78.0706L55.9254 73.1803C56.2715 73.1245 56.5618 72.9458 56.7293 72.7002L65.2929 59.9384C65.3934 59.7933 65.438 59.637 65.438 59.4807V59.3579C65.438 59.3579 65.4269 59.302 65.4046 59.2462C65.2483 58.7326 64.623 58.2749 63.8414 58.3977L35.2588 63.0758C34.6447 63.1763 34.0529 63.3996 33.5616 63.7234C33.115 64.0137 32.7466 64.3598 32.4787 64.773L24.596 76.5298C24.3504 76.8871 24.4509 77.2109 24.5737 77.4342V77.4454Z" fill="#62308B"/>
<path d="M17.7468 24.888L15.7527 25.7336L15.8747 26.0215L17.8689 25.1758L17.7468 24.888Z" fill="#62308B"/>
<path d="M16.8935 25.7397L20.3212 33.399C20.6785 33.0529 21.1586 32.8184 21.7057 32.7403L39.0786 30.2169L46.5369 29.1339L58.8408 27.3475L61.1743 27.0126C62.0229 26.8897 62.6035 26.0859 62.436 25.2373C62.0899 23.4732 61.5763 20.8271 61.5763 20.8271L61.4981 20.4251C61.1744 19.3533 59.9685 18.527 58.6064 18.728L50.8019 19.8669L44.3485 20.8047L43.0198 20.9946L36.4101 21.9548L26.5066 23.3839L25.379 23.5514L19.5173 24.3999L17.9654 24.6232C17.7309 24.6567 17.5076 24.7237 17.3066 24.813C17.1056 24.8912 17.061 25.6058 16.9047 25.7286L16.8935 25.7397Z" fill="#F6E9B4"/>
<path d="M19.9637 35.2414L15.5535 25.3937L16.0224 25.0365C16.0224 25.0365 16.0224 25.0364 16.0224 25.0253C16.1229 24.6457 16.2792 24.0762 16.8709 23.8306C17.1389 23.7078 17.4515 23.6185 17.7865 23.5627L58.4498 17.6563C60.2697 17.3883 62.0339 18.449 62.5363 20.1126L62.6367 20.6262L63.4965 25.0365C63.6305 25.7399 63.4741 26.4433 63.061 27.0238C62.6479 27.5933 62.0227 27.984 61.3193 28.0845L21.8506 33.8122C21.538 33.8569 21.27 33.9797 21.069 34.1807L19.9525 35.2414H19.9637ZM18.0768 25.7287L20.8234 31.8472C21.0579 31.769 21.3035 31.702 21.5491 31.6685L61.0179 25.9408C61.1742 25.9185 61.2634 25.818 61.3081 25.7734C61.3416 25.7175 61.4086 25.6059 61.3751 25.4496L60.4373 20.6374C60.2921 20.1796 59.5999 19.6884 58.7625 19.8L18.1103 25.7063H18.088C18.088 25.7063 18.088 25.7175 18.088 25.7287H18.0768Z" fill="#62308B"/>
<path d="M4.80028 51.3857L5.1129 51.877L7.51343 55.5838C8.01586 56.3542 9.15469 56.2872 9.55663 55.461L11.1309 52.2231L12.4707 49.4765L15.061 44.1507L19.8508 34.3254C19.9737 34.0798 20.1412 33.8676 20.331 33.6778L16.8028 25.5831C16.5237 25.7953 16.2892 26.0632 16.1441 26.3758L10.4164 38.1216L8.56292 41.9177L4.77796 49.6998C4.49884 50.2804 4.52117 50.8833 4.77796 51.3969L4.80028 51.3857Z" fill="#F6E9B4"/>
<path d="M8.49614 57.203C7.72574 57.203 7.02236 56.8234 6.59809 56.1647L3.81795 51.8661C3.40484 51.0287 3.40484 50.0573 3.81795 49.2088L15.184 25.8848C15.3962 25.4382 15.7423 25.0251 16.1666 24.7013L17.2608 23.8751L21.6375 33.9349L21.0792 34.4597C20.9676 34.5602 20.8782 34.6718 20.8336 34.7834L10.5282 55.919C10.1597 56.6671 9.45637 57.136 8.63015 57.1918C8.58549 57.1918 8.52966 57.1918 8.485 57.1918L8.49614 57.203ZM5.74953 50.8612L8.41801 54.9923L9.55684 55.4612L8.58548 54.9811L18.8909 33.8456C18.9467 33.7227 19.0137 33.6111 19.0918 33.4994L16.6467 27.8834L5.78302 50.169C5.67137 50.4034 5.66022 50.6379 5.7607 50.8724L5.74953 50.8612Z" fill="#62308B"/>
<path d="M9.02106 41.8956L14.2798 50.6379L26.7624 71.3603L28.6382 68.5691L18.9245 49.9568V49.968L11.7118 36.1344L11.0754 37.4965L9.38946 41.1029L9.02106 41.8956Z" fill="#F2789D"/>
<path d="M26.7181 73.381L7.79321 41.9624L11.6452 33.6779L29.889 68.6358L26.7069 73.381H26.7181ZM10.2495 41.8284L26.8186 69.3392L27.3879 68.5019L11.768 38.5905L10.2495 41.8396V41.8284Z" fill="#62308B"/>
<path d="M35.3716 22.5687L43.109 46.4509L47.4969 59.9942L52.7445 59.1345L48.8033 44.1286L42.841 21.4857L41.5906 21.6644L35.3716 22.5687Z" fill="#F2789D"/>
<path d="M46.7485 61.2114L33.9421 21.6757L43.6446 20.2689L54.0952 60.0056L46.7485 61.2114ZM36.8004 23.451L48.2335 58.7663L51.382 58.2527L42.0257 22.6918L36.7892 23.451H36.8004Z" fill="#62308B"/>
<path d="M5.68205 80.3823C10.4831 90.0067 30.2006 87.6397 51.0459 77.178C71.9023 66.7162 85.602 52.3021 80.801 42.6778C76 33.0534 55.0766 32.6515 33.6619 42.3428C12.4035 51.956 0.881041 70.758 5.67088 80.3823H5.68205Z" fill="white"/>
<path d="M19.1806 87.5502C16.3223 87.5502 13.7767 87.1929 11.5995 86.4672C8.33925 85.3842 6.01688 83.4973 4.6994 80.8623C3.08045 77.6244 3.10278 73.4375 4.76638 68.7705C8.5067 58.2306 19.6718 47.4786 33.2151 41.3489C54.8754 31.5571 76.6586 31.9368 81.7722 42.1975C86.6625 51.9893 74.2246 66.7719 51.5259 78.1492C39.3225 84.2676 27.8447 87.5502 19.1694 87.5502H19.1806ZM63.0372 36.414C54.6745 36.414 44.3132 38.7251 34.1195 43.3363C21.101 49.2315 10.3824 59.5034 6.82076 69.5074C5.35813 73.605 5.30231 77.2001 6.65329 79.9021C7.70281 82.0011 9.6009 83.5196 12.2917 84.4128C20.4087 87.1148 35.0797 83.9774 50.5657 76.2176C71.7794 65.5773 84.0834 51.6879 79.8407 43.18C77.5965 38.6693 71.2882 36.4251 63.0372 36.4251V36.414Z" fill="#62308B"/>
<path d="M54.0781 82.4565C67.4747 75.7304 75.7689 65.1672 72.6037 58.8629C69.4385 52.5586 56.0125 52.9005 42.6158 59.6266C29.2192 66.3527 20.925 76.9159 24.0902 83.2202C27.2554 89.5245 40.6815 89.1826 54.0781 82.4565Z" fill="white"/>
<path d="M34.6109 88.8229C32.3333 88.8229 30.2565 88.5326 28.4701 87.9408C25.9356 87.0923 24.0823 85.6296 23.1221 83.6869C19.6497 76.731 28.0124 65.7334 42.1586 58.6435C44.5367 57.4489 46.9707 56.4329 49.3824 55.6066C49.9518 55.4168 50.5659 55.7183 50.7557 56.2877C50.9455 56.8571 50.644 57.4712 50.0746 57.661C47.7523 58.4537 45.4188 59.4363 43.1299 60.5751C30.5022 66.9057 22.2288 77.0437 25.0536 82.7155C25.7682 84.1447 27.1415 85.2165 29.1512 85.8753C34.8677 87.7845 44.4474 86.0539 53.5581 81.4874C66.1859 75.1568 74.4592 65.0188 71.6344 59.3469C70.2835 56.645 66.4427 55.227 61.0499 55.4503C60.4582 55.4615 59.9446 55.0037 59.9222 54.412C59.8999 53.809 60.3577 53.3066 60.9606 53.2843C67.3247 53.0275 71.802 54.8362 73.5661 58.3867C77.0384 65.3426 68.6757 76.3402 54.5295 83.4301C47.529 86.9359 40.4056 88.8229 34.5998 88.8229H34.6109Z" fill="#62308B"/>
<path d="M38.7498 52.2946C39.993 51.665 40.6056 50.3741 40.1181 49.4114C39.6305 48.4488 38.2274 48.1788 36.9842 48.8084C35.7409 49.4381 35.1283 50.7289 35.6159 51.6916C36.1034 52.6543 37.5065 52.9242 38.7498 52.2946Z" fill="#FFE240"/>
<path d="M37.3798 53.653C37.0002 53.653 36.6206 53.5972 36.2745 53.4744C35.5488 53.2287 34.9682 52.7486 34.6444 52.1011C33.8963 50.6049 34.7449 48.6622 36.5202 47.769C37.4804 47.2889 38.5633 47.1884 39.4789 47.4899C40.2046 47.7355 40.7852 48.2156 41.109 48.8632C41.8571 50.3593 41.0085 52.302 39.2333 53.1953C38.6415 53.4967 37.9939 53.6418 37.3798 53.6418V53.653ZM36.5872 51.1409C36.6653 51.2972 36.8327 51.3865 36.9556 51.42C37.324 51.5428 37.8153 51.487 38.2619 51.2637C38.9988 50.8952 39.3561 50.203 39.1663 49.8345C39.0881 49.6782 38.9206 49.5889 38.7978 49.5554C38.4294 49.4326 37.9381 49.4884 37.4915 49.7117C36.7546 50.0802 36.3974 50.7724 36.5872 51.1409Z" fill="#62308B"/>
<path d="M58.3811 45.9629C59.6244 45.3333 60.237 44.0425 59.7494 43.0798C59.2619 42.1171 57.8588 41.8471 56.6155 42.4768C55.3723 43.1064 54.7597 44.3972 55.2472 45.3599C55.7348 46.3226 57.1379 46.5926 58.3811 45.9629Z" fill="#FFE240"/>
<path d="M57.0199 47.3223C56.6402 47.3223 56.2606 47.2665 55.9145 47.1437C55.1888 46.898 54.6082 46.4179 54.2844 45.7703C53.5363 44.2742 54.3849 42.3315 56.1601 41.4383C57.1203 40.9582 58.2034 40.8577 59.1189 41.1592C59.8446 41.4048 60.4252 41.8849 60.749 42.5325C61.497 44.0286 60.6485 45.9713 58.8732 46.8645C58.2815 47.166 57.6339 47.3111 57.0199 47.3111V47.3223ZM58.0247 43.1577C57.7456 43.1577 57.433 43.2359 57.1427 43.381C56.4058 43.7495 56.0485 44.4417 56.2383 44.8102C56.3164 44.9665 56.4839 45.0558 56.6068 45.0893C56.9752 45.2121 57.4665 45.1563 57.9131 44.933C58.65 44.5645 59.0072 43.8723 58.8174 43.5038C58.7393 43.3475 58.5718 43.2582 58.449 43.2247C58.3261 43.18 58.181 43.1577 58.0359 43.1577H58.0247Z" fill="#62308B"/>
<path d="M75.7471 50.6631C76.9903 50.0335 77.6029 48.7427 77.1154 47.78C76.6278 46.8173 75.2247 46.5473 73.9815 47.1769C72.7383 47.8066 72.1256 49.0974 72.6132 50.0601C73.1008 51.0228 74.5038 51.2928 75.7471 50.6631Z" fill="#FFE240"/>
<path d="M74.3705 52.0227C73.9909 52.0227 73.6224 51.9669 73.2652 51.8441C72.5394 51.5985 71.9588 51.1072 71.635 50.4708C70.887 48.9747 71.7356 47.0319 73.5108 46.1387C74.471 45.6586 75.554 45.5582 76.4695 45.8596C77.1953 46.1052 77.7759 46.5854 78.0997 47.2329C78.8477 48.7291 77.9992 50.6718 76.2239 51.565C75.6322 51.8664 74.9846 52.0116 74.3705 52.0116V52.0227ZM75.3754 47.8582C75.0963 47.8582 74.7836 47.9363 74.4933 48.0815C73.7564 48.4499 73.3991 49.1421 73.5889 49.5106C73.6671 49.6669 73.8346 49.7562 73.9574 49.7897C74.3258 49.9125 74.8171 49.8567 75.2526 49.6334C75.9895 49.265 76.3468 48.5727 76.157 48.2043C76.0788 48.048 75.9113 47.9587 75.7885 47.9252C75.6657 47.8805 75.5205 47.8582 75.3754 47.8582Z" fill="#62308B"/>
<path d="M21.8226 64.2662C23.0659 63.6365 23.6784 62.3457 23.1909 61.383C22.7033 60.4203 21.3003 60.1503 20.0571 60.78C18.8138 61.4096 18.2012 62.7005 18.6888 63.6631C19.1763 64.6258 20.5794 64.8958 21.8226 64.2662Z" fill="#FFE240"/>
<path d="M20.4538 65.6327C20.0742 65.6327 19.7058 65.5769 19.3485 65.4541C18.6228 65.2084 18.0421 64.7284 17.7184 64.0808C16.9703 62.5847 17.8188 60.6419 19.5941 59.7487C20.5543 59.2686 21.6373 59.1681 22.5529 59.4696C23.2786 59.7152 23.8591 60.1953 24.1829 60.8429C24.931 62.339 24.0825 64.2817 22.3072 65.175C21.7155 65.4764 21.0679 65.6216 20.4538 65.6216V65.6327ZM21.4586 61.4682C21.1795 61.4682 20.8669 61.5463 20.5766 61.6914C19.8397 62.0599 19.4824 62.7521 19.6723 63.1206C19.7504 63.2769 19.9179 63.3662 20.0407 63.3997C20.4092 63.5225 20.9004 63.4667 21.347 63.2434C22.0839 62.875 22.4412 62.1827 22.2514 61.8143C22.1732 61.658 22.0057 61.5686 21.8829 61.5351C21.7601 61.4905 21.615 61.4682 21.4698 61.4682H21.4586Z" fill="#62308B"/>
<path d="M16.0105 80.7977C17.2537 80.168 17.8663 78.8772 17.3788 77.9145C16.8912 76.9518 15.4881 76.6818 14.2449 77.3115C13.0016 77.9411 12.389 79.2319 12.8766 80.1946C13.3641 81.1573 14.7672 81.4273 16.0105 80.7977Z" fill="#FFE240"/>
<path d="M14.6371 82.1572C14.2575 82.1572 13.889 82.1013 13.5318 81.9785C12.806 81.7329 12.2254 81.2528 11.9016 80.6052C11.1536 79.1091 12.0022 77.1663 13.7774 76.2731C14.7376 75.793 15.8206 75.6926 16.7361 75.994C17.4619 76.2396 18.0425 76.7198 18.3663 77.3673C19.1143 78.8635 18.2658 80.8062 16.4905 81.6994C15.8988 82.0009 15.2512 82.146 14.6371 82.146V82.1572ZM15.642 77.9926C15.3629 77.9926 15.0502 78.0707 14.7599 78.2159C14.023 78.5843 13.6657 79.2766 13.8555 79.645C13.9337 79.8013 14.1012 79.8907 14.224 79.9242C14.5924 80.047 15.0837 79.9911 15.5192 79.7678C16.2561 79.3994 16.6134 78.7071 16.4236 78.3387C16.3454 78.1824 16.1779 78.0931 16.0551 78.0596C15.9323 78.0149 15.7871 77.9926 15.642 77.9926Z" fill="#62308B"/>
<g opacity="0.5">
<path d="M54.0783 82.4564C67.475 75.7303 75.7692 65.1671 72.604 58.8628C69.4387 52.5585 56.0127 52.9004 42.6161 59.6265C29.2194 66.3526 20.9252 76.9158 24.0905 83.2201C27.2557 89.5244 40.6817 89.1825 54.0783 82.4564Z" fill="#62308B"/>
</g>
</svg>
