<svg width="84" height="111" viewBox="0 0 84 111" fill="none" xmlns="http://www.w3.org/2000/svg">
<path d="M21.4193 28.4213L24.1402 27.1236L29.4809 24.5806L30.4108 24.1399L43.0004 18.1523C43.5988 17.8693 43.6554 17.0162 43.0934 16.6402C42.6042 16.3168 42.0948 16.1389 41.6824 15.2737C40.9992 13.8425 41.9412 13.3938 41.262 11.9666C40.5828 10.5395 39.6408 10.9842 38.9575 9.55703C38.2743 8.12583 39.2163 7.67707 38.5371 6.24992C37.8538 4.81872 36.9158 5.26748 36.2326 3.84033C35.8162 2.9711 36.0021 2.46573 36.0587 1.88355C36.1234 1.21242 35.424 0.71514 34.8257 1.00219L24.686 5.82541L23.7642 6.26204L21.961 7.11914L21.2616 7.45471L15.8117 10.0462L13.3092 11.2348L12.3227 11.7038C11.7243 11.9868 11.6718 12.8439 12.2297 13.2159C12.7189 13.5393 13.2324 13.7172 13.6447 14.5864C14.3239 16.0136 13.3819 16.4624 14.0652 17.8935C14.7484 19.3247 15.6864 18.876 16.3697 20.3031C17.0529 21.7343 16.1109 22.1831 16.7901 23.6103C17.4693 25.0374 18.4154 24.5927 19.0946 26.0198C19.507 26.885 19.325 27.3944 19.2684 27.9766C19.2038 28.6477 19.9032 29.145 20.5015 28.858L21.4193 28.4213Z" fill="white"/>
<path d="M20.6107 29.7837C20.1054 29.9211 19.5555 29.8322 19.1189 29.5209C18.5893 29.1489 18.3022 28.5223 18.3629 27.8835C18.375 27.7703 18.3871 27.6571 18.4033 27.5479C18.4599 27.1315 18.4963 26.8768 18.2739 26.4078C18.0516 25.9429 17.8332 25.8095 17.4734 25.5912C17.0327 25.3243 16.4263 24.9605 15.9695 23.9982C15.5126 23.036 15.6096 22.3366 15.6783 21.8272C15.7349 21.4108 15.7713 21.1601 15.549 20.6911C15.3266 20.2221 15.1083 20.0928 14.7485 19.8745C14.3078 19.6076 13.7014 19.2438 13.2445 18.2815C12.7836 17.3193 12.8847 16.6199 12.9534 16.1064C13.01 15.69 13.0464 15.4394 12.824 14.9744C12.6017 14.5054 12.3834 14.3761 12.0235 14.1537C11.9265 14.0931 11.8295 14.0365 11.7325 13.9718C11.1948 13.616 10.8915 12.9934 10.936 12.3506C10.9805 11.7118 11.3646 11.1498 11.9346 10.8749L34.4416 0.169205C35.0117 -0.101672 35.6909 -0.0450685 36.2165 0.322838C36.7461 0.694788 37.0372 1.32144 36.9725 1.96023C36.9604 2.07343 36.9442 2.19067 36.928 2.30387C36.8714 2.72029 36.835 2.97096 37.0574 3.43589C37.2797 3.90487 37.4981 4.03425 37.8579 4.25257C38.2986 4.5194 38.905 4.88327 39.3618 5.84548C39.8187 6.8077 39.7217 7.50712 39.6529 8.01653C39.5963 8.43296 39.5599 8.68362 39.7823 9.1526C40.0047 9.62158 40.223 9.75095 40.5828 9.96927C41.0235 10.2361 41.6259 10.6 42.0868 11.5622C42.5436 12.5244 42.4466 13.2238 42.3779 13.7332C42.3213 14.1497 42.2849 14.4003 42.5073 14.8693C42.7296 15.3342 42.9479 15.4677 43.3077 15.686C43.4048 15.7466 43.5018 15.8032 43.5988 15.8679C44.1325 16.2237 44.4398 16.8423 44.3953 17.4851C44.3508 18.1239 43.9667 18.6899 43.3967 18.9608L20.8937 29.6664C20.8007 29.7109 20.7078 29.7432 20.6107 29.7715V29.7837ZM12.7836 12.4921C12.8362 12.5163 12.9009 12.5527 12.9656 12.5931C13.4062 12.86 14.0127 13.2279 14.4736 14.1901C14.9304 15.1523 14.8334 15.8477 14.7647 16.3611C14.7081 16.7776 14.6717 17.0282 14.894 17.4972C15.1164 17.9662 15.3347 18.0956 15.6945 18.3139C16.1352 18.5807 16.7416 18.9446 17.1985 19.9068C17.6594 20.869 17.5624 21.5684 17.4896 22.0778C17.433 22.4943 17.3966 22.7449 17.619 23.2139C17.8413 23.6829 18.0596 23.8123 18.4195 24.0306C18.8601 24.2974 19.4666 24.6613 19.9234 25.6235C20.3803 26.5857 20.2833 27.2851 20.2145 27.7986C20.2064 27.8633 20.1943 27.932 20.1903 27.9967L42.5517 17.3597C42.4992 17.3355 42.4345 17.2991 42.3698 17.2587C41.9291 16.9918 41.3267 16.628 40.8658 15.6658C40.4049 14.7035 40.5019 14.0041 40.5747 13.4907C40.6313 13.0742 40.6677 12.8236 40.4453 12.3546C40.223 11.8856 40.0047 11.7562 39.6448 11.5379C39.2042 11.2711 38.5977 10.9072 38.1409 9.94097C37.684 8.97875 37.7811 8.27932 37.8498 7.76992C37.9064 7.35349 37.9428 7.10283 37.7204 6.63385C37.4981 6.16487 37.2797 6.0355 36.9199 5.81718C36.4792 5.55035 35.8728 5.18648 35.4159 4.22426C34.9591 3.26609 35.0561 2.56666 35.1249 2.05321C35.1329 1.98853 35.1451 1.9198 35.1532 1.85107L12.7917 12.488L12.7836 12.4921Z" fill="#62308B"/>
<mask id="mask0_115_1065" style="mask-type:luminance" maskUnits="userSpaceOnUse" x="29" y="0" width="15" height="21">
<path d="M37.6192 20.7518L29.4241 3.73515L34.9023 1.0749C35.5856 0.771684 36.3214 1.26492 36.196 1.95222C36.0869 2.55057 35.8403 3.07211 36.2324 3.94943C36.8753 5.3968 37.9507 4.91973 38.5935 6.3671C39.2363 7.81447 38.1569 8.29153 38.7997 9.7389C39.4425 11.1863 40.522 10.7133 41.1608 12.1566C41.8036 13.6039 40.7241 14.081 41.367 15.5284C41.7551 16.4057 42.309 16.5755 42.8224 16.8989C43.4167 17.2709 43.2874 18.1442 42.6041 18.4433L37.6192 20.7478V20.7518Z" fill="white"/>
</mask>
<g mask="url(#mask0_115_1065)">
<g opacity="0.5">
<path d="M29.2513 -4.7202L20.5063 20.1125L41.8727 27.6368L50.6177 2.80409L29.2513 -4.7202Z" fill="#62308B"/>
</g>
</g>
<path d="M31.1222 7.70521C30.7017 7.82245 30.257 7.64052 30.071 7.26453L28.7045 4.44661C28.5064 4.04232 28.6398 3.52078 29.0562 3.28629C29.5252 3.01946 30.1115 3.18926 30.3298 3.63398L31.7246 6.50446C31.9307 6.92897 31.7246 7.43838 31.2718 7.64861C31.2232 7.66882 31.1747 7.68904 31.1262 7.70117L31.1222 7.70521Z" fill="#62308B"/>
<path d="M34.4332 14.5217C34.0128 14.6389 33.5681 14.457 33.3821 14.081L31.7447 10.7132C31.5506 10.313 31.6881 9.80763 32.1005 9.57314C32.5735 9.30226 33.1597 9.47206 33.378 9.92083L35.0154 13.2926C35.2216 13.7171 35.0316 14.271 34.5707 14.4772C34.5262 14.4974 34.4777 14.5136 34.4332 14.5257V14.5217Z" fill="#62308B"/>
<path d="M37.4818 20.8003C37.0613 20.9175 36.6166 20.7356 36.4306 20.3596L35.056 17.5255C34.862 17.1253 34.9994 16.6199 35.4118 16.3854C35.8848 16.1145 36.4751 16.2843 36.6894 16.7331L38.068 19.5712C38.2742 19.9957 38.0842 20.5496 37.6233 20.7558C37.5788 20.776 37.5303 20.7922 37.4858 20.8043L37.4818 20.8003Z" fill="#62308B"/>
<path d="M37.9226 66.8455C37.304 67.1446 36.4105 66.5827 35.9214 65.5841L10.0709 12.8926C9.57357 11.8778 9.68274 10.8024 10.3094 10.4991L11.0088 10.1595C11.6395 9.85632 12.5451 10.4425 13.0303 11.4614L38.1814 64.4884C38.6584 65.4951 38.5412 66.5422 37.9226 66.8414V66.8455Z" fill="white"/>
<path d="M38.0195 67.7792C36.9765 68.0663 35.7636 67.3467 35.0965 65.9842L9.24602 13.2927C8.82555 12.4356 8.72446 11.4895 8.97917 10.7618C9.14897 10.2686 9.48051 9.88045 9.90906 9.67426L10.6085 9.33465C11.037 9.12846 11.5464 9.10825 12.0397 9.28209C12.7674 9.5368 13.4466 10.2039 13.855 11.065L39.006 64.0921C39.7176 65.592 39.4224 67.1243 38.3187 67.658C38.2217 67.7065 38.1206 67.7429 38.0236 67.7712L38.0195 67.7792ZM11.3686 10.9922L10.7055 11.3197C10.657 11.3925 10.5923 11.8817 10.8874 12.4881L36.7379 65.1796C37.0048 65.7174 37.3605 65.964 37.5182 66.0044C37.5829 65.8548 37.6152 65.4222 37.3565 64.8805L12.2054 11.8534C11.9144 11.2429 11.4898 10.9882 11.3686 10.9922Z" fill="#62308B"/>
<path d="M23.4045 15.0918C23.263 15.6376 22.9031 16.1268 22.3695 16.4179C21.8762 16.6847 21.3062 16.7453 20.7644 16.5877C20.2267 16.4259 19.782 16.0661 19.5111 15.5729C19.2443 15.0796 19.1796 14.4934 19.3413 13.9678C19.503 13.4261 19.8628 12.9814 20.3561 12.7145C20.8493 12.4477 21.4194 12.3871 21.9611 12.5447C22.4989 12.7064 22.9476 13.0663 23.2144 13.5595C23.4813 14.0487 23.5298 14.5945 23.4004 15.0918H23.4045ZM20.3965 14.3115C20.3318 14.5581 20.3642 14.8169 20.4855 15.0392C20.6148 15.2737 20.8251 15.4476 21.0798 15.5244C21.3345 15.6012 21.6054 15.5729 21.8399 15.4435C22.325 15.1807 22.5069 14.5702 22.2442 14.0851C22.1148 13.8506 21.9045 13.6768 21.6498 13.604C21.3951 13.5312 21.1242 13.5555 20.8898 13.6848C20.6553 13.8142 20.4814 14.0244 20.4046 14.2791C20.4046 14.2913 20.3965 14.3034 20.3965 14.3115Z" fill="#62308B"/>
<path d="M32.0441 18.4632C31.9026 19.009 31.5428 19.4982 31.0091 19.7853C30.5118 20.0521 29.9458 20.1128 29.404 19.9551C28.8663 19.7934 28.4216 19.4336 28.1507 18.9403C27.8839 18.4471 27.8313 17.873 27.9809 17.3353C28.1426 16.7976 28.5025 16.3528 28.9957 16.082C29.4889 15.8151 30.059 15.7545 30.6007 15.9122C31.1385 16.0739 31.5872 16.4337 31.854 16.9269C32.1168 17.4161 32.1694 17.9619 32.04 18.4592L32.0441 18.4632ZM29.0361 17.683C28.9714 17.9296 29.0038 18.1843 29.1251 18.4107C29.2544 18.6452 29.4647 18.819 29.7194 18.8958C29.9781 18.9727 30.245 18.9444 30.4835 18.815C30.9686 18.5522 31.1506 17.9417 30.8878 17.4566C30.7584 17.2221 30.5482 17.0482 30.2935 16.9755C30.0388 16.9027 29.7679 16.9269 29.5334 17.0563C29.2989 17.1857 29.1251 17.3959 29.0482 17.6506C29.0482 17.6627 29.0402 17.6749 29.0402 17.683H29.0361Z" fill="#62308B"/>
<path opacity="0.5" d="M22.0984 13.1842L19.939 13.7786L20.5334 15.938L22.6928 15.3436L22.0984 13.1842Z" fill="#62308B"/>
<path opacity="0.5" d="M30.6419 16.4744L28.4824 17.0688L29.0768 19.2283L31.2363 18.6339L30.6419 16.4744Z" fill="#62308B"/>
<path opacity="0.5" d="M26.697 10.86L23.09 21.1028L24.4971 21.5983L28.1042 11.3556L26.697 10.86Z" fill="#62308B"/>
<path d="M28.6481 11.9583C28.636 11.9988 28.6239 12.0392 28.6117 12.0796L25.3895 21.0792C25.2642 21.4269 25.0135 21.7018 24.682 21.8595C24.3505 22.0172 23.9785 22.0333 23.6308 21.912C23.2872 21.7867 23.0082 21.536 22.8506 21.2045C22.6929 20.873 22.6767 20.5011 22.798 20.1534L26.0202 11.1538C26.2749 10.4422 27.0633 10.0663 27.7789 10.325C28.1266 10.4503 28.4015 10.701 28.5592 11.0325C28.6966 11.3277 28.729 11.6511 28.6481 11.9624V11.9583ZM23.833 20.5496C23.8128 20.6304 23.833 20.6951 23.8492 20.7315C23.8653 20.7679 23.9098 20.8366 24.0028 20.869C24.1443 20.9175 24.2979 20.8447 24.3464 20.7072L27.5687 11.7077C27.6091 11.5743 27.5444 11.4126 27.4069 11.364C27.2695 11.3155 27.1158 11.3883 27.0633 11.5258L23.8411 20.5253C23.8411 20.5253 23.837 20.5415 23.833 20.5496Z" fill="#62308B"/>
<path d="M41.0274 109.256C60.2299 109.256 75.7966 93.689 75.7966 74.4865C75.7966 55.284 60.2299 39.7173 41.0274 39.7173C21.8249 39.7173 6.25824 55.284 6.25824 74.4865C6.25824 93.689 21.8249 109.256 41.0274 109.256Z" fill="white"/>
<path opacity="0.5" d="M75.7968 74.4863C75.7968 93.6902 60.2316 109.255 41.0276 109.255C28.535 109.255 17.5787 102.665 11.4536 92.7684C16.766 96.0634 23.0285 97.9676 29.7398 97.9676C48.9437 97.9676 64.509 82.4023 64.509 63.2024C64.509 56.4952 62.6088 50.2287 59.3138 44.9163C69.2069 51.0413 75.7968 61.9976 75.7968 74.4863Z" fill="#62308B"/>
<path d="M41.0274 109.256C60.2299 109.256 75.7966 93.689 75.7966 74.4865C75.7966 55.284 60.2299 39.7173 41.0274 39.7173C21.8249 39.7173 6.25824 55.284 6.25824 74.4865C6.25824 93.689 21.8249 109.256 41.0274 109.256Z" stroke="#62308B" stroke-width="1.74896" stroke-miterlimit="10"/>
<path d="M82.0149 78.1857C82.9165 80.0172 83.2197 81.8203 82.8396 83.5426C80.8545 92.5139 60.931 95.7361 38.3431 90.739C15.7553 85.7379 -0.946042 74.4137 1.03904 65.4383C1.81124 61.9574 5.27601 59.3416 10.552 57.7366" stroke="#62308B" stroke-width="1.74896" stroke-linecap="round" stroke-linejoin="round"/>
<path d="M81.388 57.0654C81.388 61.6622 77.6604 65.3939 73.0595 65.3939C70.0071 65.3939 67.3348 63.7524 65.8874 61.3024C66.9062 61.7471 68.0342 61.9938 69.2188 61.9938C73.8196 61.9938 77.5472 58.2662 77.5472 53.6653C77.5472 52.1209 77.1267 50.6695 76.395 49.4324C79.3342 50.718 81.392 53.6492 81.392 57.0654H81.388Z" fill="#EF4A7E"/>
<path d="M77.5473 53.6655C77.5473 58.2664 73.8197 61.9939 69.2189 61.9939C68.0343 61.9939 66.9104 61.7473 65.8875 61.3026C65.1557 60.0614 64.7353 58.614 64.7353 57.0696C64.7353 52.4688 68.4629 48.7412 73.0637 48.7412C74.2483 48.7412 75.3722 48.9878 76.3951 49.4325C77.1269 50.6737 77.5473 52.1211 77.5473 53.6655Z" fill="#F2789D"/>
<path d="M73.0637 65.3898C77.6634 65.3898 81.3922 61.661 81.3922 57.0613C81.3922 52.4617 77.6634 48.7329 73.0637 48.7329C68.464 48.7329 64.7353 52.4617 64.7353 57.0613C64.7353 61.661 68.464 65.3898 73.0637 65.3898Z" stroke="#62308B" stroke-width="1.74896" stroke-miterlimit="10"/>
<path d="M28.628 86.1864C28.628 88.7415 26.558 90.8115 24.0029 90.8115C22.3048 90.8115 20.8251 89.8978 20.0165 88.5393C20.5826 88.786 21.2092 88.9234 21.8682 88.9234C24.4233 88.9234 26.4933 86.8534 26.4933 84.2983C26.4933 83.4412 26.2588 82.6367 25.8545 81.9453C27.4879 82.6609 28.632 84.2902 28.632 86.1864H28.628Z" fill="#F9C131"/>
<path d="M26.4933 84.2944C26.4933 86.8496 24.4233 88.9195 21.8682 88.9195C21.2092 88.9195 20.5866 88.7821 20.0165 88.5355C19.6122 87.8482 19.3777 87.0396 19.3777 86.1825C19.3777 83.6274 21.4477 81.5574 24.0029 81.5574C24.6619 81.5574 25.2845 81.6948 25.8545 81.9415C26.2588 82.6288 26.4933 83.4373 26.4933 84.2944Z" fill="#F8DB63"/>
<path d="M24.0029 90.8076C26.5572 90.8076 28.628 88.7369 28.628 86.1825C28.628 83.6281 26.5572 81.5574 24.0029 81.5574C21.4485 81.5574 19.3777 83.6281 19.3777 86.1825C19.3777 88.7369 21.4485 90.8076 24.0029 90.8076Z" stroke="#62308B" stroke-width="1.74896" stroke-miterlimit="10"/>
<path d="M39.3335 80.0899C40.2691 80.0899 41.0275 79.3314 41.0275 78.3959C41.0275 77.4603 40.2691 76.7019 39.3335 76.7019C38.398 76.7019 37.6395 77.4603 37.6395 78.3959C37.6395 79.3314 38.398 80.0899 39.3335 80.0899Z" fill="#62308B"/>
<path d="M4.56435 48.7935C5.49991 48.7935 6.25834 48.0351 6.25834 47.0995C6.25834 46.1639 5.49991 45.4055 4.56435 45.4055C3.62879 45.4055 2.87036 46.1639 2.87036 47.0995C2.87036 48.0351 3.62879 48.7935 4.56435 48.7935Z" fill="#62308B"/>
<path d="M2.73707 109.252C4.24871 109.252 5.47412 108.026 5.47412 106.515C5.47412 105.003 4.24871 103.777 2.73707 103.777C1.22543 103.777 0 105.003 0 106.515C0 108.026 1.22543 109.252 2.73707 109.252Z" fill="#62308B"/>
</svg>
