<svg width="105" height="91" viewBox="0 0 105 91" fill="none" xmlns="http://www.w3.org/2000/svg">
<path d="M77.2681 38.3158C77.6271 38.3158 77.9862 38.1662 78.2256 37.857C78.6445 37.3383 78.5548 36.5703 78.0361 36.1514L51.803 15.1848C51.2743 14.7658 50.5162 14.8556 50.0973 15.3743C49.6784 15.893 49.7682 16.661 50.2868 17.08L76.52 38.0465C76.7394 38.2261 77.0087 38.3059 77.2681 38.3158Z" fill="#62308B"/>
<path d="M76.2103 81.5461C80.9084 83.5011 86.3445 82.8228 90.4242 79.7407C89.1674 78.4539 89.0476 76.3992 90.1947 74.9629C91.3418 73.5265 93.3766 73.1974 94.9027 74.1449C97.546 68.2799 96.0099 61.1381 90.7533 56.9388L74.0957 43.6227C72.1806 42.0866 69.3778 42.3959 67.8417 44.3209L63.8618 49.2983C65.4178 50.5451 65.6772 52.8193 64.4304 54.3753C63.1835 55.9313 60.9093 56.1907 59.3433 54.9439L55.3735 59.9112C53.8374 61.8263 54.1466 64.6292 56.0717 66.1653L71.4624 78.4639" fill="white"/>
<path d="M80.2202 49.1086L62.3956 71.2322L55.7226 65.1078L54.406 61.497L59.1639 55.4624L62.5353 55.8713L65.4878 52.5697L64.0813 47.8717L70.3154 42.645L80.2202 49.1086Z" fill="white"/>
<g opacity="0.5">
<path d="M80.2202 49.1086L62.3956 71.2322L55.7226 65.1078L54.406 61.497L59.1639 55.4624L62.5353 55.8713L65.4878 52.5697L64.0813 47.8717L70.3154 42.645L80.2202 49.1086Z" fill="#62308B"/>
</g>
<path d="M81.627 83.8502C85.0183 83.8701 88.3897 82.8028 91.1627 80.7082L92.2598 79.8803L91.2923 78.8928C90.4445 78.025 90.3846 76.6585 91.1427 75.7109C91.9008 74.7634 93.2374 74.5339 94.2647 75.1623L95.4417 75.8905L96.0103 74.6337C98.9428 68.1203 97.0975 60.4498 91.5117 55.9812L74.8542 42.6651C73.6672 41.7176 72.181 41.2986 70.6848 41.4582C69.1786 41.6278 67.8321 42.3659 66.8845 43.5529L62.1466 49.4778L63.0942 50.2358C64.1315 51.0637 64.3011 52.5799 63.4732 53.6073C63.0742 54.106 62.4957 54.4252 61.8573 54.495C61.219 54.5648 60.5905 54.3853 60.0918 53.9863L59.1442 53.2282L54.4163 59.1431C52.4712 61.5869 52.8603 65.1578 55.304 67.1029L70.6948 79.4015C71.2135 79.8204 71.9815 79.7307 72.4004 79.212C72.8194 78.6933 72.7296 77.9253 72.2109 77.5064L56.8201 65.2077C55.4237 64.0906 55.1943 62.0557 56.3114 60.6593L59.623 56.5198C60.401 56.8689 61.2589 56.9986 62.1366 56.9088C63.4233 56.7692 64.5704 56.1308 65.3684 55.1234C66.7648 53.3679 66.7449 50.9341 65.4581 49.2184L68.7697 45.069C69.3083 44.3908 70.0764 43.9718 70.9342 43.8721C71.792 43.7723 72.6398 44.0217 73.3181 44.5603L89.9757 57.8764C94.3844 61.3974 96.0402 67.2924 94.2149 72.539C92.4195 72.0702 90.4445 72.6786 89.2276 74.1948C88.0107 75.7109 87.8511 77.7757 88.7089 79.4314C85.118 81.6657 80.5996 82.0548 76.6596 80.4189C76.0412 80.1596 75.333 80.4588 75.0737 81.0772C74.8143 81.6957 75.1135 82.4039 75.7319 82.6632C77.6171 83.4512 79.6221 83.8402 81.617 83.8502H81.627Z" fill="#62308B"/>
<path d="M63.0447 72.9678C63.4038 72.9678 63.7629 72.8181 64.0023 72.5089L66.8749 68.9181C67.2939 68.3994 67.2041 67.6313 66.6854 67.2124C66.1568 66.7935 65.3987 66.8833 64.9797 67.4019L62.1071 70.9928C61.6882 71.5115 61.7779 72.2795 62.2966 72.6984C62.516 72.878 62.7853 72.9578 63.0447 72.9678ZM69.6977 64.639C70.0568 64.639 70.4159 64.4893 70.6553 64.1801L74.4456 59.4422C74.8646 58.9235 74.7748 58.1555 74.2561 57.7366C73.7275 57.3176 72.9694 57.4074 72.5504 57.9261L68.7601 62.664C68.3412 63.1827 68.431 63.9507 68.9496 64.3696C69.1691 64.5492 69.4384 64.629 69.6977 64.639ZM77.2784 55.1631C77.6375 55.1631 77.9966 55.0135 78.236 54.7043L82.0263 49.9663C82.4452 49.4477 82.3555 48.6796 81.8368 48.2607C81.3081 47.8418 80.5501 47.9315 80.1312 48.4502L76.3408 53.1882C75.9219 53.7068 76.0116 54.4749 76.5303 54.8938C76.7498 55.0733 77.0191 55.1532 77.2784 55.1631Z" fill="#62308B"/>
<path d="M63.2036 36.1418C63.5627 36.1418 63.9218 35.9921 64.1612 35.6829C64.5801 35.1642 64.4903 34.3962 63.9716 33.9773L22.7467 1.03121C22.218 0.61228 21.46 0.702054 21.041 1.22073C20.6221 1.73941 20.7119 2.50748 21.2306 2.92641L62.4555 35.8724C62.6749 36.052 62.9442 36.1318 63.2036 36.1418Z" fill="#62308B"/>
<path d="M47.1746 36.4708C47.5336 36.4708 47.8927 36.3212 48.1321 36.012C48.551 35.4933 48.4613 34.7253 47.9426 34.3064L6.71763 1.36031C6.18898 0.941382 5.43092 1.03116 5.01199 1.54983C4.59305 2.06851 4.68283 2.83655 5.20151 3.25548L46.4265 36.2015C46.6459 36.3811 46.9152 36.4608 47.1746 36.4708Z" fill="#62308B"/>
<path d="M37.2404 52.3402C37.5995 52.3402 37.9586 52.1906 38.198 51.8814C38.6169 51.3627 38.5271 50.5947 38.0084 50.1757L1.97027 21.3791C1.44162 20.9602 0.683555 21.05 0.264623 21.5686C-0.154309 22.0873 -0.0645662 22.8553 0.454112 23.2743L36.4923 52.0709C36.7117 52.2504 36.981 52.3302 37.2404 52.3402Z" fill="#62308B"/>
<path d="M50.9951 52.6694C51.3542 52.6694 51.7133 52.5198 51.9527 52.2106C52.3716 51.6919 52.2818 50.9239 51.7631 50.5049L32.2229 34.8847C31.6943 34.4658 30.9362 34.5556 30.5173 35.0742C30.0984 35.5929 30.1881 36.361 30.7068 36.7799L50.247 52.4001C50.4665 52.5796 50.7358 52.6595 50.9951 52.6694Z" fill="#62308B"/>
<path d="M22.5979 29.9672C22.9569 29.9672 23.316 29.8176 23.5554 29.5084C23.9743 28.9897 23.8846 28.2217 23.3659 27.8027L12.9824 19.5039C12.4537 19.0849 11.6956 19.1747 11.2767 19.6934C10.8578 20.2121 10.9475 20.9801 11.4662 21.399L21.8498 29.6979C22.0692 29.8774 22.3385 29.9572 22.5979 29.9672Z" fill="#62308B"/>
<path d="M82.3348 90.9715C83.2225 90.9715 84.1202 90.9316 85.018 90.8319C90.9828 90.1636 96.3292 87.2111 100.08 82.523C103.83 77.835 105.526 71.9699 104.857 66.0051C104.189 60.0403 101.237 54.694 96.5486 50.9435L85.6264 42.2058C85.0977 41.7868 84.3397 41.8766 83.9208 42.3953C83.5018 42.914 83.5916 43.682 84.1103 44.101L95.0325 52.8387C99.2218 56.1802 101.845 60.958 102.444 66.2744C103.042 71.5909 101.526 76.8276 98.1844 81.0069C94.8429 85.1962 90.0651 87.8196 84.7487 88.418C79.4223 89.0165 74.1955 87.5004 70.0062 84.1489L25.2603 48.39C24.7316 47.9711 23.9735 48.0609 23.5546 48.5795C23.1357 49.0982 23.2254 49.8663 23.7441 50.2852L68.4901 86.0441C72.4799 89.226 77.3076 90.9316 82.3348 90.9715Z" fill="#62308B"/>
</svg>
