<svg width="121" height="24" viewBox="0 0 121 24" fill="none" xmlns="http://www.w3.org/2000/svg">
<rect width="120.478" height="24" rx="12" fill="#F5D2D2"/>
<path d="M37.3965 13.6982H39.4404C39.3994 14.3682 39.2148 14.9629 38.8867 15.4824C38.5632 16.002 38.1097 16.4076 37.5264 16.6992C36.9476 16.9909 36.2503 17.1367 35.4346 17.1367C34.7965 17.1367 34.2246 17.0273 33.7188 16.8086C33.2129 16.5853 32.7799 16.2663 32.4199 15.8516C32.0645 15.4368 31.7933 14.9355 31.6064 14.3477C31.4196 13.7598 31.3262 13.1012 31.3262 12.3721V11.6816C31.3262 10.9525 31.4219 10.2939 31.6133 9.70605C31.8092 9.11361 32.0872 8.61003 32.4473 8.19531C32.8118 7.7806 33.2471 7.46159 33.7529 7.23828C34.2588 7.01497 34.8239 6.90332 35.4482 6.90332C36.2777 6.90332 36.9772 7.05371 37.5469 7.35449C38.1211 7.65527 38.5654 8.06999 38.8799 8.59863C39.1989 9.12728 39.3903 9.72884 39.4541 10.4033H37.4033C37.3805 10.0023 37.3008 9.66276 37.1641 9.38477C37.0273 9.10221 36.82 8.8903 36.542 8.74902C36.2686 8.60319 35.904 8.53027 35.4482 8.53027C35.1064 8.53027 34.8079 8.59408 34.5527 8.72168C34.2975 8.84928 34.0833 9.04297 33.9102 9.30273C33.737 9.5625 33.6071 9.89062 33.5205 10.2871C33.4385 10.679 33.3975 11.1393 33.3975 11.668V12.3721C33.3975 12.887 33.4362 13.3405 33.5137 13.7324C33.5911 14.1198 33.7096 14.4479 33.8691 14.7168C34.0332 14.9811 34.2428 15.1816 34.498 15.3184C34.7578 15.4505 35.07 15.5166 35.4346 15.5166C35.863 15.5166 36.2161 15.4482 36.4941 15.3115C36.7721 15.1748 36.984 14.972 37.1299 14.7031C37.2803 14.4342 37.3691 14.0993 37.3965 13.6982ZM44.6562 15.332V12.0371C44.6562 11.8001 44.6175 11.5973 44.54 11.4287C44.4626 11.2555 44.3418 11.1211 44.1777 11.0254C44.0182 10.9297 43.8109 10.8818 43.5557 10.8818C43.3369 10.8818 43.1478 10.9206 42.9883 10.998C42.8288 11.071 42.7057 11.1781 42.6191 11.3193C42.5326 11.4561 42.4893 11.6178 42.4893 11.8047H40.5205C40.5205 11.4902 40.5934 11.1917 40.7393 10.9092C40.8851 10.6266 41.097 10.3783 41.375 10.1641C41.653 9.94531 41.9834 9.77441 42.3662 9.65137C42.7536 9.52832 43.1865 9.4668 43.665 9.4668C44.2393 9.4668 44.7497 9.5625 45.1963 9.75391C45.6429 9.94531 45.9938 10.2324 46.249 10.6152C46.5088 10.998 46.6387 11.4766 46.6387 12.0508V15.2158C46.6387 15.6214 46.6637 15.9541 46.7139 16.2139C46.764 16.4691 46.8369 16.6924 46.9326 16.8838V17H44.9434C44.8477 16.7995 44.7747 16.5488 44.7246 16.248C44.679 15.9427 44.6562 15.6374 44.6562 15.332ZM44.916 12.4951L44.9297 13.6094H43.8291C43.5693 13.6094 43.3438 13.639 43.1523 13.6982C42.9609 13.7575 42.8037 13.8418 42.6807 13.9512C42.5576 14.056 42.4665 14.179 42.4072 14.3203C42.3525 14.4616 42.3252 14.6165 42.3252 14.7852C42.3252 14.9538 42.3639 15.1064 42.4414 15.2432C42.5189 15.3753 42.6305 15.4801 42.7764 15.5576C42.9222 15.6305 43.0931 15.667 43.2891 15.667C43.5853 15.667 43.8428 15.6077 44.0615 15.4893C44.2803 15.3708 44.4489 15.2249 44.5674 15.0518C44.6904 14.8786 44.7542 14.7145 44.7588 14.5596L45.2783 15.3936C45.2054 15.5804 45.1051 15.7741 44.9775 15.9746C44.8545 16.1751 44.6973 16.3643 44.5059 16.542C44.3145 16.7152 44.0843 16.8587 43.8154 16.9727C43.5465 17.082 43.2275 17.1367 42.8584 17.1367C42.389 17.1367 41.9629 17.0433 41.5801 16.8564C41.2018 16.665 40.901 16.403 40.6777 16.0703C40.459 15.7331 40.3496 15.3503 40.3496 14.9219C40.3496 14.5345 40.4225 14.1904 40.5684 13.8896C40.7142 13.5889 40.9284 13.3359 41.2109 13.1309C41.498 12.9212 41.8558 12.764 42.2842 12.6592C42.7126 12.5498 43.2093 12.4951 43.7744 12.4951H44.916ZM50.084 11.1826V17H48.1152V9.60352H49.9609L50.084 11.1826ZM49.7969 13.042H49.2637C49.2637 12.4951 49.3343 12.0029 49.4756 11.5654C49.6169 11.1234 49.8151 10.7474 50.0703 10.4375C50.3255 10.123 50.6286 9.88379 50.9795 9.71973C51.335 9.55111 51.7314 9.4668 52.1689 9.4668C52.5153 9.4668 52.832 9.51693 53.1191 9.61719C53.4062 9.71745 53.6523 9.87695 53.8574 10.0957C54.0671 10.3145 54.2266 10.6038 54.3359 10.9639C54.4499 11.3239 54.5068 11.7637 54.5068 12.2832V17H52.5244V12.2764C52.5244 11.9482 52.4788 11.693 52.3877 11.5107C52.2965 11.3285 52.1621 11.2008 51.9844 11.1279C51.8112 11.0505 51.597 11.0117 51.3418 11.0117C51.0775 11.0117 50.8473 11.0641 50.6514 11.1689C50.46 11.2738 50.3005 11.4196 50.1729 11.6064C50.0498 11.7887 49.9564 12.0029 49.8926 12.249C49.8288 12.4951 49.7969 12.7594 49.7969 13.042ZM59.0596 15.5986C59.3011 15.5986 59.5153 15.5531 59.7021 15.4619C59.889 15.3662 60.0348 15.234 60.1396 15.0654C60.249 14.8923 60.306 14.6895 60.3105 14.457H62.1631C62.1585 14.9766 62.0195 15.4391 61.7461 15.8447C61.4727 16.2458 61.1058 16.5625 60.6455 16.7949C60.1852 17.0228 59.6702 17.1367 59.1006 17.1367C58.5264 17.1367 58.0251 17.041 57.5967 16.8496C57.1729 16.6582 56.8197 16.3939 56.5371 16.0566C56.2546 15.7148 56.0426 15.3184 55.9014 14.8672C55.7601 14.4115 55.6895 13.9238 55.6895 13.4043V13.2061C55.6895 12.682 55.7601 12.1943 55.9014 11.7432C56.0426 11.2874 56.2546 10.891 56.5371 10.5537C56.8197 10.2119 57.1729 9.94531 57.5967 9.75391C58.0205 9.5625 58.5173 9.4668 59.0869 9.4668C59.693 9.4668 60.224 9.58301 60.6797 9.81543C61.14 10.0479 61.5 10.3805 61.7598 10.8135C62.0241 11.2419 62.1585 11.75 62.1631 12.3379H60.3105C60.306 12.0918 60.2536 11.8685 60.1533 11.668C60.0576 11.4674 59.9163 11.3079 59.7295 11.1895C59.5472 11.0664 59.3216 11.0049 59.0527 11.0049C58.7656 11.0049 58.5309 11.0664 58.3486 11.1895C58.1663 11.3079 58.0251 11.472 57.9248 11.6816C57.8245 11.8867 57.7539 12.1214 57.7129 12.3857C57.6764 12.6455 57.6582 12.9189 57.6582 13.2061V13.4043C57.6582 13.6914 57.6764 13.9671 57.7129 14.2314C57.7493 14.4958 57.8177 14.7305 57.918 14.9355C58.0228 15.1406 58.1663 15.3024 58.3486 15.4209C58.5309 15.5394 58.7679 15.5986 59.0596 15.5986ZM66.709 17.1367C66.1348 17.1367 65.6198 17.0456 65.1641 16.8633C64.7083 16.6764 64.321 16.4189 64.002 16.0908C63.6875 15.7627 63.446 15.3822 63.2773 14.9492C63.1087 14.5117 63.0244 14.0469 63.0244 13.5547V13.2812C63.0244 12.7207 63.1042 12.208 63.2637 11.7432C63.4232 11.2783 63.651 10.875 63.9473 10.5332C64.248 10.1914 64.6126 9.92936 65.041 9.74707C65.4694 9.56022 65.9525 9.4668 66.4902 9.4668C67.0143 9.4668 67.4792 9.55339 67.8848 9.72656C68.2904 9.89974 68.6299 10.1458 68.9033 10.4648C69.1813 10.7839 69.391 11.1667 69.5322 11.6133C69.6735 12.0553 69.7441 12.5475 69.7441 13.0898V13.9102H63.8652V12.5977H67.8096V12.4473C67.8096 12.1738 67.7594 11.93 67.6592 11.7158C67.5635 11.4971 67.4176 11.3239 67.2217 11.1963C67.0257 11.0687 66.7751 11.0049 66.4697 11.0049C66.21 11.0049 65.9867 11.0618 65.7998 11.1758C65.613 11.2897 65.4603 11.4492 65.3418 11.6543C65.2279 11.8594 65.1413 12.1009 65.082 12.3789C65.0273 12.6523 65 12.9531 65 13.2812V13.5547C65 13.8509 65.041 14.1243 65.123 14.375C65.2096 14.6257 65.3304 14.8421 65.4854 15.0244C65.6449 15.2067 65.8363 15.348 66.0596 15.4482C66.2874 15.5485 66.5449 15.5986 66.832 15.5986C67.1875 15.5986 67.5179 15.5303 67.8232 15.3936C68.1331 15.2523 68.3997 15.0404 68.623 14.7578L69.5801 15.7969C69.4251 16.0202 69.2132 16.2344 68.9443 16.4395C68.68 16.6445 68.361 16.8132 67.9873 16.9453C67.6136 17.0729 67.1875 17.1367 66.709 17.1367ZM72.9434 6.5V17H70.9678V6.5H72.9434ZM77.9746 17.1367C77.4004 17.1367 76.8854 17.0456 76.4297 16.8633C75.974 16.6764 75.5866 16.4189 75.2676 16.0908C74.9531 15.7627 74.7116 15.3822 74.543 14.9492C74.3743 14.5117 74.29 14.0469 74.29 13.5547V13.2812C74.29 12.7207 74.3698 12.208 74.5293 11.7432C74.6888 11.2783 74.9167 10.875 75.2129 10.5332C75.5137 10.1914 75.8783 9.92936 76.3066 9.74707C76.735 9.56022 77.2181 9.4668 77.7559 9.4668C78.2799 9.4668 78.7448 9.55339 79.1504 9.72656C79.556 9.89974 79.8955 10.1458 80.1689 10.4648C80.4469 10.7839 80.6566 11.1667 80.7979 11.6133C80.9391 12.0553 81.0098 12.5475 81.0098 13.0898V13.9102H75.1309V12.5977H79.0752V12.4473C79.0752 12.1738 79.0251 11.93 78.9248 11.7158C78.8291 11.4971 78.6833 11.3239 78.4873 11.1963C78.2913 11.0687 78.0407 11.0049 77.7354 11.0049C77.4756 11.0049 77.2523 11.0618 77.0654 11.1758C76.8786 11.2897 76.7259 11.4492 76.6074 11.6543C76.4935 11.8594 76.4069 12.1009 76.3477 12.3789C76.293 12.6523 76.2656 12.9531 76.2656 13.2812V13.5547C76.2656 13.8509 76.3066 14.1243 76.3887 14.375C76.4753 14.6257 76.596 14.8421 76.751 15.0244C76.9105 15.2067 77.1019 15.348 77.3252 15.4482C77.5531 15.5485 77.8105 15.5986 78.0977 15.5986C78.4531 15.5986 78.7835 15.5303 79.0889 15.3936C79.3988 15.2523 79.6654 15.0404 79.8887 14.7578L80.8457 15.7969C80.6908 16.0202 80.4788 16.2344 80.21 16.4395C79.9456 16.6445 79.6266 16.8132 79.2529 16.9453C78.8792 17.0729 78.4531 17.1367 77.9746 17.1367ZM86.499 15.3867V6.5H88.4814V17H86.6973L86.499 15.3867ZM81.8232 13.3906V13.2471C81.8232 12.682 81.887 12.1693 82.0146 11.709C82.1423 11.2441 82.3291 10.8454 82.5752 10.5127C82.8213 10.18 83.1243 9.92253 83.4844 9.74023C83.8444 9.55794 84.2546 9.4668 84.7148 9.4668C85.1478 9.4668 85.526 9.55794 85.8496 9.74023C86.1777 9.92253 86.4557 10.1823 86.6836 10.5195C86.916 10.8522 87.1029 11.2464 87.2441 11.7021C87.3854 12.1533 87.488 12.6478 87.5518 13.1855V13.5C87.488 14.015 87.3854 14.4935 87.2441 14.9355C87.1029 15.3776 86.916 15.765 86.6836 16.0977C86.4557 16.4258 86.1777 16.681 85.8496 16.8633C85.5215 17.0456 85.1387 17.1367 84.7012 17.1367C84.2409 17.1367 83.8307 17.0433 83.4707 16.8564C83.1152 16.6696 82.8145 16.4076 82.5684 16.0703C82.3268 15.7331 82.1423 15.3366 82.0146 14.8809C81.887 14.4251 81.8232 13.9284 81.8232 13.3906ZM83.792 13.2471V13.3906C83.792 13.696 83.8148 13.9808 83.8604 14.2451C83.9105 14.5094 83.9902 14.7441 84.0996 14.9492C84.2135 15.1497 84.3594 15.307 84.5371 15.4209C84.7194 15.5303 84.9404 15.585 85.2002 15.585C85.5374 15.585 85.8154 15.5098 86.0342 15.3594C86.2529 15.2044 86.4193 14.9925 86.5332 14.7236C86.6517 14.4548 86.7201 14.1449 86.7383 13.7939V12.8984C86.7246 12.6113 86.6836 12.3538 86.6152 12.126C86.5514 11.8936 86.4557 11.6953 86.3281 11.5312C86.2051 11.3672 86.0501 11.2396 85.8633 11.1484C85.681 11.0573 85.4645 11.0117 85.2139 11.0117C84.9587 11.0117 84.7399 11.071 84.5576 11.1895C84.3753 11.3034 84.2272 11.4606 84.1133 11.6611C84.0039 11.8617 83.9219 12.0986 83.8672 12.3721C83.8171 12.641 83.792 12.9326 83.792 13.2471Z" fill="#9E0038"/>
</svg>
