<svg width="107" height="36" viewBox="0 0 107 36" fill="none" xmlns="http://www.w3.org/2000/svg">
<g filter="url(#filter0_d_278_77)">
<rect x="2" y="1" width="103" height="32" rx="16" fill="#7E4CAD"/>
<rect x="2.5" y="1.5" width="102" height="31" rx="15.5" stroke="#7E4CAD"/>
<g clip-path="url(#clip0_278_77)">
<path d="M26 11.1667V22.8333" stroke="white" stroke-width="2" stroke-linecap="round" stroke-linejoin="round"/>
<path d="M20.1666 17H31.8333" stroke="white" stroke-width="2" stroke-linecap="round" stroke-linejoin="round"/>
</g>
<path d="M47.626 22V13.11H44.14V12.13H52.26V13.11H48.788V22H47.626ZM55.3728 22.126C54.7008 22.126 54.1128 21.9813 53.6088 21.692C53.1141 21.3933 52.7315 20.9733 52.4608 20.432C52.1901 19.8813 52.0548 19.2327 52.0548 18.486C52.0548 17.73 52.1901 17.0813 52.4608 16.54C52.7315 15.9987 53.1141 15.5833 53.6088 15.294C54.1128 14.9953 54.7008 14.846 55.3728 14.846C56.0541 14.846 56.6421 14.9953 57.1368 15.294C57.6408 15.5833 58.0281 15.9987 58.2988 16.54C58.5788 17.0813 58.7188 17.73 58.7188 18.486C58.7188 19.2327 58.5788 19.8813 58.2988 20.432C58.0281 20.9733 57.6408 21.3933 57.1368 21.692C56.6421 21.9813 56.0541 22.126 55.3728 22.126ZM55.3728 21.202C56.0448 21.202 56.5768 20.9733 56.9688 20.516C57.3608 20.0493 57.5568 19.3727 57.5568 18.486C57.5568 17.59 57.3561 16.9133 56.9548 16.456C56.5628 15.9893 56.0355 15.756 55.3728 15.756C54.7101 15.756 54.1828 15.9893 53.7908 16.456C53.3988 16.9133 53.2028 17.59 53.2028 18.486C53.2028 19.3727 53.3988 20.0493 53.7908 20.516C54.1828 20.9733 54.7101 21.202 55.3728 21.202ZM60.4869 25.024V16.596C60.4869 16.3347 60.4729 16.0687 60.4449 15.798C60.4262 15.518 60.4029 15.2427 60.3749 14.972H61.4669L61.6209 16.638H61.4529C61.6022 16.0873 61.9055 15.6533 62.3629 15.336C62.8202 15.0093 63.3662 14.846 64.0009 14.846C64.6355 14.846 65.1815 14.9907 65.6389 15.28C66.1055 15.5693 66.4695 15.9847 66.7309 16.526C66.9922 17.0673 67.1229 17.7207 67.1229 18.486C67.1229 19.242 66.9922 19.8907 66.7309 20.432C66.4789 20.9733 66.1195 21.3933 65.6529 21.692C65.1862 21.9813 64.6355 22.126 64.0009 22.126C63.3755 22.126 62.8342 21.9673 62.3769 21.65C61.9195 21.3327 61.6162 20.8987 61.4669 20.348H61.6209V25.024H60.4869ZM63.7769 21.202C64.4489 21.202 64.9809 20.9733 65.3729 20.516C65.7742 20.0493 65.9749 19.3727 65.9749 18.486C65.9749 17.59 65.7742 16.9133 65.3729 16.456C64.9809 15.9893 64.4489 15.756 63.7769 15.756C63.1142 15.756 62.5822 15.9893 62.1809 16.456C61.7889 16.9133 61.5929 17.59 61.5929 18.486C61.5929 19.3727 61.7889 20.0493 62.1809 20.516C62.5822 20.9733 63.1142 21.202 63.7769 21.202ZM76.5498 22.126C75.2151 22.126 74.2211 21.7853 73.5678 21.104C72.9238 20.4227 72.6018 19.4193 72.6018 18.094V12.13H73.7498V18.038C73.7498 19.0553 73.9738 19.8207 74.4218 20.334C74.8698 20.8473 75.5791 21.104 76.5498 21.104C77.4644 21.104 78.1598 20.8473 78.6358 20.334C79.1118 19.8207 79.3498 19.0553 79.3498 18.038V12.13H80.4978V18.094C80.4978 19.4193 80.1618 20.4227 79.4898 21.104C78.8271 21.7853 77.8471 22.126 76.5498 22.126ZM82.7583 25.024V16.596C82.7583 16.3347 82.7443 16.0687 82.7163 15.798C82.6977 15.518 82.6743 15.2427 82.6463 14.972H83.7383L83.8923 16.638H83.7243C83.8737 16.0873 84.177 15.6533 84.6343 15.336C85.0917 15.0093 85.6377 14.846 86.2723 14.846C86.907 14.846 87.453 14.9907 87.9103 15.28C88.377 15.5693 88.741 15.9847 89.0023 16.526C89.2637 17.0673 89.3943 17.7207 89.3943 18.486C89.3943 19.242 89.2637 19.8907 89.0023 20.432C88.7503 20.9733 88.391 21.3933 87.9243 21.692C87.4577 21.9813 86.907 22.126 86.2723 22.126C85.647 22.126 85.1057 21.9673 84.6483 21.65C84.191 21.3327 83.8877 20.8987 83.7383 20.348H83.8923V25.024H82.7583ZM86.0483 21.202C86.7203 21.202 87.2523 20.9733 87.6443 20.516C88.0457 20.0493 88.2463 19.3727 88.2463 18.486C88.2463 17.59 88.0457 16.9133 87.6443 16.456C87.2523 15.9893 86.7203 15.756 86.0483 15.756C85.3857 15.756 84.8537 15.9893 84.4523 16.456C84.0603 16.9133 83.8643 17.59 83.8643 18.486C83.8643 19.3727 84.0603 20.0493 84.4523 20.516C84.8537 20.9733 85.3857 21.202 86.0483 21.202Z" fill="white"/>
</g>
<defs>
<filter id="filter0_d_278_77" x="0" y="0" width="107" height="36" filterUnits="userSpaceOnUse" color-interpolation-filters="sRGB">
<feFlood flood-opacity="0" result="BackgroundImageFix"/>
<feColorMatrix in="SourceAlpha" type="matrix" values="0 0 0 0 0 0 0 0 0 0 0 0 0 0 0 0 0 0 127 0" result="hardAlpha"/>
<feOffset dy="1"/>
<feGaussianBlur stdDeviation="1"/>
<feColorMatrix type="matrix" values="0 0 0 0 0.776471 0 0 0 0 0.894118 0 0 0 0 0.964706 0 0 0 0.05 0"/>
<feBlend mode="normal" in2="BackgroundImageFix" result="effect1_dropShadow_278_77"/>
<feBlend mode="normal" in="SourceGraphic" in2="effect1_dropShadow_278_77" result="shape"/>
</filter>
<clipPath id="clip0_278_77">
<rect width="20" height="20" fill="white" transform="translate(16 7)"/>
</clipPath>
</defs>
</svg>
