<svg width="153" height="24" viewBox="0 0 153 24" fill="none" xmlns="http://www.w3.org/2000/svg">
<rect x="0.285156" width="152.714" height="24" rx="12" fill="#F5D2D2"/>
<path d="M59.0254 7.04688H61.0693V13.623C61.0693 14.3887 60.9053 15.0335 60.5771 15.5576C60.2536 16.0817 59.8047 16.4759 59.2305 16.7402C58.6608 17.0046 58.0046 17.1367 57.2617 17.1367C56.5189 17.1367 55.8581 17.0046 55.2793 16.7402C54.7051 16.4759 54.2539 16.0817 53.9258 15.5576C53.6022 15.0335 53.4404 14.3887 53.4404 13.623V7.04688H55.4912V13.623C55.4912 14.0697 55.5618 14.4342 55.7031 14.7168C55.8444 14.9993 56.0472 15.2067 56.3115 15.3389C56.5804 15.471 56.8971 15.5371 57.2617 15.5371C57.6354 15.5371 57.9521 15.471 58.2119 15.3389C58.4762 15.2067 58.6768 14.9993 58.8135 14.7168C58.9548 14.4342 59.0254 14.0697 59.0254 13.623V7.04688ZM64.5625 11.1826V17H62.5938V9.60352H64.4395L64.5625 11.1826ZM64.2754 13.042H63.7422C63.7422 12.4951 63.8128 12.0029 63.9541 11.5654C64.0954 11.1234 64.2936 10.7474 64.5488 10.4375C64.804 10.123 65.1071 9.88379 65.458 9.71973C65.8135 9.55111 66.21 9.4668 66.6475 9.4668C66.9938 9.4668 67.3105 9.51693 67.5977 9.61719C67.8848 9.71745 68.1309 9.87695 68.3359 10.0957C68.5456 10.3145 68.7051 10.6038 68.8145 10.9639C68.9284 11.3239 68.9854 11.7637 68.9854 12.2832V17H67.0029V12.2764C67.0029 11.9482 66.9574 11.693 66.8662 11.5107C66.7751 11.3285 66.6406 11.2008 66.4629 11.1279C66.2897 11.0505 66.0755 11.0117 65.8203 11.0117C65.556 11.0117 65.3258 11.0641 65.1299 11.1689C64.9385 11.2738 64.779 11.4196 64.6514 11.6064C64.5283 11.7887 64.4349 12.0029 64.3711 12.249C64.3073 12.4951 64.2754 12.7594 64.2754 13.042ZM74.8574 15.2295V9.60352H76.8262V17H74.9736L74.8574 15.2295ZM75.0762 13.7119L75.6572 13.6982C75.6572 14.1904 75.6003 14.6484 75.4863 15.0723C75.3724 15.4915 75.2015 15.8561 74.9736 16.166C74.7458 16.4714 74.4587 16.7106 74.1123 16.8838C73.766 17.0524 73.3581 17.1367 72.8887 17.1367C72.5286 17.1367 72.196 17.0866 71.8906 16.9863C71.5898 16.8815 71.3301 16.7197 71.1113 16.501C70.8971 16.2777 70.7285 15.9928 70.6055 15.6465C70.487 15.2956 70.4277 14.874 70.4277 14.3818V9.60352H72.3965V14.3955C72.3965 14.6143 72.4215 14.7988 72.4717 14.9492C72.5264 15.0996 72.6016 15.2227 72.6973 15.3184C72.793 15.4141 72.9046 15.4824 73.0322 15.5234C73.1644 15.5645 73.3102 15.585 73.4697 15.585C73.8753 15.585 74.1943 15.5029 74.4268 15.3389C74.6637 15.1748 74.8301 14.9515 74.9258 14.6689C75.026 14.3818 75.0762 14.0628 75.0762 13.7119ZM82.3291 14.9561C82.3291 14.8148 82.2881 14.6872 82.2061 14.5732C82.124 14.4593 81.9714 14.3545 81.748 14.2588C81.5293 14.1585 81.2126 14.0674 80.7979 13.9854C80.4242 13.9033 80.0755 13.8008 79.752 13.6777C79.4329 13.5501 79.1549 13.3975 78.918 13.2197C78.6855 13.042 78.5033 12.8324 78.3711 12.5908C78.2389 12.3447 78.1729 12.0645 78.1729 11.75C78.1729 11.4401 78.2389 11.1484 78.3711 10.875C78.5078 10.6016 78.7015 10.36 78.9521 10.1504C79.2074 9.9362 79.5173 9.76986 79.8818 9.65137C80.251 9.52832 80.6657 9.4668 81.126 9.4668C81.7686 9.4668 82.32 9.56934 82.7803 9.77441C83.2451 9.97949 83.6006 10.262 83.8467 10.6221C84.0973 10.9775 84.2227 11.3831 84.2227 11.8389H82.2539C82.2539 11.6475 82.2129 11.4766 82.1309 11.3262C82.0534 11.1712 81.9303 11.0505 81.7617 10.9639C81.5977 10.8727 81.3835 10.8271 81.1191 10.8271C80.9004 10.8271 80.7113 10.8659 80.5518 10.9434C80.3923 11.0163 80.2692 11.1165 80.1826 11.2441C80.1006 11.3672 80.0596 11.5039 80.0596 11.6543C80.0596 11.7682 80.0824 11.8708 80.1279 11.9619C80.1781 12.0485 80.2578 12.1283 80.3672 12.2012C80.4766 12.2741 80.6178 12.3424 80.791 12.4062C80.9688 12.4655 81.1875 12.5202 81.4473 12.5703C81.9805 12.6797 82.4567 12.8232 82.876 13.001C83.2952 13.1742 83.6279 13.4111 83.874 13.7119C84.1201 14.0081 84.2432 14.3978 84.2432 14.8809C84.2432 15.209 84.1702 15.5098 84.0244 15.7832C83.8786 16.0566 83.6689 16.2959 83.3955 16.501C83.1221 16.7015 82.7939 16.8587 82.4111 16.9727C82.0329 17.082 81.6068 17.1367 81.1328 17.1367C80.4447 17.1367 79.8613 17.0137 79.3828 16.7676C78.9089 16.5215 78.5488 16.2093 78.3027 15.8311C78.0612 15.4482 77.9404 15.0563 77.9404 14.6553H79.8066C79.8158 14.9242 79.8841 15.1406 80.0117 15.3047C80.1439 15.4688 80.3102 15.5872 80.5107 15.6602C80.7158 15.7331 80.9368 15.7695 81.1738 15.7695C81.429 15.7695 81.641 15.7354 81.8096 15.667C81.9782 15.5941 82.1058 15.4984 82.1924 15.3799C82.2835 15.2568 82.3291 15.1156 82.3291 14.9561ZM88.9258 17.1367C88.3516 17.1367 87.8366 17.0456 87.3809 16.8633C86.9251 16.6764 86.5378 16.4189 86.2188 16.0908C85.9043 15.7627 85.6628 15.3822 85.4941 14.9492C85.3255 14.5117 85.2412 14.0469 85.2412 13.5547V13.2812C85.2412 12.7207 85.321 12.208 85.4805 11.7432C85.64 11.2783 85.8678 10.875 86.1641 10.5332C86.4648 10.1914 86.8294 9.92936 87.2578 9.74707C87.6862 9.56022 88.1693 9.4668 88.707 9.4668C89.2311 9.4668 89.696 9.55339 90.1016 9.72656C90.5072 9.89974 90.8467 10.1458 91.1201 10.4648C91.3981 10.7839 91.6077 11.1667 91.749 11.6133C91.8903 12.0553 91.9609 12.5475 91.9609 13.0898V13.9102H86.082V12.5977H90.0264V12.4473C90.0264 12.1738 89.9762 11.93 89.876 11.7158C89.7803 11.4971 89.6344 11.3239 89.4385 11.1963C89.2425 11.0687 88.9919 11.0049 88.6865 11.0049C88.4268 11.0049 88.2035 11.0618 88.0166 11.1758C87.8298 11.2897 87.6771 11.4492 87.5586 11.6543C87.4447 11.8594 87.3581 12.1009 87.2988 12.3789C87.2441 12.6523 87.2168 12.9531 87.2168 13.2812V13.5547C87.2168 13.8509 87.2578 14.1243 87.3398 14.375C87.4264 14.6257 87.5472 14.8421 87.7021 15.0244C87.8617 15.2067 88.0531 15.348 88.2764 15.4482C88.5042 15.5485 88.7617 15.5986 89.0488 15.5986C89.4043 15.5986 89.7347 15.5303 90.04 15.3936C90.3499 15.2523 90.6165 15.0404 90.8398 14.7578L91.7969 15.7969C91.6419 16.0202 91.43 16.2344 91.1611 16.4395C90.8968 16.6445 90.5778 16.8132 90.2041 16.9453C89.8304 17.0729 89.4043 17.1367 88.9258 17.1367ZM97.4502 15.3867V6.5H99.4326V17H97.6484L97.4502 15.3867ZM92.7744 13.3906V13.2471C92.7744 12.682 92.8382 12.1693 92.9658 11.709C93.0934 11.2441 93.2803 10.8454 93.5264 10.5127C93.7725 10.18 94.0755 9.92253 94.4355 9.74023C94.7956 9.55794 95.2057 9.4668 95.666 9.4668C96.099 9.4668 96.4772 9.55794 96.8008 9.74023C97.1289 9.92253 97.4069 10.1823 97.6348 10.5195C97.8672 10.8522 98.054 11.2464 98.1953 11.7021C98.3366 12.1533 98.4391 12.6478 98.5029 13.1855V13.5C98.4391 14.015 98.3366 14.4935 98.1953 14.9355C98.054 15.3776 97.8672 15.765 97.6348 16.0977C97.4069 16.4258 97.1289 16.681 96.8008 16.8633C96.4727 17.0456 96.0898 17.1367 95.6523 17.1367C95.1921 17.1367 94.7819 17.0433 94.4219 16.8564C94.0664 16.6696 93.7656 16.4076 93.5195 16.0703C93.278 15.7331 93.0934 15.3366 92.9658 14.8809C92.8382 14.4251 92.7744 13.9284 92.7744 13.3906ZM94.7432 13.2471V13.3906C94.7432 13.696 94.766 13.9808 94.8115 14.2451C94.8617 14.5094 94.9414 14.7441 95.0508 14.9492C95.1647 15.1497 95.3105 15.307 95.4883 15.4209C95.6706 15.5303 95.8916 15.585 96.1514 15.585C96.4886 15.585 96.7666 15.5098 96.9854 15.3594C97.2041 15.2044 97.3704 14.9925 97.4844 14.7236C97.6029 14.4548 97.6712 14.1449 97.6895 13.7939V12.8984C97.6758 12.6113 97.6348 12.3538 97.5664 12.126C97.5026 11.8936 97.4069 11.6953 97.2793 11.5312C97.1562 11.3672 97.0013 11.2396 96.8145 11.1484C96.6322 11.0573 96.4157 11.0117 96.165 11.0117C95.9098 11.0117 95.6911 11.071 95.5088 11.1895C95.3265 11.3034 95.1784 11.4606 95.0645 11.6611C94.9551 11.8617 94.873 12.0986 94.8184 12.3721C94.7682 12.641 94.7432 12.9326 94.7432 13.2471Z" fill="#9E0038"/>
</svg>
