<svg width="79" height="32" viewBox="0 0 79 32" fill="none" xmlns="http://www.w3.org/2000/svg">
<rect width="79" height="32" rx="16" fill="#61308C"/>
<path d="M14.1211 11.4688V20H12.9902V11.4688H14.1211ZM17.6953 15.3066V16.2324H13.875V15.3066H17.6953ZM18.2754 11.4688V12.3945H13.875V11.4688H18.2754ZM20.6367 13.6602V20H19.5469V13.6602H20.6367ZM19.4648 11.9785C19.4648 11.8027 19.5176 11.6543 19.623 11.5332C19.7324 11.4121 19.8926 11.3516 20.1035 11.3516C20.3105 11.3516 20.4688 11.4121 20.5781 11.5332C20.6914 11.6543 20.748 11.8027 20.748 11.9785C20.748 12.1465 20.6914 12.291 20.5781 12.4121C20.4688 12.5293 20.3105 12.5879 20.1035 12.5879C19.8926 12.5879 19.7324 12.5293 19.623 12.4121C19.5176 12.291 19.4648 12.1465 19.4648 11.9785ZM23.5547 11V20H22.4648V11H23.5547ZM27.9492 13.6602V14.4922H24.5215V13.6602H27.9492ZM25.6816 12.1191H26.7656V18.4297C26.7656 18.6445 26.7988 18.8066 26.8652 18.916C26.9316 19.0254 27.0176 19.0977 27.123 19.1328C27.2285 19.168 27.3418 19.1855 27.4629 19.1855C27.5527 19.1855 27.6465 19.1777 27.7441 19.1621C27.8457 19.1426 27.9219 19.127 27.9727 19.1152L27.9785 20C27.8926 20.0273 27.7793 20.0527 27.6387 20.0762C27.502 20.1035 27.3359 20.1172 27.1406 20.1172C26.875 20.1172 26.6309 20.0645 26.4082 19.959C26.1855 19.8535 26.0078 19.6777 25.875 19.4316C25.7461 19.1816 25.6816 18.8457 25.6816 18.4238V12.1191ZM31.8516 20.1172C31.4102 20.1172 31.0098 20.043 30.6504 19.8945C30.2949 19.7422 29.9883 19.5293 29.7305 19.2559C29.4766 18.9824 29.2812 18.6582 29.1445 18.2832C29.0078 17.9082 28.9395 17.498 28.9395 17.0527V16.8066C28.9395 16.291 29.0156 15.832 29.168 15.4297C29.3203 15.0234 29.5273 14.6797 29.7891 14.3984C30.0508 14.1172 30.3477 13.9043 30.6797 13.7598C31.0117 13.6152 31.3555 13.543 31.7109 13.543C32.1641 13.543 32.5547 13.6211 32.8828 13.7773C33.2148 13.9336 33.4863 14.1523 33.6973 14.4336C33.9082 14.7109 34.0645 15.0391 34.166 15.418C34.2676 15.793 34.3184 16.2031 34.3184 16.6484V17.1348H29.584V16.25H33.2344V16.168C33.2188 15.8867 33.1602 15.6133 33.0586 15.3477C32.9609 15.082 32.8047 14.8633 32.5898 14.6914C32.375 14.5195 32.082 14.4336 31.7109 14.4336C31.4648 14.4336 31.2383 14.4863 31.0312 14.5918C30.8242 14.6934 30.6465 14.8457 30.498 15.0488C30.3496 15.252 30.2344 15.5 30.1523 15.793C30.0703 16.0859 30.0293 16.4238 30.0293 16.8066V17.0527C30.0293 17.3535 30.0703 17.6367 30.1523 17.9023C30.2383 18.1641 30.3613 18.3945 30.5215 18.5938C30.6855 18.793 30.8828 18.9492 31.1133 19.0625C31.3477 19.1758 31.6133 19.2324 31.9102 19.2324C32.293 19.2324 32.6172 19.1543 32.8828 18.998C33.1484 18.8418 33.3809 18.6328 33.5801 18.3711L34.2363 18.8926C34.0996 19.0996 33.9258 19.2969 33.7148 19.4844C33.5039 19.6719 33.2441 19.8242 32.9355 19.9414C32.6309 20.0586 32.2695 20.1172 31.8516 20.1172ZM36.668 14.6562V20H35.584V13.6602H36.6387L36.668 14.6562ZM38.6484 13.625L38.6426 14.6328C38.5527 14.6133 38.4668 14.6016 38.3848 14.5977C38.3066 14.5898 38.2168 14.5859 38.1152 14.5859C37.8652 14.5859 37.6445 14.625 37.4531 14.7031C37.2617 14.7812 37.0996 14.8906 36.9668 15.0312C36.834 15.1719 36.7285 15.3398 36.6504 15.5352C36.5762 15.7266 36.5273 15.9375 36.5039 16.168L36.1992 16.3438C36.1992 15.9609 36.2363 15.6016 36.3105 15.2656C36.3887 14.9297 36.5078 14.6328 36.668 14.375C36.8281 14.1133 37.0312 13.9102 37.2773 13.7656C37.5273 13.6172 37.8242 13.543 38.168 13.543C38.2461 13.543 38.3359 13.5527 38.4375 13.5723C38.5391 13.5879 38.6094 13.6055 38.6484 13.625Z" fill="white"/>
<path d="M64.5 12.4583H49.5C49.1583 12.4583 48.875 12.175 48.875 11.8333C48.875 11.4917 49.1583 11.2083 49.5 11.2083H64.5C64.8417 11.2083 65.125 11.4917 65.125 11.8333C65.125 12.175 64.8417 12.4583 64.5 12.4583Z" fill="white"/>
<path d="M62 16.625H52C51.6583 16.625 51.375 16.3417 51.375 16C51.375 15.6583 51.6583 15.375 52 15.375H62C62.3417 15.375 62.625 15.6583 62.625 16C62.625 16.3417 62.3417 16.625 62 16.625Z" fill="white"/>
<path d="M58.6666 20.7917H55.3333C54.9916 20.7917 54.7083 20.5083 54.7083 20.1667C54.7083 19.825 54.9916 19.5417 55.3333 19.5417H58.6666C59.0083 19.5417 59.2916 19.825 59.2916 20.1667C59.2916 20.5083 59.0083 20.7917 58.6666 20.7917Z" fill="white"/>
</svg>
