<svg width="124" height="40" viewBox="0 0 124 40" fill="none" xmlns="http://www.w3.org/2000/svg">
<rect x="0.5" y="0.5" width="123" height="39" rx="11.5" stroke="#B4C1C8"/>
<path d="M36.6404 20.1C36.6404 19.1387 36.8551 18.28 37.2844 17.524C37.7231 16.7587 38.3157 16.166 39.0624 15.746C39.8184 15.3167 40.6631 15.102 41.5964 15.102C42.6884 15.102 43.6451 15.382 44.4664 15.942C45.2877 16.502 45.8617 17.2767 46.1884 18.266H43.9344C43.7104 17.7993 43.3931 17.4493 42.9824 17.216C42.5811 16.9827 42.1144 16.866 41.5824 16.866C41.0131 16.866 40.5044 17.0013 40.0564 17.272C39.6177 17.5333 39.2724 17.9067 39.0204 18.392C38.7777 18.8773 38.6564 19.4467 38.6564 20.1C38.6564 20.744 38.7777 21.3133 39.0204 21.808C39.2724 22.2933 39.6177 22.6713 40.0564 22.942C40.5044 23.2033 41.0131 23.334 41.5824 23.334C42.1144 23.334 42.5811 23.2173 42.9824 22.984C43.3931 22.7413 43.7104 22.3867 43.9344 21.92H46.1884C45.8617 22.9187 45.2877 23.698 44.4664 24.258C43.6544 24.8087 42.6977 25.084 41.5964 25.084C40.6631 25.084 39.8184 24.874 39.0624 24.454C38.3157 24.0247 37.7231 23.432 37.2844 22.676C36.8551 21.92 36.6404 21.0613 36.6404 20.1ZM47.6085 21.094C47.6085 20.31 47.7625 19.6147 48.0705 19.008C48.3878 18.4013 48.8125 17.9347 49.3445 17.608C49.8858 17.2813 50.4878 17.118 51.1505 17.118C51.7292 17.118 52.2332 17.2347 52.6625 17.468C53.1012 17.7013 53.4512 17.9953 53.7125 18.35V17.244H55.6865V25H53.7125V23.866C53.4605 24.23 53.1105 24.5333 52.6625 24.776C52.2238 25.0093 51.7152 25.126 51.1365 25.126C50.4832 25.126 49.8858 24.958 49.3445 24.622C48.8125 24.286 48.3878 23.8147 48.0705 23.208C47.7625 22.592 47.6085 21.8873 47.6085 21.094ZM53.7125 21.122C53.7125 20.646 53.6192 20.24 53.4325 19.904C53.2458 19.5587 52.9938 19.2973 52.6765 19.12C52.3592 18.9333 52.0185 18.84 51.6545 18.84C51.2905 18.84 50.9545 18.9287 50.6465 19.106C50.3385 19.2833 50.0865 19.5447 49.8905 19.89C49.7038 20.226 49.6105 20.6273 49.6105 21.094C49.6105 21.5607 49.7038 21.9713 49.8905 22.326C50.0865 22.6713 50.3385 22.9373 50.6465 23.124C50.9638 23.3107 51.2998 23.404 51.6545 23.404C52.0185 23.404 52.3592 23.3153 52.6765 23.138C52.9938 22.9513 53.2458 22.69 53.4325 22.354C53.6192 22.0087 53.7125 21.598 53.7125 21.122ZM62.1488 17.132C63.0728 17.132 63.8194 17.426 64.3888 18.014C64.9581 18.5927 65.2428 19.4047 65.2428 20.45V25H63.2828V20.716C63.2828 20.1 63.1288 19.6287 62.8208 19.302C62.5128 18.966 62.0928 18.798 61.5608 18.798C61.0194 18.798 60.5901 18.966 60.2728 19.302C59.9648 19.6287 59.8108 20.1 59.8108 20.716V25H57.8508V17.244H59.8108V18.21C60.0721 17.874 60.4034 17.6127 60.8048 17.426C61.2154 17.23 61.6634 17.132 62.1488 17.132ZM66.8526 21.122C66.8526 20.3193 67.016 19.6193 67.3426 19.022C67.6693 18.4153 68.122 17.9487 68.7006 17.622C69.2793 17.286 69.942 17.118 70.6886 17.118C71.65 17.118 72.4433 17.3607 73.0686 17.846C73.7033 18.322 74.128 18.994 74.3426 19.862H72.2286C72.1166 19.526 71.9253 19.2647 71.6546 19.078C71.3933 18.882 71.0666 18.784 70.6746 18.784C70.1146 18.784 69.6713 18.9893 69.3446 19.4C69.018 19.8013 68.8546 20.3753 68.8546 21.122C68.8546 21.8593 69.018 22.4333 69.3446 22.844C69.6713 23.2453 70.1146 23.446 70.6746 23.446C71.468 23.446 71.986 23.0913 72.2286 22.382H74.3426C74.128 23.222 73.7033 23.8893 73.0686 24.384C72.434 24.8787 71.6406 25.126 70.6886 25.126C69.942 25.126 69.2793 24.9627 68.7006 24.636C68.122 24.3 67.6693 23.8333 67.3426 23.236C67.016 22.6293 66.8526 21.9247 66.8526 21.122ZM83.2385 20.954C83.2385 21.234 83.2198 21.486 83.1825 21.71H77.5125C77.5592 22.27 77.7552 22.7087 78.1005 23.026C78.4458 23.3433 78.8705 23.502 79.3745 23.502C80.1025 23.502 80.6205 23.1893 80.9285 22.564H83.0425C82.8185 23.3107 82.3892 23.9267 81.7545 24.412C81.1198 24.888 80.3405 25.126 79.4165 25.126C78.6698 25.126 77.9978 24.9627 77.4005 24.636C76.8125 24.3 76.3505 23.8287 76.0145 23.222C75.6878 22.6153 75.5245 21.9153 75.5245 21.122C75.5245 20.3193 75.6878 19.6147 76.0145 19.008C76.3412 18.4013 76.7985 17.9347 77.3865 17.608C77.9745 17.2813 78.6512 17.118 79.4165 17.118C80.1538 17.118 80.8118 17.2767 81.3905 17.594C81.9785 17.9113 82.4312 18.364 82.7485 18.952C83.0752 19.5307 83.2385 20.198 83.2385 20.954ZM81.2085 20.394C81.1992 19.89 81.0172 19.4887 80.6625 19.19C80.3078 18.882 79.8738 18.728 79.3605 18.728C78.8752 18.728 78.4645 18.8773 78.1285 19.176C77.8018 19.4653 77.6012 19.8713 77.5265 20.394H81.2085ZM86.8791 14.64V25H84.9191V14.64H86.8791Z" fill="#B4C1C8"/>
</svg>
