<svg width="527" height="40" viewBox="0 0 527 40" fill="none" xmlns="http://www.w3.org/2000/svg">
<rect x="0.5" width="526" height="40" rx="8" fill="#3A379F"/>
<path d="M230.412 20.1C230.412 19.1387 230.627 18.28 231.056 17.524C231.495 16.7587 232.087 16.166 232.834 15.746C233.59 15.3167 234.435 15.102 235.368 15.102C236.46 15.102 237.417 15.382 238.238 15.942C239.059 16.502 239.633 17.2767 239.96 18.266H237.706C237.482 17.7993 237.165 17.4493 236.754 17.216C236.353 16.9827 235.886 16.866 235.354 16.866C234.785 16.866 234.276 17.0013 233.828 17.272C233.389 17.5333 233.044 17.9067 232.792 18.392C232.549 18.8773 232.428 19.4467 232.428 20.1C232.428 20.744 232.549 21.3133 232.792 21.808C233.044 22.2933 233.389 22.6713 233.828 22.942C234.276 23.2033 234.785 23.334 235.354 23.334C235.886 23.334 236.353 23.2173 236.754 22.984C237.165 22.7413 237.482 22.3867 237.706 21.92H239.96C239.633 22.9187 239.059 23.698 238.238 24.258C237.426 24.8087 236.469 25.084 235.368 25.084C234.435 25.084 233.59 24.874 232.834 24.454C232.087 24.0247 231.495 23.432 231.056 22.676C230.627 21.92 230.412 21.0613 230.412 20.1ZM245.328 25.126C244.581 25.126 243.909 24.9627 243.312 24.636C242.715 24.3 242.243 23.8287 241.898 23.222C241.562 22.6153 241.394 21.9153 241.394 21.122C241.394 20.3287 241.567 19.6287 241.912 19.022C242.267 18.4153 242.747 17.9487 243.354 17.622C243.961 17.286 244.637 17.118 245.384 17.118C246.131 17.118 246.807 17.286 247.414 17.622C248.021 17.9487 248.497 18.4153 248.842 19.022C249.197 19.6287 249.374 20.3287 249.374 21.122C249.374 21.9153 249.192 22.6153 248.828 23.222C248.473 23.8287 247.988 24.3 247.372 24.636C246.765 24.9627 246.084 25.126 245.328 25.126ZM245.328 23.418C245.683 23.418 246.014 23.334 246.322 23.166C246.639 22.9887 246.891 22.7273 247.078 22.382C247.265 22.0367 247.358 21.6167 247.358 21.122C247.358 20.3847 247.162 19.82 246.77 19.428C246.387 19.0267 245.916 18.826 245.356 18.826C244.796 18.826 244.325 19.0267 243.942 19.428C243.569 19.82 243.382 20.3847 243.382 21.122C243.382 21.8593 243.564 22.4287 243.928 22.83C244.301 23.222 244.768 23.418 245.328 23.418ZM255.36 17.132C256.284 17.132 257.03 17.426 257.6 18.014C258.169 18.5927 258.454 19.4047 258.454 20.45V25H256.494V20.716C256.494 20.1 256.34 19.6287 256.032 19.302C255.724 18.966 255.304 18.798 254.772 18.798C254.23 18.798 253.801 18.966 253.484 19.302C253.176 19.6287 253.022 20.1 253.022 20.716V25H251.062V17.244H253.022V18.21C253.283 17.874 253.614 17.6127 254.016 17.426C254.426 17.23 254.874 17.132 255.36 17.132ZM262.85 18.854V22.606C262.85 22.8673 262.91 23.0587 263.032 23.18C263.162 23.292 263.377 23.348 263.676 23.348H264.586V25H263.354C261.702 25 260.876 24.1973 260.876 22.592V18.854H259.952V17.244H260.876V15.326H262.85V17.244H264.586V18.854H262.85ZM267.239 16.32C266.894 16.32 266.605 16.2127 266.371 15.998C266.147 15.774 266.035 15.4987 266.035 15.172C266.035 14.8453 266.147 14.5747 266.371 14.36C266.605 14.136 266.894 14.024 267.239 14.024C267.585 14.024 267.869 14.136 268.093 14.36C268.327 14.5747 268.443 14.8453 268.443 15.172C268.443 15.4987 268.327 15.774 268.093 15.998C267.869 16.2127 267.585 16.32 267.239 16.32ZM268.205 17.244V25H266.245V17.244H268.205ZM274.69 17.132C275.614 17.132 276.36 17.426 276.93 18.014C277.499 18.5927 277.784 19.4047 277.784 20.45V25H275.824V20.716C275.824 20.1 275.67 19.6287 275.362 19.302C275.054 18.966 274.634 18.798 274.102 18.798C273.56 18.798 273.131 18.966 272.814 19.302C272.506 19.6287 272.352 20.1 272.352 20.716V25H270.392V17.244H272.352V18.21C272.613 17.874 272.944 17.6127 273.346 17.426C273.756 17.23 274.204 17.132 274.69 17.132ZM287.22 17.244V25H285.246V24.02C284.994 24.356 284.662 24.622 284.252 24.818C283.85 25.0047 283.412 25.098 282.936 25.098C282.329 25.098 281.792 24.972 281.326 24.72C280.859 24.4587 280.49 24.0807 280.22 23.586C279.958 23.082 279.828 22.4847 279.828 21.794V17.244H281.788V21.514C281.788 22.13 281.942 22.606 282.25 22.942C282.558 23.2687 282.978 23.432 283.51 23.432C284.051 23.432 284.476 23.2687 284.784 22.942C285.092 22.606 285.246 22.13 285.246 21.514V17.244H287.22ZM296.614 20.954C296.614 21.234 296.595 21.486 296.558 21.71H290.888C290.934 22.27 291.13 22.7087 291.476 23.026C291.821 23.3433 292.246 23.502 292.75 23.502C293.478 23.502 293.996 23.1893 294.304 22.564H296.418C296.194 23.3107 295.764 23.9267 295.13 24.412C294.495 24.888 293.716 25.126 292.792 25.126C292.045 25.126 291.373 24.9627 290.776 24.636C290.188 24.3 289.726 23.8287 289.39 23.222C289.063 22.6153 288.899 21.9153 288.899 21.122C288.899 20.3193 289.063 19.6147 289.39 19.008C289.716 18.4013 290.174 17.9347 290.762 17.608C291.35 17.2813 292.026 17.118 292.792 17.118C293.529 17.118 294.187 17.2767 294.766 17.594C295.354 17.9113 295.806 18.364 296.124 18.952C296.45 19.5307 296.614 20.198 296.614 20.954ZM294.584 20.394C294.574 19.89 294.392 19.4887 294.038 19.19C293.683 18.882 293.249 18.728 292.736 18.728C292.25 18.728 291.84 18.8773 291.504 19.176C291.177 19.4653 290.976 19.8713 290.902 20.394H294.584Z" fill="#FCFCFC"/>
</svg>
