<svg width="34" height="37" viewBox="0 0 34 37" fill="none" xmlns="http://www.w3.org/2000/svg">
<g filter="url(#filter0_dd_1300_761)">
<rect x="2.5" y="1.5" width="29" height="31.5" rx="4" fill="#61308C"/>
<path d="M17 19.0728C16.7949 19.0728 16.6058 18.9873 16.4326 18.8164L13.9683 16.2974C13.9045 16.2313 13.8566 16.1606 13.8247 16.0854C13.7951 16.0103 13.7803 15.9271 13.7803 15.8359C13.7803 15.7129 13.8099 15.6001 13.8691 15.4976C13.9307 15.3927 14.0116 15.3107 14.1118 15.2515C14.2144 15.1899 14.326 15.1592 14.4468 15.1592C14.6336 15.1592 14.8 15.2332 14.9458 15.3813L17.1196 17.6304H16.8872L19.0542 15.3813C19.1955 15.2332 19.3595 15.1592 19.5464 15.1592C19.6694 15.1592 19.7811 15.1899 19.8813 15.2515C19.9839 15.3107 20.0648 15.3927 20.124 15.4976C20.1855 15.6001 20.2163 15.7129 20.2163 15.8359C20.2163 16.0182 20.1525 16.172 20.0249 16.2974L17.564 18.8164C17.4751 18.9053 17.3851 18.9702 17.2939 19.0112C17.2051 19.0522 17.1071 19.0728 17 19.0728Z" fill="white"/>
</g>
<defs>
<filter id="filter0_dd_1300_761" x="0" y="0" width="34" height="36.5" filterUnits="userSpaceOnUse" color-interpolation-filters="sRGB">
<feFlood flood-opacity="0" result="BackgroundImageFix"/>
<feColorMatrix in="SourceAlpha" type="matrix" values="0 0 0 0 0 0 0 0 0 0 0 0 0 0 0 0 0 0 127 0" result="hardAlpha"/>
<feMorphology radius="0.5" operator="dilate" in="SourceAlpha" result="effect1_dropShadow_1300_761"/>
<feOffset/>
<feComposite in2="hardAlpha" operator="out"/>
<feColorMatrix type="matrix" values="0 0 0 0 0 0 0 0 0 0.478431 0 0 0 0 1 0 0 0 0.12 0"/>
<feBlend mode="normal" in2="BackgroundImageFix" result="effect1_dropShadow_1300_761"/>
<feColorMatrix in="SourceAlpha" type="matrix" values="0 0 0 0 0 0 0 0 0 0 0 0 0 0 0 0 0 0 127 0" result="hardAlpha"/>
<feOffset dy="1"/>
<feGaussianBlur stdDeviation="1.25"/>
<feComposite in2="hardAlpha" operator="out"/>
<feColorMatrix type="matrix" values="0 0 0 0 0 0 0 0 0 0.478431 0 0 0 0 1 0 0 0 0.24 0"/>
<feBlend mode="normal" in2="effect1_dropShadow_1300_761" result="effect2_dropShadow_1300_761"/>
<feBlend mode="normal" in="SourceGraphic" in2="effect2_dropShadow_1300_761" result="shape"/>
</filter>
</defs>
</svg>
