<svg width="154" height="40" viewBox="0 0 154 40" fill="none" xmlns="http://www.w3.org/2000/svg">
<rect width="154" height="40" rx="8" fill="#3A379F"/>
<path d="M52.5632 20.1C52.5632 19.1387 52.7779 18.28 53.2072 17.524C53.6459 16.7587 54.2386 16.166 54.9852 15.746C55.7412 15.3167 56.5859 15.102 57.5192 15.102C58.6112 15.102 59.5679 15.382 60.3892 15.942C61.2106 16.502 61.7846 17.2767 62.1112 18.266H59.8572C59.6332 17.7993 59.3159 17.4493 58.9052 17.216C58.5039 16.9827 58.0372 16.866 57.5052 16.866C56.9359 16.866 56.4272 17.0013 55.9792 17.272C55.5406 17.5333 55.1952 17.9067 54.9432 18.392C54.7006 18.8773 54.5792 19.4467 54.5792 20.1C54.5792 20.744 54.7006 21.3133 54.9432 21.808C55.1952 22.2933 55.5406 22.6713 55.9792 22.942C56.4272 23.2033 56.9359 23.334 57.5052 23.334C58.0372 23.334 58.5039 23.2173 58.9052 22.984C59.3159 22.7413 59.6332 22.3867 59.8572 21.92H62.1112C61.7846 22.9187 61.2106 23.698 60.3892 24.258C59.5772 24.8087 58.6206 25.084 57.5192 25.084C56.5859 25.084 55.7412 24.874 54.9852 24.454C54.2386 24.0247 53.6459 23.432 53.2072 22.676C52.7779 21.92 52.5632 21.0613 52.5632 20.1ZM65.9953 18.448C66.2473 18.0373 66.574 17.7153 66.9753 17.482C67.386 17.2487 67.8527 17.132 68.3753 17.132V19.19H67.8573C67.2413 19.19 66.7747 19.3347 66.4573 19.624C66.1493 19.9133 65.9953 20.4173 65.9953 21.136V25H64.0353V17.244H65.9953V18.448ZM77.1555 20.954C77.1555 21.234 77.1368 21.486 77.0995 21.71H71.4295C71.4762 22.27 71.6722 22.7087 72.0175 23.026C72.3628 23.3433 72.7875 23.502 73.2915 23.502C74.0195 23.502 74.5375 23.1893 74.8455 22.564H76.9595C76.7355 23.3107 76.3062 23.9267 75.6715 24.412C75.0368 24.888 74.2575 25.126 73.3335 25.126C72.5868 25.126 71.9148 24.9627 71.3175 24.636C70.7295 24.3 70.2675 23.8287 69.9315 23.222C69.6048 22.6153 69.4415 21.9153 69.4415 21.122C69.4415 20.3193 69.6048 19.6147 69.9315 19.008C70.2582 18.4013 70.7155 17.9347 71.3035 17.608C71.8915 17.2813 72.5682 17.118 73.3335 17.118C74.0708 17.118 74.7288 17.2767 75.3075 17.594C75.8955 17.9113 76.3482 18.364 76.6655 18.952C76.9922 19.5307 77.1555 20.198 77.1555 20.954ZM75.1255 20.394C75.1162 19.89 74.9342 19.4887 74.5795 19.19C74.2248 18.882 73.7908 18.728 73.2775 18.728C72.7922 18.728 72.3815 18.8773 72.0455 19.176C71.7188 19.4653 71.5182 19.8713 71.4435 20.394H75.1255ZM78.3321 21.094C78.3321 20.31 78.4861 19.6147 78.7941 19.008C79.1115 18.4013 79.5361 17.9347 80.0681 17.608C80.6095 17.2813 81.2115 17.118 81.8741 17.118C82.4528 17.118 82.9568 17.2347 83.3861 17.468C83.8248 17.7013 84.1748 17.9953 84.4361 18.35V17.244H86.4101V25H84.4361V23.866C84.1841 24.23 83.8341 24.5333 83.3861 24.776C82.9475 25.0093 82.4388 25.126 81.8601 25.126C81.2068 25.126 80.6095 24.958 80.0681 24.622C79.5361 24.286 79.1115 23.8147 78.7941 23.208C78.4861 22.592 78.3321 21.8873 78.3321 21.094ZM84.4361 21.122C84.4361 20.646 84.3428 20.24 84.1561 19.904C83.9695 19.5587 83.7175 19.2973 83.4001 19.12C83.0828 18.9333 82.7421 18.84 82.3781 18.84C82.0141 18.84 81.6781 18.9287 81.3701 19.106C81.0621 19.2833 80.8101 19.5447 80.6141 19.89C80.4275 20.226 80.3341 20.6273 80.3341 21.094C80.3341 21.5607 80.4275 21.9713 80.6141 22.326C80.8101 22.6713 81.0621 22.9373 81.3701 23.124C81.6875 23.3107 82.0235 23.404 82.3781 23.404C82.7421 23.404 83.0828 23.3153 83.4001 23.138C83.7175 22.9513 83.9695 22.69 84.1561 22.354C84.3428 22.0087 84.4361 21.598 84.4361 21.122ZM90.8564 18.854V22.606C90.8564 22.8673 90.9171 23.0587 91.0384 23.18C91.1691 23.292 91.3837 23.348 91.6824 23.348H92.5924V25H91.3604C89.7084 25 88.8824 24.1973 88.8824 22.592V18.854H87.9584V17.244H88.8824V15.326H90.8564V17.244H92.5924V18.854H90.8564ZM101.462 20.954C101.462 21.234 101.443 21.486 101.406 21.71H95.7361C95.7828 22.27 95.9788 22.7087 96.3241 23.026C96.6695 23.3433 97.0941 23.502 97.5981 23.502C98.3261 23.502 98.8441 23.1893 99.1521 22.564H101.266C101.042 23.3107 100.613 23.9267 99.9781 24.412C99.3435 24.888 98.5641 25.126 97.6401 25.126C96.8935 25.126 96.2215 24.9627 95.6241 24.636C95.0361 24.3 94.5741 23.8287 94.2381 23.222C93.9115 22.6153 93.7481 21.9153 93.7481 21.122C93.7481 20.3193 93.9115 19.6147 94.2381 19.008C94.5648 18.4013 95.0221 17.9347 95.6101 17.608C96.1981 17.2813 96.8748 17.118 97.6401 17.118C98.3775 17.118 99.0355 17.2767 99.6141 17.594C100.202 17.9113 100.655 18.364 100.972 18.952C101.299 19.5307 101.462 20.198 101.462 20.954ZM99.4321 20.394C99.4228 19.89 99.2408 19.4887 98.8861 19.19C98.5315 18.882 98.0975 18.728 97.5841 18.728C97.0988 18.728 96.6881 18.8773 96.3521 19.176C96.0255 19.4653 95.8248 19.8713 95.7501 20.394H99.4321Z" fill="white"/>
</svg>
