<svg width="1440" height="1020" viewBox="0 0 1440 1020" fill="none" xmlns="http://www.w3.org/2000/svg">
<g opacity="0.4" clip-path="url(#clip0_117_1347)">
<path d="M942.12 1020C968.466 985.662 993.51 949.866 1018.11 914.706C1025.63 903.954 1033.4 892.836 1041.02 882.042C1101.77 796.014 1159.78 732.702 1218.39 688.5C1290.64 634.014 1365.13 608.43 1440 612.3V612.054C1422.52 611.13 1404.99 611.792 1387.63 614.034C1367.2 616.74 1347.1 621.513 1327.63 628.278C1291.03 640.926 1254.2 661.128 1218.14 688.32C1159.51 732.546 1101.47 795.876 1040.72 881.928C1033.1 892.728 1025.32 903.834 1017.8 914.586C993.204 949.788 968.112 985.62 941.73 1019.99L942.12 1020Z" fill="url(#paint0_radial_117_1347)"/>
<path d="M13.8 1020C12.462 1019.4 11.124 1018.8 9.78598 1018.25C6.49799 1016.84 3.25799 1015.47 0.0239868 1014.12V1014.47C4.35599 1016.28 8.67999 1018.12 12.996 1020H13.8Z" fill="url(#paint1_radial_117_1347)"/>
<path d="M93.12 1020C73.95 1011.11 54.678 1002.6 35.358 994.704C23.238 989.744 11.452 985.176 0 981V981.39C31.098 992.79 61.86 1005.94 92.322 1020.02L93.12 1020Z" fill="url(#paint2_radial_117_1347)"/>
<path d="M940.008 1020C979.932 973.392 1018.01 922.398 1054.82 873L1054.94 872.832C1085.43 831.726 1113.68 796.758 1141.34 765.936C1229.1 668.244 1313.91 614.814 1400.6 602.58C1413.66 600.786 1426.82 599.924 1440 600V599.712C1426.79 599.653 1413.59 600.533 1400.51 602.346C1375.57 605.961 1351.17 612.692 1327.91 622.38C1305.53 631.602 1282.91 643.848 1260.61 658.764C1221.05 685.248 1181.92 720.264 1140.99 765.828C1113.35 796.656 1085.09 831.63 1054.59 872.748L1054.46 872.91C1017.6 922.32 979.494 973.356 939.534 1020H940.008Z" fill="url(#paint3_radial_117_1347)"/>
<path d="M935.436 1020C938.792 1016.52 942.174 1012.97 945.582 1009.34C982.896 969.594 1023.22 921.948 1068.86 863.67C1092.04 834.06 1122.94 795.27 1156.4 757.644C1244.95 658.536 1325.14 605.742 1408.77 591.492C1419.1 589.757 1429.53 588.649 1440 588.174V587.85C1429.5 588.323 1419.03 589.435 1408.67 591.18C1384.38 595.428 1360.71 602.684 1338.21 612.78C1316.61 622.38 1294.61 634.98 1272.92 650.154C1235.12 676.638 1196.87 711.744 1156 757.482C1122.55 795.102 1091.63 833.916 1068.45 863.526C1022.81 921.798 982.5 969.438 945.192 1009.17C941.816 1012.77 938.386 1016.38 934.902 1020.01L935.436 1020Z" fill="url(#paint4_radial_117_1347)"/>
<path d="M173.874 1020C116.01 992.4 58.35 967.29 0 949.044V949.404C58.062 967.578 115.446 992.532 173.04 1020H173.874Z" fill="url(#paint5_radial_117_1347)"/>
<path d="M927.666 1020C936.522 1011.95 945.57 1003.42 954.894 994.308C997.446 952.722 1041.67 904.374 1082.77 854.508C1109.77 821.772 1140.32 784.668 1171.49 749.358C1231.68 681.6 1314 601.128 1416.96 580.38C1424.3 578.904 1431.96 577.776 1440 576.954V576.6C1431.92 577.422 1424.21 578.556 1416.82 580.044C1372.57 588.96 1329.53 609.084 1285.25 641.562C1249.25 667.962 1211.92 703.14 1171.04 749.16C1139.84 784.476 1109.29 821.586 1082.32 854.322C1041.22 904.2 997.014 952.536 954.468 994.122C945.666 1002.73 936.552 1011.41 927.114 1020.02L927.666 1020Z" fill="url(#paint6_radial_117_1347)"/>
<path d="M255.792 1020H256.71C251.064 1017.28 245.622 1014.67 240.3 1012.13C188.274 987.306 126.48 958.992 62.58 937.212C41.076 929.886 20.268 923.634 0 918.396V918.702C75.834 938.346 153.522 971.166 240 1012.43C245.124 1014.88 250.362 1017.38 255.792 1020Z" fill="url(#paint7_radial_117_1347)"/>
<path d="M915.6 1020C931.11 1007.94 947.19 994.458 964.2 979.278C1011.7 936.834 1057.51 890.478 1096.68 845.298C1108.64 831.498 1121 817.098 1132.96 803.124C1150.42 782.724 1168.47 761.682 1186.57 741.018C1250.34 668.814 1328.56 591.942 1425.15 569.268C1429.95 568.146 1434.86 567.174 1440 566.34V565.932C1434.8 566.772 1429.8 567.732 1425 568.89C1382.35 578.904 1340.67 599.862 1297.6 632.964C1263.11 659.46 1227.68 693.732 1186.1 740.814C1168 761.484 1149.94 782.55 1132.48 802.926C1120.52 816.876 1108.16 831.3 1096.21 845.1C1057.05 890.292 1011.25 936.606 963.768 979.038C948.444 992.73 932.238 1006.6 915.006 1020H915.6Z" fill="url(#paint8_radial_117_1347)"/>
<path d="M306.222 1003.74C317.278 1009.13 328.478 1014.55 339.822 1020H340.878C329.546 1014.58 318.104 1009.05 306.552 1003.41C288.018 994.452 270.84 986.334 254.04 978.588C177.696 943.392 90.942 907.374 0 888.978V889.398C90.81 907.794 177.456 943.764 253.722 978.924C270.516 986.664 287.688 994.8 306.222 1003.74Z" fill="url(#paint9_radial_117_1347)"/>
<path d="M897.192 1020C921.102 1004.84 946.098 986.556 973.506 964.254C1025.71 921.762 1071.85 878.652 1110.59 836.118C1133.83 810.606 1157.8 783.078 1180.97 756.456C1187.84 748.548 1194.74 740.632 1201.66 732.708C1268.15 656.598 1342.24 582.774 1433.35 558.156C1435.53 557.568 1437.75 557.012 1440 556.488V556.032C1437.66 556.572 1435.37 557.144 1433.13 557.748C1392.02 568.854 1351.68 590.64 1309.81 624.348C1276.73 650.964 1243.21 684.348 1201.13 732.492C1194.21 740.408 1187.31 748.324 1180.43 756.24C1157.26 782.856 1133.3 810.384 1110.07 835.89C1071.34 878.412 1025.23 921.504 973.032 963.978C949.632 983.046 924.15 1002.44 896.286 1020.01L897.192 1020Z" fill="url(#paint10_radial_117_1347)"/>
<path d="M320.202 969.768L329.58 974.268C361.884 989.778 394.548 1005.47 427.38 1020H428.58C395.496 1005.35 362.58 989.544 329.976 973.902L320.604 969.402C304.074 961.47 286.32 953.28 267.804 945.048C201.804 915.648 143.604 894.288 89.892 879.648C60.3397 871.523 30.3202 865.206 0 860.73L0 861.102C79.026 872.502 164.814 899.748 267.444 945.42C285.93 953.646 303.678 961.842 320.202 969.768Z" fill="url(#paint11_radial_117_1347)"/>
<path d="M867.282 1020C903.078 1003.42 939.948 980.832 982.812 949.2C1039.16 907.65 1085.51 867.642 1124.51 826.902C1153.57 796.53 1182.41 763.944 1216.75 724.362C1278.32 653.436 1351.38 575.49 1440 547.53V547.008C1400.93 559.284 1362.35 581.808 1322.11 615.756C1282.93 648.834 1246.57 689.112 1216.16 724.152C1181.83 763.752 1153 796.308 1123.94 826.674C1084.94 867.396 1038.64 907.374 982.338 948.906C948.048 974.172 909.6 999.966 865.8 1020H867.282Z" fill="url(#paint12_radial_117_1347)"/>
<path d="M334.2 935.796C343.8 940.344 353.592 945.024 363.066 949.548C415.392 974.556 468.738 1000.04 522 1020H523.476C469.896 999.984 416.178 974.328 363.48 949.152C354 944.628 344.208 939.948 334.608 935.394C318.084 927.558 300.234 919.524 281.574 911.514C217.17 883.878 158.952 864.048 103.578 850.914C67.692 842.4 33.384 836.73 0 833.856V834.312C84.996 841.572 176.16 866.856 281.172 911.922C299.826 919.926 317.664 927.96 334.2 935.796Z" fill="url(#paint13_radial_117_1347)"/>
<path d="M803.622 1020C826.497 1015.24 848.923 1008.52 870.654 999.936C908.196 985.2 946.8 964.314 992.112 934.2C1051.31 894.87 1099.17 856.8 1138.42 817.746C1166.16 790.146 1195.85 757.842 1231.84 716.076C1296.77 640.734 1361.64 570.6 1440 539.58V538.98C1361.32 570 1296.29 640.302 1231.2 715.8C1195.2 757.56 1165.54 789.852 1137.8 817.434C1098.59 856.434 1050.77 894.504 991.602 933.834C936.486 970.434 875.652 1005.19 801.108 1020H803.622Z" fill="url(#paint14_radial_117_1347)"/>
<path d="M348.162 901.8C363.678 909.072 379.512 916.644 394.83 924C476.076 962.856 559.932 1002.95 641.328 1020H643.98C561.936 1003.25 477.27 962.784 395.256 923.562C379.944 916.236 364.104 908.664 348.588 901.362C331.992 893.562 314.064 885.708 295.284 877.962C188.214 833.694 91.008 810.762 0 808.362V808.878C90.876 811.278 187.95 834.186 294.9 878.4C313.662 886.2 331.584 894.048 348.162 901.8Z" fill="url(#paint15_radial_117_1347)"/>
<path d="M1440 532.05C1409.54 546.756 1378.85 568.65 1346.7 598.65C1313.35 629.73 1282.76 664.842 1246.25 707.514C1212.2 747.3 1181.27 780.258 1151.69 808.272C1111.83 846.018 1062.5 882.168 1000.9 918.792C904.434 976.134 830.358 999.288 745.218 998.718C715.122 998.514 690.156 996.192 666.66 991.404C587.46 975.276 505.17 935.664 425.592 897.348C404.934 887.406 383.592 877.122 362.592 867.408C345.912 859.686 327.894 851.964 309.024 844.458C247.824 820.098 187.866 802.896 130.902 793.32C86.4 785.814 42.528 782.802 0 784.266V784.776C96.948 781.254 198.378 801.06 308.622 844.914C327.474 852.414 345.486 860.13 362.148 867.846C383.112 877.554 404.478 887.838 425.148 897.786C504.78 936.12 587.148 975.786 666.438 991.914C690.006 996.714 715.038 999.042 745.212 999.246C791.034 999.552 834.78 992.49 878.952 977.646C916.788 964.938 955.704 946.356 1001.42 919.176C1063.08 882.528 1112.42 846.342 1152.34 808.56C1181.94 780.534 1212.88 747.564 1246.94 707.76C1305.64 639.162 1366.2 568.422 1440 532.71V532.05Z" fill="url(#paint16_radial_117_1347)"/>
<path d="M1440 526.296C1377.27 562.536 1324.57 624.606 1269.16 689.886L1261.28 699.162C1228.59 737.64 1196.38 771.24 1165.57 799.032C1124.77 835.842 1073.93 870.078 1010.2 903.696C914.928 953.952 838.35 973.794 754.152 970.05C723.99 968.712 699.492 965.652 677.064 960.45C604.038 943.41 528.09 906.45 454.644 870.648C429.084 858.198 402.654 845.322 376.602 833.406C359.802 825.732 341.718 818.166 322.776 810.924C210.96 768.168 102.54 751.632 -0.0239868 761.598V762.198C102.36 752.226 210.642 768.738 322.326 811.446C341.25 818.682 359.346 826.236 376.104 833.904C402.138 845.814 428.568 858.684 454.104 871.104C527.592 906.9 603.588 943.914 676.704 960.978C699.204 966.228 723.768 969.3 754.008 970.644C798.94 972.754 843.918 967.6 887.208 955.38C925.434 944.7 964.656 928.422 1010.65 904.164C1074.44 870.51 1125.32 836.238 1166.18 799.386C1197.02 771.576 1229.24 737.952 1261.96 699.456L1269.84 690.174C1325.04 625.128 1377.56 563.268 1439.95 527.052L1440 526.296Z" fill="url(#paint17_radial_117_1347)"/>
<path d="M1440 522C1387.87 557.646 1342.8 611.448 1295.63 667.854C1289.23 675.486 1282.79 683.154 1276.33 690.858C1244.24 728.874 1211.65 762.174 1179.44 789.858C1137.44 825.948 1085.11 858.258 1019.5 888.666C924.42 932.712 847.734 948.498 763.086 941.466C732.45 938.916 709.134 935.226 687.486 929.508C620.226 911.748 550.26 877.116 482.592 843.618C452.52 828.732 421.422 813.342 390.624 799.422C373.734 791.79 355.536 784.386 336.528 777.408C221.688 735.204 108.552 722.79 0 740.346V741C108.396 723.432 221.4 735.822 336.078 777.924C355.062 784.89 373.242 792.288 390.078 799.914C420.858 813.822 451.95 829.212 482.016 844.092C549.726 877.608 619.74 912.27 687.108 930.054C708.834 935.79 732.222 939.492 762.93 942.054C808.416 945.84 851.808 942.93 895.59 933.156C934.302 924.516 973.818 910.536 1019.96 889.158C1085.65 858.732 1138.04 826.368 1180.11 790.224C1212.35 762.534 1244.96 729.204 1277.08 691.158C1283.56 683.466 1290 675.798 1296.38 668.154C1343.4 612 1388.22 558.432 1440 522.846V522Z" fill="url(#paint18_radial_117_1347)"/>
<path d="M1440 519.252C1397.69 553.098 1360.07 598.956 1320.82 646.842C1311.25 658.512 1301.36 670.572 1291.37 682.5C1259.75 720.228 1226.77 753.234 1193.32 780.6C1149.91 816.12 1096.12 846.528 1028.8 873.546C934.17 911.55 857.382 923.28 772.032 912.768C751.38 910.224 724.284 906.306 697.884 898.494C636.048 880.194 574.596 849.15 509.538 816.294C475.302 799.002 439.902 781.116 404.616 765.372C387.606 757.782 369.318 750.534 350.256 743.826C232.806 702.498 115.314 694.626 1.05607 720.426L0.0180664 720.672V721.368L1.33207 721.062C115.332 695.328 232.608 703.194 349.83 744.462C368.862 751.158 387.12 758.394 404.106 765.972C439.368 781.71 474.756 799.572 508.98 816.876C574.086 849.762 635.58 880.83 697.512 899.154C723.996 906.996 751.158 910.926 771.858 913.476C857.454 924.018 934.458 912.276 1029.29 874.17C1096.68 847.11 1150.58 816.66 1194.07 781.074C1227.55 753.678 1260.56 720.642 1292.21 682.878C1302.2 670.944 1312.1 658.878 1321.66 647.214C1360.66 599.628 1398.07 554.04 1440.02 520.296L1440 519.252Z" fill="url(#paint19_radial_117_1347)"/>
<path d="M1440 518.4C1406.8 549.156 1376.4 587.208 1344.82 626.748C1332.42 642.276 1319.62 658.338 1306.42 674.196C1275.19 711.744 1241.81 744.45 1207.22 771.396C1162.22 806.442 1106.95 834.93 1038.14 858.486C944.196 890.646 867.294 898.32 780.99 884.142C759.054 880.542 733.26 875.742 708.312 867.54C651.6 848.886 595.266 819.732 535.626 788.868C497.55 769.158 458.178 748.782 418.626 731.364C401.49 723.816 383.106 716.724 364.026 710.286C248.49 671.4 131.4 667.266 15.882 698.07C10.578 699.49 5.284 701 0 702.6V703.356C5.376 701.724 10.776 700.18 16.2 698.724C131.4 667.992 248.268 672.09 363.516 710.904C382.596 717.33 400.938 724.41 418.044 731.946C457.548 749.346 496.908 769.746 534.966 789.42C594.648 820.302 651.018 849.474 707.82 868.164C732.852 876.396 758.706 881.202 780.696 884.814C867.246 899.028 944.352 891.342 1038.52 859.104C1107.46 835.5 1162.87 806.958 1207.93 771.84C1242.56 744.84 1275.98 712.098 1307.26 674.508C1320.46 658.644 1333.28 642.582 1345.66 627.054C1377 587.856 1407.16 550.128 1440 519.54V518.4Z" fill="url(#paint20_radial_117_1347)"/>
<path d="M1440 519.6C1415.24 545.916 1391.87 576.12 1367.74 607.32C1352.9 626.52 1337.57 646.32 1321.45 665.844C1290.52 703.278 1256.76 735.69 1221.08 762.174C1175.07 796.332 1116.65 823.662 1047.43 843.408C954.39 869.958 877.38 873.57 789.918 855.498C766.896 850.746 742.338 845.16 718.71 836.574C666.858 817.74 615.396 790.374 560.91 761.37C519.276 739.218 476.226 716.316 432.63 697.356C415.362 689.838 396.894 682.902 377.736 676.74C263.886 640.092 147.132 639.762 30.72 675.756C20.38 678.956 10.14 682.484 0 686.34V687.186C10.272 683.27 20.652 679.686 31.14 676.434C147.252 640.536 263.706 640.866 377.274 677.418C396.384 683.568 414.816 690.492 432.054 697.986C475.602 716.928 518.634 739.824 560.25 761.964C614.772 790.974 666.27 818.364 718.2 837.24C741.906 845.85 766.524 851.448 789.6 856.218C834.954 865.584 877.896 868.986 920.88 866.616C960.942 864.402 1002.48 857.016 1047.83 844.098C1117.19 824.298 1175.74 796.914 1221.86 762.672C1257.59 736.146 1291.41 703.692 1322.37 666.204C1338.51 646.674 1353.85 626.838 1368.68 607.662C1392.51 576.846 1415.6 547.008 1440.01 520.944L1440 519.6Z" fill="url(#paint21_radial_117_1347)"/>
<path d="M1440 523.2C1423.01 543.672 1406.51 565.8 1389.6 588.522C1372.69 611.244 1355.3 634.584 1336.48 657.522C1305.85 694.884 1271.68 726.996 1234.97 752.958C1187.18 786.744 1127.22 812.106 1056.77 828.342C966.012 849.252 886.476 848.796 798.876 826.872C777.474 821.514 752.676 815.01 729.138 805.626C681.924 786.786 635.106 761.094 585.546 733.896C540.6 709.2 494.13 683.73 446.64 663.342C428.625 655.647 410.211 648.923 391.476 643.2C279 608.658 162.6 612.102 45.558 653.43C30.294 658.8 15.072 665.04 0 672V672.912C15.132 665.916 30.482 659.66 46.05 654.144C162.792 612.93 278.85 609.492 391.008 643.944C409.695 649.66 428.063 656.369 446.034 664.044C493.47 684.408 539.916 709.896 584.826 734.538C634.422 761.754 681.27 787.464 728.55 806.328C752.154 815.748 777.018 822.264 798.468 827.634C886.314 849.618 966.078 850.074 1057.07 829.11C1127.71 812.832 1187.83 787.404 1235.74 753.51C1272.53 727.494 1306.75 695.31 1337.44 657.906C1356.26 634.944 1373.71 611.52 1390.58 588.87C1407.16 566.598 1423.34 544.872 1439.98 524.748L1440 523.2Z" fill="url(#paint22_radial_117_1347)"/>
<path d="M1440 529.356C1430.17 542.556 1420.4 556.266 1410.47 570.192C1391.96 596.172 1372.81 623.028 1351.52 649.182C1321.14 686.508 1286.6 718.32 1248.85 743.73C1199.2 777.156 1137.7 800.55 1066.09 813.258C976.488 829.152 896.832 824.52 807.816 798.258C785.514 791.658 761.868 784.422 739.542 774.684C696.768 756.03 654.396 731.976 609.54 706.506C561.54 679.254 511.896 651.078 460.644 629.358C442.563 621.736 424.056 615.167 405.216 609.684C293.862 577.128 177.846 584.346 60.396 631.14C39.7252 639.408 19.5584 648.885 0 659.52L0 660.426C19.7479 649.706 40.1045 640.148 60.966 631.8C178.074 585.144 293.766 577.938 404.736 610.392C423.526 615.861 441.983 622.414 460.014 630.018C511.2 651.702 560.814 679.866 608.778 707.1C653.67 732.582 696.066 756.654 738.9 775.332C761.298 785.1 784.992 792.366 807.336 798.966C896.604 825.33 976.488 829.974 1066.35 814.032C1138.18 801.288 1199.85 777.828 1249.66 744.294C1287.46 718.83 1322.11 686.952 1352.54 649.554C1373.84 623.382 1393 596.514 1411.53 570.528C1421.1 557.1 1430.53 543.888 1440 531.108V529.356Z" fill="url(#paint23_radial_117_1347)"/>
<path d="M1440 538.2C1436.8 542.872 1433.6 547.576 1430.4 552.312C1410.6 581.52 1390.1 611.712 1366.55 640.86C1336.4 678.18 1301.47 709.692 1262.75 734.52C1211.87 767.13 1147.1 789.12 1075.43 798.198C987.042 809.358 907.272 800.544 816.786 769.608C792.822 761.412 771.252 753.81 749.976 743.712C711.462 725.424 673.356 702.978 632.976 679.212C582.12 649.254 529.536 618.282 474.642 595.338C456.493 587.787 437.891 581.374 418.944 576.138C308.478 545.4 192.834 556.416 75.234 608.79C49.2458 620.428 24.1061 633.875 0 649.032L0 650.172C24.3018 634.843 49.6593 621.255 75.882 609.51C193.122 557.31 308.388 546.33 418.482 576.912C437.368 582.136 455.91 588.533 474 596.064C528.816 618.972 581.364 649.926 632.178 679.86C672.552 703.638 710.688 726.102 749.25 744.408C770.592 754.542 792.198 762.162 816.204 770.364C906.942 801.384 986.94 810.228 1075.61 799.032C1147.51 789.954 1212.5 767.832 1263.56 735.138C1302.4 710.244 1337.42 678.66 1367.63 641.262C1391.2 612.084 1411.7 581.862 1431.52 552.654C1434.36 548.466 1437.19 544.306 1440 540.174V538.2Z" fill="url(#paint24_radial_117_1347)"/>
<path d="M1440 549.45C1422.13 577.158 1403.36 605.376 1381.6 632.52C1351.67 669.852 1316.35 701.064 1276.6 725.292C1209.8 766.032 1135.39 779.226 1084.73 783.114C997.53 789.816 917.64 776.82 825.702 740.964C805.35 733.026 782.286 724.032 760.356 712.764C725.952 695.046 691.956 674.202 655.956 652.134C602.448 619.344 547.122 585.438 488.67 561.342C470.45 553.858 451.753 547.594 432.702 542.592C374.946 527.388 314.802 524.328 253.944 533.496C199.944 541.638 144.798 559.47 90.078 586.5C59.628 601.512 29.4 619.842 0 640.866V642.138C29.622 620.886 60.102 602.364 90.798 587.202C207.942 529.338 322.812 514.602 432.198 543.402C451.192 548.381 469.833 554.619 487.998 562.074C546.348 586.134 601.632 620.016 655.092 652.776C691.092 674.856 725.16 695.712 759.606 713.454C781.596 724.776 804.702 733.788 825.084 741.738C917.268 777.684 997.386 790.716 1084.88 783.996C1135.73 780.09 1210.42 766.848 1277.48 725.946C1317.32 701.652 1352.74 670.356 1382.75 632.946C1404.06 606.36 1422.49 578.76 1440.02 551.616L1440 549.45Z" fill="url(#paint25_radial_117_1347)"/>
<path d="M1440 562.506C1426.76 583.338 1412.62 604.11 1396.64 624.192C1367.32 661.19 1331.32 692.356 1290.51 716.07C1221.11 756.336 1145.39 766.56 1094.09 768.048C1007.99 770.55 927.99 753.366 834.672 712.338C813.588 703.068 791.784 693.48 770.796 681.786C740.352 664.83 710.286 645.612 678.456 625.266C622.476 589.488 564.588 552.486 502.656 527.304C484.359 519.892 465.56 513.785 446.4 509.028C388.71 494.664 328.53 493.158 267.522 504.552C213.84 514.584 159.12 534.636 104.88 564.162C69.492 583.434 34.26 607.2 0 634.716V636.126C34.518 608.334 70.026 584.322 105.714 564.894C222.558 501.294 337.026 482.79 445.944 509.91C465.025 514.65 483.745 520.735 501.966 528.12C563.766 553.248 621.606 590.214 677.538 625.962C709.38 646.32 739.464 665.562 769.938 682.524C790.98 694.242 812.814 703.848 833.934 713.124C927.486 754.26 1007.73 771.486 1094.11 768.978C1145.62 767.484 1221.66 757.212 1291.35 716.778C1332.29 692.992 1368.4 661.733 1397.81 624.624C1413.31 605.136 1427.09 585.024 1439.99 564.798L1440 562.506Z" fill="url(#paint26_radial_117_1347)"/>
<path d="M1440 576.306C1431.22 589.71 1421.87 602.958 1411.68 615.858C1382.37 653.065 1345.89 684.008 1304.4 706.854C1232.35 746.604 1155.34 753.882 1103.4 752.982C1018.28 751.512 938.154 730.146 843.6 683.712L843.06 683.448C822.6 673.398 801.438 663.006 781.188 650.832C754.566 634.842 728.31 617.292 700.506 598.71C642.234 559.764 581.97 519.51 516.636 493.302C498.273 485.957 479.384 480.002 460.128 475.488C402.468 461.952 342.24 462 281.118 475.632C227.718 487.542 173.388 509.832 119.718 541.848C79.752 565.704 39.6 595.68 0 631.002V632.556C39.87 596.874 80.352 566.61 120.63 542.556C237 473.172 351.048 450.906 459.684 476.4C478.857 480.893 497.666 486.82 515.952 494.13C581.142 520.266 641.352 560.502 699.552 599.406C727.368 618.006 753.636 635.556 780.282 651.564C800.586 663.762 821.772 674.172 842.262 684.234L842.802 684.498C937.602 731.052 1017.95 752.466 1103.36 753.948C1155.5 754.848 1232.86 747.534 1305.25 707.598C1346.88 684.679 1383.48 653.633 1412.89 616.302C1422.62 603.99 1431.56 591.378 1439.99 578.616L1440 576.306Z" fill="url(#paint27_radial_117_1347)"/>
<path d="M1440 589.632C1435.74 595.632 1431.34 601.632 1426.72 607.53C1397.41 644.948 1360.44 675.668 1318.29 697.632C1259.95 728.232 1186.96 742.53 1112.77 737.922C1028.44 732.678 948.192 707.136 852.582 655.086L852.162 654.852C832.134 643.956 811.428 632.652 791.634 619.884C768.72 605.064 746.136 589.248 722.232 572.484C661.8 530.19 599.358 486.432 530.676 459.288C512.236 452.016 493.249 446.217 473.892 441.948C416.238 429.228 355.962 430.824 294.732 446.7C241.512 460.5 187.626 485.004 134.574 519.534C90.414 548.274 45.78 584.772 0 629.64V631.368C46.128 586.032 91.086 549.204 135.552 520.266C215.07 468.51 338.238 413.082 473.4 442.914C492.672 447.17 511.575 452.95 529.932 460.2C598.458 487.278 660.852 531 721.188 573.252C745.104 590.004 767.694 605.826 790.632 620.652C810.468 633.48 831.204 644.766 851.232 655.68L851.658 655.914C947.49 708.084 1027.96 733.692 1112.59 738.954C1187.15 743.586 1260.5 729.204 1319.13 698.454C1361.45 676.409 1398.57 645.567 1428 607.998C1432.16 602.698 1436.16 597.334 1440 591.906V589.632Z" fill="url(#paint28_radial_117_1347)"/>
<path d="M1440 601.398C1411.12 637.866 1374.88 667.146 1332.18 688.398C1271.68 718.53 1197.08 730.764 1122.11 722.85C1038.34 714 957.972 684.27 861.54 626.448C842.862 615.252 821.694 602.562 802.056 588.918C782.724 575.496 763.698 561.492 743.556 546.672C681.156 500.772 616.68 453.306 544.68 425.274C526.164 418.067 507.077 412.422 487.62 408.396C351.63 380.292 228.636 441.186 149.406 497.196C96.198 534.852 46.32 581.4 0 630.426V632.316C46.626 582.882 96.858 535.86 150.468 497.952C229.404 442.152 351.894 381.462 487.164 409.41C506.517 413.419 525.501 419.038 543.918 426.21C615.726 454.17 680.118 501.576 742.452 547.41C762.6 562.236 781.632 576.21 800.976 589.674C820.656 603.342 841.842 616.074 860.538 627.258C957.192 685.212 1037.78 715.014 1121.86 723.894C1197.22 731.85 1272.22 719.55 1333.06 689.25C1375.29 668.214 1411.24 639.372 1440.01 603.528L1440 601.398Z" fill="url(#paint29_radial_117_1347)"/>
<path d="M1440 610.758C1413.89 639.054 1382.4 662.016 1346.08 679.188C1283.39 708.828 1207.17 718.992 1131.46 707.802C1047.98 695.466 967.494 661.554 870.492 597.84C849.654 584.154 830.892 571.71 812.478 557.982C796.62 546.174 780.306 533.532 764.526 521.31C700.326 471.582 633.96 420.156 558.684 391.272C540.09 384.139 520.906 378.648 501.354 374.862C365.04 348.6 242.79 414.768 164.238 474.918C105.708 519.732 51.738 575.34 0 633.372V635.4C52.098 576.9 106.44 520.8 165.384 475.638C243.636 415.722 365.364 349.8 500.904 375.912C520.345 379.673 539.418 385.134 557.904 392.232C632.958 421.032 699.246 472.38 763.356 522.048C779.136 534.27 795.456 546.918 811.32 558.732C829.788 572.484 848.52 584.94 869.406 598.638C966.606 662.49 1047.33 696.486 1131.1 708.864C1207.23 720.114 1283.88 709.896 1346.93 680.064C1382.84 663.09 1414.03 640.464 1440 612.708V610.758Z" fill="url(#paint30_radial_117_1347)"/>
<path d="M1440 617.538C1417.04 638.808 1390.27 656.376 1359.97 669.966C1295.06 699.072 1217.23 707.166 1140.8 692.766C1057.36 677.022 976.746 638.928 879.444 569.244C862.146 556.854 842.088 542.358 822.9 527.058C810.54 517.2 797.844 506.832 785.568 496.806C719.568 442.884 651.306 387.132 572.682 357.288C554.006 350.237 534.726 344.901 515.082 341.346C457.296 331.002 396.84 337.26 335.4 359.946C282.444 379.494 229.842 410.682 179.076 452.646C114.6 505.926 56.268 572.502 0 637.8V639.96C56.664 574.2 115.356 507 180.3 453.318C257.772 389.292 378.66 318.072 514.644 342.414C534.166 345.944 553.326 351.248 571.884 358.26C650.25 388.002 718.41 443.676 784.326 497.52C796.608 507.552 809.304 517.92 821.67 527.784C840.87 543.102 860.958 557.616 878.274 570.012C975.78 639.846 1056.61 678.012 1140.35 693.828C1217.22 708.336 1295.53 700.194 1360.82 670.908C1390.73 657.498 1417.22 640.23 1440.02 619.38L1440 617.538Z" fill="url(#paint31_radial_117_1347)"/>
<path d="M1440 621.906C1419.78 637.734 1397.54 650.795 1373.87 660.744C1307.69 688.866 1226.15 695.04 1150.15 677.688C1066.45 658.578 985.746 616.296 888.396 540.6C865.776 523.002 848.796 509.274 833.316 496.086C824.196 488.286 814.848 480.228 805.8 472.41C738.324 414.102 668.55 353.808 586.686 323.256C567.933 316.264 548.552 311.088 528.81 307.8C471 298.146 410.472 305.934 348.96 330.924C296.004 352.434 243.84 385.866 193.908 430.296C137.622 480.39 86.826 540.474 37.698 598.578C25.308 613.23 12.744 628.08 0 642.888V645.126C13.236 629.76 26.28 614.352 39.132 599.148C88.23 541.08 139.002 481.032 195.222 431.004C258 375.132 384.762 285 528.39 308.916C547.999 312.185 567.247 317.333 585.87 324.288C667.47 354.732 737.112 414.936 804.486 473.154C813.534 480.954 822.888 489.054 832.014 496.836C847.5 510.036 864.504 523.776 887.142 541.386C984.666 617.238 1065.61 659.622 1149.59 678.786C1226.06 696.246 1308.12 690.024 1374.71 661.722C1398.04 651.922 1419.98 639.124 1440 623.652V621.906Z" fill="url(#paint32_radial_117_1347)"/>
<path d="M1440 624.102C1423.57 635.003 1406.07 644.191 1387.76 651.522C1319.24 679.008 1236.04 683.058 1159.49 662.634C1051.56 633.834 962.688 566.994 897.348 511.98C878.292 495.936 860.256 480.18 843.738 465.138C837.738 459.662 831.698 454.14 825.618 448.572C756.852 385.572 685.746 320.454 600.69 289.248C581.855 282.32 562.374 277.295 542.538 274.248C397.05 252.066 270.96 348.522 208.746 408C160.962 453.678 117.84 506.358 76.146 557.31C51.546 587.37 26.346 618.114 0.0120239 647.724V649.992C26.916 619.86 52.572 588.51 77.64 557.886C119.322 506.964 162.42 454.314 210.15 408.69C272.094 349.458 397.614 253.386 542.136 275.4C561.827 278.431 581.165 283.424 599.862 290.304C684.588 321.384 755.58 386.412 824.262 449.304C830.326 454.86 836.366 460.382 842.382 465.87C858.912 480.918 876.96 496.692 896.034 512.742C961.518 567.87 1050.57 634.848 1158.86 663.744C1235.9 684.3 1319.66 680.22 1388.63 652.548C1406.61 645.343 1423.82 636.365 1440.02 625.746L1440 624.102Z" fill="url(#paint33_radial_117_1347)"/>
<path d="M1440 624.6C1356.92 671.232 1250.4 672.366 1168.83 647.562C1047.25 610.578 945.738 523.146 854.16 434.172L845.046 425.31C759.846 342.384 671.706 256.638 556.266 240.678C498.18 232.65 437.52 243.558 375.972 273.078C323.616 298.212 270.918 337.14 223.572 385.644C182.172 428.058 144.912 475.512 108.876 521.4C74.526 565.2 39.15 610.2 0 651.126V653.352C39.78 611.952 75.63 566.352 110.448 522.018C146.448 476.154 183.708 428.73 225.048 386.364C272.262 337.986 324.792 299.184 376.962 274.134C438.09 244.794 498.288 233.934 555.876 241.914C670.65 257.784 758.562 343.314 843.588 426.06L852.702 434.928C944.43 524.04 1046.12 611.616 1168.09 648.72C1230.49 667.704 1298.89 670.32 1360.6 656.07C1389.55 649.392 1416.16 639.27 1440 626.028V624.6Z" fill="url(#paint34_radial_117_1347)"/>
<path d="M1440 596.274C1355.62 646.272 1243.93 647.79 1159.75 622.542C1100.4 604.8 1041.08 574.446 978.396 529.8C927.474 493.698 880.11 451.974 844.53 419.652L834.846 410.838C795.348 374.874 754.512 337.686 710.436 307.038C654.522 267.864 601.386 245.628 547.986 239.064C480.138 230.664 408.984 247.398 336.492 288.744C294.888 312.402 254.4 343.2 216.132 380.286C174.462 420.6 136.71 465.444 100.2 508.8C68.292 546.714 35.52 585.6 0 621.6V623.766C36.114 587.328 69.366 547.866 101.736 509.4C138.222 466.062 175.95 421.254 217.572 381C255.738 343.986 296.124 313.284 337.572 289.734C409.632 248.628 480.3 232.002 547.608 240.324C600.636 246.84 653.472 268.968 709.128 307.962C753.126 338.562 793.932 375.696 833.388 411.63L843.078 420.444C878.682 452.79 926.094 494.556 977.076 530.7C1039.93 575.436 1099.43 605.85 1158.98 623.7C1220.86 642.252 1288.53 645.3 1349.54 632.298C1382.95 625.176 1413.34 613.554 1439.97 597.894L1440 596.274Z" fill="url(#paint35_radial_117_1347)"/>
<path d="M1440 568.428C1355.26 622.05 1240.34 624.012 1150.67 597.51C1092.03 580.224 1032.72 551.13 969.348 508.56C918.654 474.774 872.934 437.328 834.9 405.162L827.49 398.88C787.2 364.716 745.494 329.4 700.854 300.258C643.986 263.136 592.782 243.198 539.706 237.51C473.106 230.268 402.474 246.894 329.85 286.926C287.964 310.014 247.2 339.6 208.68 374.892C166.836 413.058 128.694 455.226 91.8 496.002C62.334 528.6 32.154 561.936 0 593.304V595.404C32.724 563.604 63.384 529.734 93.312 496.65C130.176 455.892 168.312 413.754 210.09 375.63C248.49 340.434 289.17 310.914 330.936 287.892C403.146 248.088 473.28 231.552 539.4 238.734C592.11 244.386 643.026 264.228 699.6 301.17C744.156 330.252 785.802 365.55 826.074 399.678L833.49 405.96C871.56 438.156 917.316 475.632 968.076 509.466C1031.6 552.132 1091.08 581.304 1149.92 598.65C1211.24 616.776 1278.22 620.25 1338.51 608.496C1376.51 601.074 1410.71 587.952 1439.98 569.784L1440 568.428Z" fill="url(#paint36_radial_117_1347)"/>
<path d="M1440 540.228C1354.39 597.18 1234.07 599.394 1141.6 572.472C1083.65 555.672 1026.04 528.606 960.306 487.272C908.106 454.452 860.706 418.374 825.27 390.612L819.192 385.812C778.392 353.784 736.218 320.664 691.278 293.412C634.488 258.936 583.692 240.654 531.426 235.884C465.894 229.764 395.826 246.306 323.226 285.042C281.19 307.464 240.15 335.868 201.246 369.462C159.342 405.444 120.924 444.882 83.766 483C56.694 510.798 29.052 539.172 0 566.214V568.254C29.592 540.798 57.714 511.944 85.23 483.696C122.364 445.584 160.764 406.2 202.608 370.26C241.422 336.738 282.36 308.4 324.276 286.05C396.504 247.524 466.11 231.072 531.156 237.144C583.068 241.878 633.57 260.07 690.09 294.384C734.946 321.618 777.09 354.708 817.848 386.706L823.926 391.506C859.392 419.292 906.81 455.406 959.1 488.262C1024.98 529.662 1082.74 556.788 1140.9 573.648C1201.67 591.342 1267.95 595.278 1327.54 584.724C1370.26 577.164 1408.31 562.566 1440.02 541.824L1440 540.228Z" fill="url(#paint37_radial_117_1347)"/>
<path d="M1440 512.112C1363.25 565.2 1245.22 579.75 1132.51 547.434C1075.8 531.264 1018.2 505.398 951.258 466.038C898.536 435.042 851.058 401.7 815.658 376.122L811.428 373.068C770.028 343.098 727.152 312.114 681.726 286.626C624.996 254.826 574.614 238.176 523.17 234.318C458.754 229.314 389.25 245.766 316.596 283.218C274.8 304.74 233.514 331.95 193.8 364.098C152.4 397.566 114.132 433.92 77.112 469.074C52.062 492.858 26.532 517.092 0 540.438V542.4C27.054 518.664 53.04 493.986 78.54 469.8C115.542 434.664 153.804 398.334 195.12 364.896C234.762 332.82 276 305.67 317.616 284.208C389.886 246.954 458.958 230.58 522.912 235.554C574.014 239.382 624.108 255.954 680.562 287.598C725.91 313.038 768.714 343.998 810.108 373.938L814.308 376.998C849.786 402.594 897.282 435.96 950.064 466.998C1017.16 506.442 1074.86 532.368 1131.77 548.598C1192 565.86 1257.58 570.228 1316.46 560.898C1364.03 553.362 1406.01 537.342 1439.97 513.978L1440 512.112Z" fill="url(#paint38_radial_117_1347)"/>
<path d="M1440 484.608C1363.24 540.84 1242.16 555.894 1123.43 522.408C1067.42 506.7 1011.53 482.76 942.234 444.78C900.708 422.022 858.696 396.372 806.034 361.614L804.384 360.516C762.084 332.526 718.35 303.582 672.156 279.81C615.6 250.734 565.65 235.8 514.866 232.722C451.392 228.912 382.446 245.274 309.936 281.364C268.164 302.148 226.578 328.164 186.336 358.698C145.422 389.736 107.304 423.138 70.446 455.442C46.68 476.268 23.55 496.524 0 516V517.908C24.03 498.108 47.598 477.438 71.832 456.204C108.672 423.918 146.766 390.534 187.632 359.532C227.79 329.07 269.28 303.132 310.95 282.372C383.1 246.462 451.638 230.172 514.674 233.964C565.122 236.994 614.808 251.88 671.034 280.812C717.138 304.536 760.836 333.456 803.094 361.422L804.75 362.52C857.466 397.32 899.55 422.982 941.094 445.758C1010.54 483.816 1066.57 507.81 1122.74 523.554C1182.4 540.39 1247.3 545.19 1305.48 537.078C1358.06 529.74 1404.02 512.352 1440 486.378V484.608Z" fill="url(#paint39_radial_117_1347)"/>
<path d="M1440 457.296C1363.92 515.688 1237.37 531.504 1114.36 497.364C1044.89 478.23 981.03 447.846 933.156 423.51C891.21 402.186 849.018 378.618 796.356 347.088C755.802 322.722 709.842 295.11 662.556 272.988C606.156 246.588 556.578 233.298 506.616 231.132C444.27 228.42 375.876 244.698 303.33 279.504C261.54 299.556 219.684 324.384 178.92 353.304C138.756 381.798 101.088 412.158 64.656 441.504C42.81 459.09 21.51 476.256 0 492.828V494.664C21.966 477.768 43.698 460.254 65.964 442.308C102.372 412.962 140.022 382.626 180.15 354.156C220.83 325.302 262.596 300.522 304.29 280.524C376.488 245.88 444.498 229.68 506.43 232.368C556.074 234.522 605.352 247.758 661.512 274.02C708.732 296.106 754.656 323.688 795.168 348.03C847.878 379.584 890.106 403.176 932.094 424.518C980.046 448.896 1044.02 479.334 1113.67 498.516C1236.67 532.656 1363.27 517.08 1440 459.114V457.296Z" fill="url(#paint40_radial_117_1347)"/>
<path d="M1440 430.506C1438.38 431.766 1436.72 433.044 1434.98 434.352C1359.38 491.448 1229.97 506.352 1105.28 472.326C1039.28 454.482 979.212 428.1 924.114 402.252C881.706 382.356 839.328 360.852 786.714 332.568C740.238 307.464 698.094 285.168 652.95 266.172C596.55 242.478 547.434 230.838 498.312 229.536C436.272 227.898 370.314 243.636 296.676 277.65C254.874 296.958 212.748 320.592 171.456 347.904C132.456 373.704 95.58 400.92 59.946 427.23C39.702 442.2 19.89 456.798 0 471V472.746C20.322 458.28 40.548 443.346 61.2 428.094C96.816 401.796 133.65 374.604 172.638 348.816C213.87 321.534 255.918 297.942 297.6 278.676C370.938 244.8 436.542 229.146 498.192 230.778C547.002 232.068 595.878 243.654 651.99 267.234C697.056 286.17 739.158 308.472 785.592 333.552C838.248 361.866 880.656 383.352 923.094 403.284C978.294 429.168 1038.46 455.592 1104.6 473.484C1164 489.684 1225.86 495.198 1283.51 489.408C1344.61 483.276 1397.44 464.526 1436.29 435.186L1440 432.348V430.506Z" fill="url(#paint41_radial_117_1347)"/>
<path d="M1440 404.928C1435.15 408.528 1429.7 412.41 1423.29 416.748C1346.17 469.002 1220.84 480.708 1096.2 447.288C1031.02 429.984 970.974 405.048 915.06 380.988C872.652 362.736 828.798 342.738 777.06 318.042C735.09 297.912 690.198 276.798 643.35 259.35C586.206 238.074 538.95 228.39 490.026 227.946C429.204 227.388 363.786 243.042 290.034 275.796C248.238 294.354 205.836 316.8 164.034 342.504C126.654 365.46 91.14 389.4 56.79 412.506C37.62 425.4 18.816 438.072 0 450.39V452.07C19.2 439.5 38.43 426.6 58.014 413.4C92.346 390.282 127.848 366.372 165.168 343.434C206.922 317.778 249.246 295.374 290.964 276.834C364.404 244.2 429.498 228.636 489.954 229.2C538.554 229.644 585.594 239.286 642.474 260.466C689.274 277.866 734.094 298.974 776.022 319.092C827.796 343.794 871.668 363.804 914.1 382.092C970.086 406.182 1030.21 431.154 1095.53 448.5C1154.36 464.268 1215.58 470.19 1272.53 465.618C1332.8 460.776 1385.33 444.198 1424.5 417.672C1430.36 413.7 1435.43 410.13 1439.98 406.77L1440 404.928Z" fill="url(#paint42_radial_117_1347)"/>
<path d="M1440 380.724C1430.97 387.324 1421.02 393.48 1411.6 399.138C1334.16 445.704 1209.83 454.56 1087.12 422.256C1022.87 405.522 963.462 382.236 906.006 359.724C862.596 342.714 818.55 324.858 767.406 303.522C725.67 286.008 680.586 267.708 633.756 252.522C576.6 234 529.698 225.936 481.74 226.35C422.196 226.866 357.318 242.43 283.392 273.942C239.952 292.573 197.607 313.661 156.564 337.104C121.638 357 88.2 377.43 55.8 397.2C36.966 408.714 18.456 420.03 0 431.046V432.66C18.858 421.422 37.746 409.86 57 398.124C89.352 378.324 122.796 357.924 157.698 338.046C198.667 314.639 240.936 293.583 284.298 274.98C357.936 243.594 422.514 228.09 481.698 227.58C529.386 227.166 576.03 235.206 632.946 253.65C679.704 268.8 724.746 287.082 766.434 304.578C817.608 325.914 861.66 343.782 905.082 360.792C962.598 383.334 1022.08 406.638 1086.44 423.402C1209.76 455.868 1334.78 446.928 1412.74 400.062C1421.74 394.662 1431.24 388.77 1439.98 382.47L1440 380.724Z" fill="url(#paint43_radial_117_1347)"/>
<path d="M1440 358.08C1436.36 360.532 1432.64 362.952 1428.86 365.34C1420.13 370.83 1410.59 375.918 1399.92 381.54C1322.21 422.436 1198.88 428.448 1078.04 397.224C1021.82 382.866 968.508 363.906 916.938 345.564L896.946 338.466C845.01 320.094 799.476 303.918 757.746 289.008C721.89 276.108 674.31 259.53 624.156 245.724C585.6 235.11 533.664 223.146 473.454 224.76C415.254 226.314 350.934 241.794 276.756 272.082C235.056 289.11 192.114 309.168 149.13 331.704C117.726 348.168 87.384 364.92 58.044 381.12C38.46 391.932 19.2 402.564 0 412.914V414.468C19.56 403.932 39.174 393.102 59.13 382.068C88.464 365.868 118.794 349.128 150.18 332.67C193.104 310.164 235.98 290.136 277.632 273.132C351.546 242.952 415.632 227.532 473.484 225.978C533.364 224.376 585.084 236.292 623.454 246.852C673.536 260.652 721.074 277.2 756.894 290.088C798.636 304.998 844.176 321.18 896.094 339.552C902.73 341.9 909.392 344.266 916.08 346.65C967.68 365.004 1021.08 383.982 1077.37 398.364C1198.77 429.732 1322.77 423.654 1400.96 382.5C1411.66 376.866 1421.24 371.754 1430.02 366.234C1433.4 364.104 1436.71 361.944 1439.98 359.754L1440 358.08Z" fill="url(#paint44_radial_117_1347)"/>
<path d="M1440 337.38C1432.8 341.7 1425.37 345.912 1417.69 349.98C1409.44 354.348 1400.68 358.308 1391.39 362.496L1388.24 363.924C1310.35 399.18 1188.01 402.324 1068.96 372.174C1020.71 360.096 974.322 345.078 929.454 330.546C915.78 326.118 901.632 321.546 887.886 317.196C835.14 300.522 787.608 286.248 748.086 274.482C698.49 259.578 656.058 248.274 614.556 238.896C575.922 230.166 524.034 220.494 465.156 223.158C407.652 225.768 345.672 240.72 270.108 270.222C228.522 286.458 185.31 305.328 141.708 326.304C115.518 338.904 89.946 351.576 65.226 363.846C43.2 374.772 21.558 385.506 0 395.922V397.422C21.894 386.844 43.86 375.948 66.222 364.854C90.936 352.59 116.496 339.912 142.68 327.324C186.264 306.372 229.428 287.526 270.966 271.308C346.284 241.908 408.018 226.998 465.246 224.406C523.788 221.748 575.466 231.39 613.95 240.084C655.404 249.45 697.782 260.742 747.336 275.628C786.87 287.388 834.39 301.662 887.136 318.33C900.876 322.674 915.018 327.252 928.692 331.68C973.59 346.218 1020.02 361.254 1068.34 373.35C1187.9 403.644 1310.85 400.434 1389.21 364.95L1392.35 363.528C1401.67 359.328 1410.46 355.35 1418.75 350.928C1426.06 347.052 1433.12 343.056 1440.01 338.928L1440 337.38Z" fill="url(#paint45_radial_117_1347)"/>
<path d="M1440 318.756C1429.2 324.276 1418.11 329.556 1406.53 334.626C1399.27 337.782 1391.67 340.626 1383.62 343.662C1381.3 344.538 1378.95 345.424 1376.57 346.32C1297.41 376.428 1179.02 376.734 1059.88 347.148C1019.57 337.266 980.334 325.638 942.378 314.4C920.466 307.908 899.778 301.8 878.826 295.938C823.974 280.65 774.966 268.686 738.426 259.938C693.246 249.042 649.584 239.922 604.956 232.056C563.76 224.802 513.954 217.878 456.912 221.544C401.028 225.144 339.576 240.006 263.52 268.344C222.156 283.8 178.674 301.446 134.256 320.91C115.98 328.92 97.902 336.948 80.4 344.706C53.22 356.778 26.55 368.604 0 380.01V381.45C26.88 369.924 53.856 357.96 81.354 345.75C98.832 337.986 116.91 329.964 135.18 321.954C179.58 302.508 223.002 284.844 264.3 269.46C340.14 241.2 401.4 226.386 457.008 222.81C513.78 219.156 563.4 226.056 604.452 233.292C649.032 241.146 692.652 250.254 737.784 261.144C774.336 269.856 823.32 281.814 878.136 297.09C899.052 302.922 919.746 309.054 941.652 315.54C979.626 326.79 1018.9 338.424 1059.25 348.318C1115.84 362.37 1174.56 369.918 1229.05 370.188C1286.2 370.458 1337.49 362.58 1377.4 347.388C1379.76 346.488 1382.11 345.588 1384.43 344.736C1392.51 341.7 1400.14 338.832 1407.44 335.658C1418.69 330.756 1429.48 325.602 1439.99 320.256L1440 318.756Z" fill="url(#paint46_radial_117_1347)"/>
<path d="M1440 302.196C1425.57 308.232 1410.84 313.938 1395.38 319.272C1388.96 321.486 1382.32 323.472 1375.28 325.584C1371.87 326.604 1368.41 327.636 1364.92 328.716C1286.14 353.064 1168.72 350.598 1050.8 322.116C1018.87 314.4 987.39 305.832 956.94 297.516C926.826 289.314 898.38 281.574 869.766 274.656C814.128 261.21 765.162 251.976 728.718 245.43C687.828 237.972 645.438 231.564 595.308 225.252C553.848 220.032 503.994 215.322 448.602 219.96C393.81 224.544 334.674 238.896 256.854 266.496C215.562 281.136 173.028 297.162 126.828 315.486L110.136 322.086C72.84 336.948 36.348 351.42 0 365.13V366.522C36.636 352.722 73.404 338.136 111 323.208L127.686 316.608C173.886 298.296 216.372 282.276 257.64 267.642C335.256 240.096 394.2 225.78 448.8 221.214C503.964 216.6 553.656 221.292 594.984 226.5C645.066 232.8 687.414 239.208 728.262 246.654C764.676 253.194 813.6 262.416 869.178 275.85C897.756 282.762 926.178 290.502 956.292 298.692C986.754 306.984 1018.25 315.564 1050.22 323.292C1168.54 351.882 1286.46 354.336 1365.64 329.892C1369.13 328.812 1372.58 327.78 1375.98 326.76C1383.04 324.648 1389.71 322.65 1396.17 320.424C1411.36 315.18 1425.85 309.582 1440.03 303.666L1440 302.196Z" fill="url(#paint47_radial_117_1347)"/>
<path d="M1440 287.646C1420.99 293.838 1402.97 299.046 1384.24 303.924C1378.52 305.4 1372.66 306.714 1366.46 308.124C1362.14 309.084 1357.73 310.074 1353.26 311.124C1274.79 329.892 1158.33 324.642 1041.73 297.078C1018.13 291.504 994.638 285.564 971.916 279.816C933.438 270.084 897.102 260.892 860.7 253.416C804.42 241.878 755.43 235.338 719.04 230.94C677.04 225.738 635.37 222.192 585.696 218.46C541.704 215.16 493.65 212.862 440.316 218.388C373.284 225.33 306.6 245.676 250.2 264.66C210.486 278.034 168.912 292.476 119.4 310.116C79.602 324.288 40.008 338.178 0 351.276V352.632C40.272 339.432 80.118 325.482 120.18 311.232C169.704 293.598 211.26 279.156 250.98 265.788C307.242 246.846 373.758 226.548 440.58 219.63C493.716 214.128 541.638 216.42 585.504 219.714C635.148 223.44 676.8 226.986 718.704 232.176C755.052 236.574 803.982 243.102 860.172 254.622C896.52 262.08 932.838 271.26 971.28 280.986C994.02 286.734 1017.53 292.68 1041.13 298.26C1158.09 325.908 1274.98 331.152 1353.82 312.3C1358.28 311.232 1362.67 310.254 1366.98 309.3C1373.2 307.908 1379.08 306.6 1384.84 305.1C1403.39 300.3 1421.23 295.122 1440.04 289.014L1440 287.646Z" fill="url(#paint48_radial_117_1347)"/>
<path d="M1440 274.878C1418.19 280.026 1396.32 284.478 1373.1 288.582C1367.98 289.482 1362.78 290.256 1357.28 291.072C1352.2 291.828 1346.95 292.608 1341.61 293.52C1263.76 306.78 1148.26 298.752 1032.65 272.04C1017.54 268.548 1002.36 264.936 987.678 261.444C940.566 250.242 896.064 239.664 851.634 232.164C807.204 224.664 763.404 219.828 709.356 216.438C669.702 213.84 631.05 212.94 590.124 211.992L576.072 211.662C534.45 210.672 485.556 210.174 432.03 216.804C368.598 224.658 303.972 243.558 243.6 262.8L208.41 274.026C174.75 284.766 142.956 294.912 111.978 304.716C71.67 317.472 34.734 328.554 0 338.286V339.6C34.938 329.82 72.108 318.672 112.674 305.838C143.658 296.034 175.452 285.888 209.112 275.142L244.296 263.922C304.572 244.722 369.096 225.84 432.3 218.01C485.658 211.41 534.438 211.902 575.97 212.892L590.028 213.216C630.924 214.17 669.552 215.064 709.152 217.662C763.116 221.046 806.916 225.888 851.178 233.358C895.44 240.828 939.978 251.418 987.066 262.608C1001.75 266.1 1016.94 269.712 1032.07 273.204C1147.98 299.988 1263.85 308.004 1342.01 294.714C1347.33 293.808 1352.57 293.028 1357.61 292.272C1363.13 291.45 1368.35 290.676 1373.5 289.77C1396.58 285.714 1418.32 281.274 1440 276.168V274.878Z" fill="url(#paint49_radial_117_1347)"/>
<path d="M1440 263.79C1416.19 267.39 1390.94 270.45 1361.97 273.24C1357.38 273.684 1352.75 274.038 1347.85 274.44C1342.07 274.878 1336.09 275.328 1329.97 275.958C1252.09 283.944 1140.41 273.402 1023.57 247.032L1004.32 242.676C948.27 229.956 895.32 217.944 842.568 210.936C797.814 204.996 753.768 202.23 699.672 201.966C666.324 201.714 634.104 202.752 600 203.856C588.942 204.21 577.8 204.57 566.448 204.888C519.912 206.202 473.976 207.978 423.744 215.244C361.944 224.178 297.6 242.736 236.958 260.982C190.758 274.878 146.22 287.79 104.538 299.382C68.478 309.336 33.798 318.246 0 326.178V327.474C33.996 319.506 68.88 310.548 105.168 300.474C146.862 288.906 191.43 275.988 237.63 262.074C298.2 243.87 362.466 225.336 424.068 216.426C474.168 209.178 520.02 207.426 566.484 206.1C577.818 205.782 588.984 205.422 600.042 205.062C634.122 203.964 666.312 202.92 699.612 203.172C753.576 203.436 797.55 206.172 842.196 212.124C894.84 219.12 947.736 231.12 1003.74 243.822C1010.14 245.274 1016.55 246.728 1022.98 248.184C1140.08 274.584 1252.05 285.168 1330.18 277.152C1336.27 276.552 1342.23 276.078 1347.99 275.64C1352.9 275.268 1357.55 274.914 1362.17 274.47C1391.05 271.686 1416.23 268.656 1439.99 265.05L1440 263.79Z" fill="url(#paint50_radial_117_1347)"/>
<path d="M1440 254.19C1411.9 256.284 1383.43 257.256 1350.84 257.916C1346.7 258 1342.48 258.018 1338.17 258.036C1331.77 258.066 1325.15 258.096 1318.32 258.342C1241.81 261.078 1131.07 247.824 1014.49 221.964C954.918 208.938 893.322 195.468 833.496 189.654C788.358 185.268 744.096 184.584 689.982 187.434C660.126 188.934 631.446 191.508 601.086 194.226C586.686 195.516 571.836 196.854 556.83 198.06L551.658 198.48C508.824 201.918 464.532 205.482 415.458 213.624C356.34 223.434 294.798 240.852 235.29 257.694L230.322 259.098C185.598 271.752 140.778 283.47 97.122 293.934C64.326 301.8 32.1 308.76 0 314.922V316.2C32.286 310.014 64.686 303 97.662 295.104C141.36 284.634 186.204 272.904 230.964 260.244L235.926 258.84C295.374 242.04 356.85 224.64 415.83 214.83C464.802 206.706 509.04 203.148 551.826 199.71L556.998 199.296C571.998 198.096 586.89 196.746 601.278 195.456C631.614 192.738 660.264 190.164 690.078 188.67C744.078 185.826 788.202 186.51 833.214 190.884C892.896 196.68 954.414 210.138 1013.92 223.146C1130.69 249.048 1241.66 262.326 1318.37 259.578C1325.16 259.338 1331.76 259.308 1338.17 259.278C1342.48 259.278 1346.72 259.236 1350.87 259.152C1383.45 258.498 1411.92 257.526 1440.02 255.438L1440 254.19Z" fill="url(#paint51_radial_117_1347)"/>
<path d="M1440 245.886C1404.24 246.006 1370.5 244.224 1339.7 242.592C1335.98 242.394 1332.2 242.154 1328.35 241.902C1321.37 241.452 1314.16 240.984 1306.67 240.762C1232.87 238.548 1125.9 222.984 1005.4 196.962C950.016 185.148 885.78 172.224 824.43 168.432C778.92 165.618 734.466 167.016 680.298 172.968C652.56 175.968 626.034 179.88 597.942 184.038C581.478 186.474 564.45 188.994 547.206 191.298C540.23 192.23 533.154 193.162 525.978 194.094C488.37 199.026 449.478 204.12 407.178 212.094C357.6 221.4 305.778 235.302 255.678 248.754C245.03 251.61 234.37 254.458 223.698 257.298C179.448 269.022 134.364 279.552 89.694 288.594C59.964 294.558 30.198 299.82 0 304.38V305.646C30.354 301.062 60.276 295.782 90.15 289.728C134.868 280.68 180 270.138 224.292 258.402C234.96 255.574 245.624 252.724 256.284 249.852C306.342 236.418 358.11 222.522 407.598 213.252C449.838 205.32 488.694 200.226 526.272 195.3C533.448 194.364 540.526 193.432 547.506 192.504C564.762 190.194 581.802 187.674 598.278 185.238C626.34 181.086 652.848 177.162 680.538 174.18C734.538 168.246 778.872 166.848 824.232 169.656C885.432 173.436 949.542 186.336 1004.83 198.132C1125.43 224.214 1232.62 239.802 1306.55 242.016C1313.99 242.238 1321.18 242.706 1328.15 243.156C1332 243.402 1335.79 243.648 1339.55 243.846C1370.39 245.484 1404.19 247.266 1440.02 247.146L1440 245.886Z" fill="url(#paint52_radial_117_1347)"/>
<path d="M1440 238.8C1403.87 236.562 1369.39 232.302 1333.42 227.862L1328.56 227.262C1325.23 226.848 1321.86 226.404 1318.45 225.954C1310.92 224.964 1303.13 223.938 1295.05 223.164C1205.15 214.638 1081.52 189.81 996.342 171.876C942 160.584 877.998 148.812 815.376 147.132C769.494 145.902 724.854 149.382 670.638 158.43C644.238 162.78 619.038 167.988 592.362 173.502C574.602 177.174 556.236 180.972 537.606 184.458C523.896 187.026 510.006 189.51 495.282 192.138C464.526 197.64 432.726 203.322 398.904 210.432C359.676 218.688 318.672 229.314 279 239.586C258.72 244.842 237.75 250.278 217.044 255.39C172.998 266.268 127.644 275.61 82.248 283.152C55.14 287.658 27.888 291.462 0 294.6V295.848C28.014 292.692 55.392 288.87 82.644 284.346C128.1 276.792 173.514 267.438 217.644 256.542C238.344 251.442 259.32 246 279.6 240.75C319.2 230.478 360.204 219.864 399.36 211.638C433.146 204.534 464.928 198.852 495.66 193.356C510.384 190.728 524.286 188.238 538.008 185.67C556.662 182.178 575.04 178.38 592.812 174.708C619.446 169.2 644.61 163.998 670.986 159.654C725.04 150.654 769.53 147.162 815.244 148.386C877.644 150.066 941.538 161.814 995.772 173.082C1080.97 191.028 1204.72 215.874 1294.74 224.412C1302.8 225.18 1310.57 226.212 1318.07 227.19C1321.49 227.64 1324.87 228.084 1328.2 228.498L1333.07 229.098C1369.15 233.556 1403.72 237.828 1439.99 240.066L1440 238.8Z" fill="url(#paint53_radial_117_1347)"/>
<path d="M1440 232.8C1401.64 228.126 1365.4 221.19 1327.49 213.924L1317.41 211.992C1314.47 211.428 1311.5 210.848 1308.5 210.252C1300.43 208.662 1292.08 207.024 1283.38 205.638C1221.71 195.834 1146.52 180.102 1066.93 163.44C1040.77 157.962 1013.71 152.304 987.246 146.88C913.59 131.982 857.784 125.52 806.292 125.922C760.044 126.282 715.218 131.856 660.942 143.988C635.346 149.652 609.9 156.414 585.288 162.954C566.688 167.892 547.488 172.998 527.97 177.708C504.846 183.288 480.732 188.64 455.196 194.304C434.4 198.9 412.842 203.676 390.6 208.86C363 215.298 335.478 222.354 306.36 229.8C275.046 237.834 242.664 246.138 210.432 253.518C166.464 263.586 120.846 271.734 74.832 277.74C49.5 281.07 24.522 283.578 0 285.456V286.698C24.6 284.82 49.686 282.3 75.132 279C121.218 273 166.932 264.816 210.954 254.73C243.216 247.344 275.61 239.034 306.954 231C336.054 223.536 363.546 216.486 391.14 210.054C413.376 204.87 434.898 200.1 455.712 195.48C481.26 189.816 505.386 184.458 528.534 178.872C548.07 174.156 567.3 169.05 585.9 164.106C610.5 157.572 635.916 150.816 661.458 145.158C715.56 133.068 760.224 127.518 806.286 127.158C857.592 126.756 913.242 133.206 986.718 148.068C1013.18 153.468 1040.23 159.144 1066.39 164.622C1146.02 181.29 1221.23 197.022 1282.96 206.838C1291.62 208.218 1299.94 209.838 1307.99 211.44C1311 212.036 1313.98 212.616 1316.92 213.18L1327 215.112C1365.06 222.408 1401.44 229.374 1440.01 234.06L1440 232.8Z" fill="url(#paint54_radial_117_1347)"/>
<path d="M1440 227.682C1398.16 220.278 1359.06 210.234 1318.06 199.692L1306.25 196.656L1298.68 194.7C1290.02 192.45 1281.06 190.122 1271.72 188.046C1242.77 181.62 1210.92 174.126 1177.2 166.2C1115.59 151.704 1045.75 135.276 978.174 121.836C907.326 107.898 849.834 102.444 797.232 104.664C750.63 106.626 705.618 114.264 651.276 129.486C626.178 136.47 601.284 144.552 577.212 152.37C558.126 158.568 538.392 164.97 518.37 170.91C480.414 182.154 439.17 192.726 395.472 203.91L382.326 207.282C368.076 210.93 353.4 214.8 339.156 218.52C295.2 230.064 249.69 241.998 203.802 251.682C158.764 261.127 113.233 268.044 67.422 272.4C44.73 274.572 22.248 276.06 0 277.002V278.244C22.314 277.302 44.862 275.808 67.626 273.624C113.529 269.271 159.153 262.35 204.282 252.894C250.2 243.174 295.74 231.228 339.75 219.678C353.964 215.946 368.664 212.088 382.896 208.434L396.042 205.068C439.746 193.866 481.032 183.294 519.042 172.068C539.094 166.128 558.84 159.714 577.938 153.51C601.992 145.71 626.862 137.622 651.912 130.656C706.068 115.506 750.912 107.856 797.31 105.918C849.702 103.704 907.014 109.146 977.658 123.042C1045.2 136.446 1114.99 152.874 1176.6 167.364C1210.34 175.302 1242.2 182.796 1271.16 189.228C1280.47 191.292 1289.4 193.614 1298.05 195.864L1305.62 197.826L1317.43 200.856C1358.63 211.452 1397.91 221.538 1440.02 228.966L1440 227.682Z" fill="url(#paint55_radial_117_1347)"/>
<path d="M1440 223.434C1393.33 212.766 1349.03 198.606 1306.03 184.854L1289.18 179.454C1279.81 176.454 1270.13 173.34 1260.05 170.454L1250.81 167.826C1169.52 144.696 1068.35 115.914 969.084 96.762C899.718 83.508 842.226 79.254 788.154 83.376C741.198 86.976 696 96.702 641.598 114.972C616.746 123.276 592.158 132.72 568.398 141.846C549.048 149.28 529.038 156.96 508.77 164.088C472.08 177 430.53 189.828 374.028 205.686C323.148 219.966 259.836 237.738 197.172 249.828C151.863 258.483 106.044 264.219 60 267C39.864 268.242 19.842 268.902 0 269.094V270.336C19.884 270.138 39.936 269.478 60.114 268.236C106.267 265.45 152.193 259.705 197.61 251.034C260.4 238.914 323.742 221.13 374.658 206.838C431.214 190.962 472.806 178.128 509.526 165.216C529.824 158.076 549.846 150.39 569.214 142.956C592.968 133.836 617.538 124.404 642.342 116.106C696.546 97.902 741.57 88.2 788.31 84.636C842.154 80.532 899.43 84.768 968.574 97.98C1067.74 117.114 1168.85 145.884 1250.11 169.002L1259.35 171.63C1269.39 174.486 1279.06 177.588 1288.4 180.588L1305.26 185.988C1348.46 199.788 1393.03 214.05 1440 224.754V223.434Z" fill="url(#paint56_radial_117_1347)"/>
<path d="M1440 219.978C1388.12 205.662 1339.12 187.032 1291.61 168.978L1280.25 164.658C1269.99 160.758 1259.38 156.726 1248.38 152.922C1168.46 125.286 1063.46 91.086 960.006 71.748C892.806 59.292 833.634 56.148 779.088 62.148C731.79 67.35 686.406 79.182 631.932 100.506C607.152 110.178 582.69 121.02 559.026 131.508C539.58 140.124 519.468 149.034 499.146 157.308C459.486 173.478 415.854 188.772 365.742 204.078C318.54 218.478 255.942 236.508 190.542 247.95C146.538 255.672 100.116 260.256 52.572 261.6C34.972 262.1 17.448 262.156 0 261.768V263.01C17.444 263.362 34.98 263.304 52.608 262.836C100.272 261.486 146.808 256.89 190.938 249.174C256.5 237.708 319.158 219.666 366.426 205.23C416.604 189.912 460.302 174.6 500.022 158.4C520.374 150.102 540.498 141.186 559.956 132.558C583.596 122.082 608.046 111.252 632.778 101.592C687.054 80.346 732.246 68.592 779.328 63.39C833.622 57.39 892.566 60.546 959.508 72.954C1062.82 92.262 1167.71 126.426 1247.56 154.038C1258.53 157.83 1269.13 161.838 1279.36 165.756L1290.73 170.076C1338.49 188.226 1387.77 206.958 1439.99 221.328L1440 219.978Z" fill="url(#paint57_radial_117_1347)"/>
<path d="M1440 217.2C1382.03 198.6 1327.55 174.768 1274.83 151.662L1272.73 150.744C1261.17 145.68 1249.22 140.442 1236.73 135.36C1166.34 106.752 1060.14 66.4441 950.946 46.7161C884.82 34.8361 825.648 32.9161 770.046 40.9141C722.4 47.7481 676.8 61.6621 622.278 86.0281C597.426 97.1161 572.934 109.428 549.246 121.32C529.836 131.07 509.772 141.15 489.54 150.546C448.872 169.44 404.43 186.924 357.456 202.518C293.622 223.56 236.856 237.822 183.912 246.12C139.572 253.074 94.2 256.38 45.15 256.2C30.014 256.128 14.964 255.728 0 255V256.2C14.952 256.932 29.984 257.348 45.096 257.448C94.296 257.604 139.794 254.292 184.296 247.32C237.372 238.998 294.258 224.706 358.218 203.622C405.276 188.022 449.79 170.49 490.542 151.56C510.792 142.152 530.874 132.066 550.296 122.31C573.966 110.418 598.434 98.1241 623.244 87.0601C677.58 62.7781 722.958 48.9181 770.37 42.1141C825.702 34.1761 884.616 36.0721 950.472 47.9041C1059.45 67.5961 1165.51 107.85 1235.81 136.422C1248.3 141.492 1260.24 146.724 1271.81 151.788L1273.91 152.706C1326.91 175.932 1381.7 199.926 1440.05 218.568L1440 217.2Z" fill="url(#paint58_radial_117_1347)"/>
<path d="M1440 215.094L1437.22 214.092C1377.02 192.072 1319.77 164.322 1261.54 135.438C1249.92 129.708 1237.54 123.63 1225.02 117.798C1115.73 66.8521 1025.75 36.3121 941.82 21.6781C876.804 10.3741 817.62 9.71411 760.932 19.6681C712.8 28.2001 667.056 44.2261 612.6 71.5501C587.55 84.1141 562.914 97.9501 539.088 111.33C519.828 122.13 499.92 133.332 479.922 143.766C437.681 165.792 393.979 184.893 349.122 200.934C290.046 222 232.2 236.574 177.288 244.272C132.954 250.356 85.998 252.6 37.722 250.836C25.13 250.368 12.556 249.648 0 248.676V249.924C12.512 250.876 25.042 251.594 37.59 252.078C86.01 253.812 133.116 251.592 177.6 245.478C232.692 237.762 290.682 223.14 349.956 202.026C394.895 185.952 438.678 166.813 480.996 144.744C501.018 134.298 520.944 123.102 540.21 112.284C564.018 98.9101 588.636 85.0861 613.644 72.5461C667.884 45.3181 713.436 29.3821 761.358 20.8621C817.758 10.9621 876.648 11.6221 941.358 22.8721C1025.06 37.4761 1114.87 67.9621 1223.99 118.824C1236.49 124.65 1248.86 130.728 1260.47 136.452C1318.75 165.354 1376.05 193.134 1436.35 215.184L1439.98 216.498L1440 215.094Z" fill="url(#paint59_radial_117_1347)" fill-opacity="0.6"/>
<path d="M951.6 0H944.94C1052.89 20.478 1156.43 70.158 1249.2 121.116C1312.67 155.97 1375.86 189.09 1440 214.89V213.438C1376.29 187.734 1313.46 154.794 1250.35 120.132C1159.16 70.062 1057.6 21.222 951.6 0Z" fill="url(#paint60_radial_117_1347)" fill-opacity="0.2"/>
<path d="M744.732 0C661.854 18.894 594.174 60.906 528.672 101.58C509.664 113.382 490.014 125.58 470.358 136.98C370.242 195.036 269.4 230.514 170.658 242.4C113.622 249.294 56.298 248.46 0 242.79V244.05C56.364 249.708 113.778 250.53 170.922 243.642C270 231.696 371.112 196.128 471.48 137.928C491.154 126.528 510.822 114.306 529.836 102.528C596.61 61.038 665.646 18.186 750.6 0H744.732Z" fill="url(#paint61_radial_117_1347)"/>
</g>
<defs>
<radialGradient id="paint0_radial_117_1347" cx="0" cy="0" r="1" gradientUnits="userSpaceOnUse" gradientTransform="translate(246.714 131.142) scale(1313.16 1318.39)">
<stop stop-color="white"/>
<stop offset="1" stop-color="#C2C2C2"/>
</radialGradient>
<radialGradient id="paint1_radial_117_1347" cx="0" cy="0" r="1" gradientUnits="userSpaceOnUse" gradientTransform="translate(246.714 131.137) scale(1313.16 1318.4)">
<stop stop-color="white"/>
<stop offset="1" stop-color="#C2C2C2"/>
</radialGradient>
<radialGradient id="paint2_radial_117_1347" cx="0" cy="0" r="1" gradientUnits="userSpaceOnUse" gradientTransform="translate(246.714 131.141) scale(1313.28 1318.51)">
<stop stop-color="white"/>
<stop offset="1" stop-color="#C2C2C2"/>
</radialGradient>
<radialGradient id="paint3_radial_117_1347" cx="0" cy="0" r="1" gradientUnits="userSpaceOnUse" gradientTransform="translate(246.714 131.142) scale(1313.16 1318.39)">
<stop stop-color="white"/>
<stop offset="1" stop-color="#C2C2C2"/>
</radialGradient>
<radialGradient id="paint4_radial_117_1347" cx="0" cy="0" r="1" gradientUnits="userSpaceOnUse" gradientTransform="translate(246.714 131.142) scale(1313.16 1318.39)">
<stop stop-color="white"/>
<stop offset="1" stop-color="#C2C2C2"/>
</radialGradient>
<radialGradient id="paint5_radial_117_1347" cx="0" cy="0" r="1" gradientUnits="userSpaceOnUse" gradientTransform="translate(246.714 131.021) scale(1313.28 1318.51)">
<stop stop-color="white"/>
<stop offset="1" stop-color="#C2C2C2"/>
</radialGradient>
<radialGradient id="paint6_radial_117_1347" cx="0" cy="0" r="1" gradientUnits="userSpaceOnUse" gradientTransform="translate(246.714 131.142) scale(1313.16 1318.39)">
<stop stop-color="white"/>
<stop offset="1" stop-color="#C2C2C2"/>
</radialGradient>
<radialGradient id="paint7_radial_117_1347" cx="0" cy="0" r="1" gradientUnits="userSpaceOnUse" gradientTransform="translate(246.714 131.142) scale(1313.28 1318.51)">
<stop stop-color="white"/>
<stop offset="1" stop-color="#C2C2C2"/>
</radialGradient>
<radialGradient id="paint8_radial_117_1347" cx="0" cy="0" r="1" gradientUnits="userSpaceOnUse" gradientTransform="translate(246.714 131.142) scale(1313.16 1318.39)">
<stop stop-color="white"/>
<stop offset="1" stop-color="#C2C2C2"/>
</radialGradient>
<radialGradient id="paint9_radial_117_1347" cx="0" cy="0" r="1" gradientUnits="userSpaceOnUse" gradientTransform="translate(246.714 131.142) scale(1313.28 1318.51)">
<stop stop-color="white"/>
<stop offset="1" stop-color="#C2C2C2"/>
</radialGradient>
<radialGradient id="paint10_radial_117_1347" cx="0" cy="0" r="1" gradientUnits="userSpaceOnUse" gradientTransform="translate(246.714 131.142) scale(1313.16 1318.39)">
<stop stop-color="white"/>
<stop offset="1" stop-color="#C2C2C2"/>
</radialGradient>
<radialGradient id="paint11_radial_117_1347" cx="0" cy="0" r="1" gradientUnits="userSpaceOnUse" gradientTransform="translate(246.714 131.142) scale(1313.28 1318.51)">
<stop stop-color="white"/>
<stop offset="1" stop-color="#C2C2C2"/>
</radialGradient>
<radialGradient id="paint12_radial_117_1347" cx="0" cy="0" r="1" gradientUnits="userSpaceOnUse" gradientTransform="translate(246.714 131.142) scale(1313.16 1318.39)">
<stop stop-color="white"/>
<stop offset="1" stop-color="#C2C2C2"/>
</radialGradient>
<radialGradient id="paint13_radial_117_1347" cx="0" cy="0" r="1" gradientUnits="userSpaceOnUse" gradientTransform="translate(246.714 131.142) scale(1313.28 1318.51)">
<stop stop-color="white"/>
<stop offset="1" stop-color="#C2C2C2"/>
</radialGradient>
<radialGradient id="paint14_radial_117_1347" cx="0" cy="0" r="1" gradientUnits="userSpaceOnUse" gradientTransform="translate(246.714 131.142) scale(1313.16 1318.39)">
<stop stop-color="white"/>
<stop offset="1" stop-color="#C2C2C2"/>
</radialGradient>
<radialGradient id="paint15_radial_117_1347" cx="0" cy="0" r="1" gradientUnits="userSpaceOnUse" gradientTransform="translate(246.714 131.142) scale(1313.28 1318.51)">
<stop stop-color="white"/>
<stop offset="1" stop-color="#C2C2C2"/>
</radialGradient>
<radialGradient id="paint16_radial_117_1347" cx="0" cy="0" r="1" gradientUnits="userSpaceOnUse" gradientTransform="translate(246.714 131.142) scale(1313.16 1318.39)">
<stop stop-color="white"/>
<stop offset="1" stop-color="#C2C2C2"/>
</radialGradient>
<radialGradient id="paint17_radial_117_1347" cx="0" cy="0" r="1" gradientUnits="userSpaceOnUse" gradientTransform="translate(246.714 131.142) scale(1313.16 1318.39)">
<stop stop-color="white"/>
<stop offset="1" stop-color="#C2C2C2"/>
</radialGradient>
<radialGradient id="paint18_radial_117_1347" cx="0" cy="0" r="1" gradientUnits="userSpaceOnUse" gradientTransform="translate(246.714 131.142) scale(1313.16 1318.39)">
<stop stop-color="white"/>
<stop offset="1" stop-color="#C2C2C2"/>
</radialGradient>
<radialGradient id="paint19_radial_117_1347" cx="0" cy="0" r="1" gradientUnits="userSpaceOnUse" gradientTransform="translate(246.714 131.142) scale(1313.16 1318.39)">
<stop stop-color="white"/>
<stop offset="1" stop-color="#C2C2C2"/>
</radialGradient>
<radialGradient id="paint20_radial_117_1347" cx="0" cy="0" r="1" gradientUnits="userSpaceOnUse" gradientTransform="translate(246.714 131.142) scale(1313.16 1318.39)">
<stop stop-color="white"/>
<stop offset="1" stop-color="#C2C2C2"/>
</radialGradient>
<radialGradient id="paint21_radial_117_1347" cx="0" cy="0" r="1" gradientUnits="userSpaceOnUse" gradientTransform="translate(246.714 130.9) scale(1313.28 1318.51)">
<stop stop-color="white"/>
<stop offset="1" stop-color="#C2C2C2"/>
</radialGradient>
<radialGradient id="paint22_radial_117_1347" cx="0" cy="0" r="1" gradientUnits="userSpaceOnUse" gradientTransform="translate(246.714 131.142) scale(1313.16 1318.39)">
<stop stop-color="white"/>
<stop offset="1" stop-color="#C2C2C2"/>
</radialGradient>
<radialGradient id="paint23_radial_117_1347" cx="0" cy="0" r="1" gradientUnits="userSpaceOnUse" gradientTransform="translate(246.714 131.142) scale(1313.16 1318.39)">
<stop stop-color="white"/>
<stop offset="1" stop-color="#C2C2C2"/>
</radialGradient>
<radialGradient id="paint24_radial_117_1347" cx="0" cy="0" r="1" gradientUnits="userSpaceOnUse" gradientTransform="translate(246.714 131.142) scale(1313.16 1318.39)">
<stop stop-color="white"/>
<stop offset="1" stop-color="#C2C2C2"/>
</radialGradient>
<radialGradient id="paint25_radial_117_1347" cx="0" cy="0" r="1" gradientUnits="userSpaceOnUse" gradientTransform="translate(246.714 131.142) scale(1313.16 1318.39)">
<stop stop-color="white"/>
<stop offset="1" stop-color="#C2C2C2"/>
</radialGradient>
<radialGradient id="paint26_radial_117_1347" cx="0" cy="0" r="1" gradientUnits="userSpaceOnUse" gradientTransform="translate(246.714 131.142) scale(1313.16 1318.39)">
<stop stop-color="white"/>
<stop offset="1" stop-color="#C2C2C2"/>
</radialGradient>
<radialGradient id="paint27_radial_117_1347" cx="0" cy="0" r="1" gradientUnits="userSpaceOnUse" gradientTransform="translate(246.714 131.141) scale(1313.16 1318.39)">
<stop stop-color="white"/>
<stop offset="1" stop-color="#C2C2C2"/>
</radialGradient>
<radialGradient id="paint28_radial_117_1347" cx="0" cy="0" r="1" gradientUnits="userSpaceOnUse" gradientTransform="translate(246.714 131.142) scale(1313.16 1318.39)">
<stop stop-color="white"/>
<stop offset="1" stop-color="#C2C2C2"/>
</radialGradient>
<radialGradient id="paint29_radial_117_1347" cx="0" cy="0" r="1" gradientUnits="userSpaceOnUse" gradientTransform="translate(246.714 131.142) scale(1313.16 1318.39)">
<stop stop-color="white"/>
<stop offset="1" stop-color="#C2C2C2"/>
</radialGradient>
<radialGradient id="paint30_radial_117_1347" cx="0" cy="0" r="1" gradientUnits="userSpaceOnUse" gradientTransform="translate(246.714 131.142) scale(1313.16 1318.39)">
<stop stop-color="white"/>
<stop offset="1" stop-color="#C2C2C2"/>
</radialGradient>
<radialGradient id="paint31_radial_117_1347" cx="0" cy="0" r="1" gradientUnits="userSpaceOnUse" gradientTransform="translate(246.714 131.142) scale(1313.16 1318.39)">
<stop stop-color="white"/>
<stop offset="1" stop-color="#C2C2C2"/>
</radialGradient>
<radialGradient id="paint32_radial_117_1347" cx="0" cy="0" r="1" gradientUnits="userSpaceOnUse" gradientTransform="translate(246.714 131.142) scale(1313.16 1318.39)">
<stop stop-color="white"/>
<stop offset="1" stop-color="#C2C2C2"/>
</radialGradient>
<radialGradient id="paint33_radial_117_1347" cx="0" cy="0" r="1" gradientUnits="userSpaceOnUse" gradientTransform="translate(246.714 131.142) scale(1313.16 1318.39)">
<stop stop-color="white"/>
<stop offset="1" stop-color="#C2C2C2"/>
</radialGradient>
<radialGradient id="paint34_radial_117_1347" cx="0" cy="0" r="1" gradientUnits="userSpaceOnUse" gradientTransform="translate(246.714 131.142) scale(1313.16 1318.39)">
<stop stop-color="white"/>
<stop offset="1" stop-color="#C2C2C2"/>
</radialGradient>
<radialGradient id="paint35_radial_117_1347" cx="0" cy="0" r="1" gradientUnits="userSpaceOnUse" gradientTransform="translate(246.714 131.142) scale(1313.16 1318.39)">
<stop stop-color="white"/>
<stop offset="1" stop-color="#C2C2C2"/>
</radialGradient>
<radialGradient id="paint36_radial_117_1347" cx="0" cy="0" r="1" gradientUnits="userSpaceOnUse" gradientTransform="translate(246.714 131.142) scale(1313.16 1318.39)">
<stop stop-color="white"/>
<stop offset="1" stop-color="#C2C2C2"/>
</radialGradient>
<radialGradient id="paint37_radial_117_1347" cx="0" cy="0" r="1" gradientUnits="userSpaceOnUse" gradientTransform="translate(246.714 131.142) scale(1313.16 1318.39)">
<stop stop-color="white"/>
<stop offset="1" stop-color="#C2C2C2"/>
</radialGradient>
<radialGradient id="paint38_radial_117_1347" cx="0" cy="0" r="1" gradientUnits="userSpaceOnUse" gradientTransform="translate(246.714 131.142) scale(1313.16 1318.39)">
<stop stop-color="white"/>
<stop offset="1" stop-color="#C2C2C2"/>
</radialGradient>
<radialGradient id="paint39_radial_117_1347" cx="0" cy="0" r="1" gradientUnits="userSpaceOnUse" gradientTransform="translate(246.714 131.142) scale(1313.16 1318.39)">
<stop stop-color="white"/>
<stop offset="1" stop-color="#C2C2C2"/>
</radialGradient>
<radialGradient id="paint40_radial_117_1347" cx="0" cy="0" r="1" gradientUnits="userSpaceOnUse" gradientTransform="translate(246.714 131.142) scale(1313.16 1318.39)">
<stop stop-color="white"/>
<stop offset="1" stop-color="#C2C2C2"/>
</radialGradient>
<radialGradient id="paint41_radial_117_1347" cx="0" cy="0" r="1" gradientUnits="userSpaceOnUse" gradientTransform="translate(246.714 131.142) scale(1313.16 1318.39)">
<stop stop-color="white"/>
<stop offset="1" stop-color="#C2C2C2"/>
</radialGradient>
<radialGradient id="paint42_radial_117_1347" cx="0" cy="0" r="1" gradientUnits="userSpaceOnUse" gradientTransform="translate(246.714 131.142) scale(1313.16 1318.39)">
<stop stop-color="white"/>
<stop offset="1" stop-color="#C2C2C2"/>
</radialGradient>
<radialGradient id="paint43_radial_117_1347" cx="0" cy="0" r="1" gradientUnits="userSpaceOnUse" gradientTransform="translate(246.714 131.142) scale(1313.16 1318.39)">
<stop stop-color="white"/>
<stop offset="1" stop-color="#C2C2C2"/>
</radialGradient>
<radialGradient id="paint44_radial_117_1347" cx="0" cy="0" r="1" gradientUnits="userSpaceOnUse" gradientTransform="translate(246.714 131.142) scale(1313.16 1318.39)">
<stop stop-color="white"/>
<stop offset="1" stop-color="#C2C2C2"/>
</radialGradient>
<radialGradient id="paint45_radial_117_1347" cx="0" cy="0" r="1" gradientUnits="userSpaceOnUse" gradientTransform="translate(246.714 131.142) scale(1313.16 1318.39)">
<stop stop-color="white"/>
<stop offset="1" stop-color="#C2C2C2"/>
</radialGradient>
<radialGradient id="paint46_radial_117_1347" cx="0" cy="0" r="1" gradientUnits="userSpaceOnUse" gradientTransform="translate(246.714 131.142) scale(1313.16 1318.39)">
<stop stop-color="white"/>
<stop offset="1" stop-color="#C2C2C2"/>
</radialGradient>
<radialGradient id="paint47_radial_117_1347" cx="0" cy="0" r="1" gradientUnits="userSpaceOnUse" gradientTransform="translate(246.714 131.142) scale(1313.16 1318.39)">
<stop stop-color="white"/>
<stop offset="1" stop-color="#C2C2C2"/>
</radialGradient>
<radialGradient id="paint48_radial_117_1347" cx="0" cy="0" r="1" gradientUnits="userSpaceOnUse" gradientTransform="translate(246.714 131.142) scale(1313.16 1318.39)">
<stop stop-color="white"/>
<stop offset="1" stop-color="#C2C2C2"/>
</radialGradient>
<radialGradient id="paint49_radial_117_1347" cx="0" cy="0" r="1" gradientUnits="userSpaceOnUse" gradientTransform="translate(246.714 131.142) scale(1313.16 1318.39)">
<stop stop-color="white"/>
<stop offset="1" stop-color="#C2C2C2"/>
</radialGradient>
<radialGradient id="paint50_radial_117_1347" cx="0" cy="0" r="1" gradientUnits="userSpaceOnUse" gradientTransform="translate(246.714 131.142) scale(1313.16 1318.39)">
<stop stop-color="white"/>
<stop offset="1" stop-color="#C2C2C2"/>
</radialGradient>
<radialGradient id="paint51_radial_117_1347" cx="0" cy="0" r="1" gradientUnits="userSpaceOnUse" gradientTransform="translate(246.714 131.142) scale(1313.16 1318.39)">
<stop stop-color="white"/>
<stop offset="1" stop-color="#C2C2C2"/>
</radialGradient>
<radialGradient id="paint52_radial_117_1347" cx="0" cy="0" r="1" gradientUnits="userSpaceOnUse" gradientTransform="translate(246.714 131.142) scale(1313.16 1318.39)">
<stop stop-color="white"/>
<stop offset="1" stop-color="#C2C2C2"/>
</radialGradient>
<radialGradient id="paint53_radial_117_1347" cx="0" cy="0" r="1" gradientUnits="userSpaceOnUse" gradientTransform="translate(246.714 131.142) scale(1313.16 1318.39)">
<stop stop-color="white"/>
<stop offset="1" stop-color="#C2C2C2"/>
</radialGradient>
<radialGradient id="paint54_radial_117_1347" cx="0" cy="0" r="1" gradientUnits="userSpaceOnUse" gradientTransform="translate(246.714 131.142) scale(1313.16 1318.39)">
<stop stop-color="white"/>
<stop offset="1" stop-color="#C2C2C2"/>
</radialGradient>
<radialGradient id="paint55_radial_117_1347" cx="0" cy="0" r="1" gradientUnits="userSpaceOnUse" gradientTransform="translate(246.714 131.142) scale(1313.16 1318.39)">
<stop stop-color="white"/>
<stop offset="1" stop-color="#C2C2C2"/>
</radialGradient>
<radialGradient id="paint56_radial_117_1347" cx="0" cy="0" r="1" gradientUnits="userSpaceOnUse" gradientTransform="translate(246.714 131.142) scale(1313.16 1318.39)">
<stop stop-color="white"/>
<stop offset="1" stop-color="#C2C2C2"/>
</radialGradient>
<radialGradient id="paint57_radial_117_1347" cx="0" cy="0" r="1" gradientUnits="userSpaceOnUse" gradientTransform="translate(246.714 131.142) scale(1313.16 1318.39)">
<stop stop-color="white"/>
<stop offset="1" stop-color="#C2C2C2"/>
</radialGradient>
<radialGradient id="paint58_radial_117_1347" cx="0" cy="0" r="1" gradientUnits="userSpaceOnUse" gradientTransform="translate(246.714 131.142) scale(1313.16 1318.39)">
<stop stop-color="white"/>
<stop offset="1" stop-color="#C2C2C2"/>
</radialGradient>
<radialGradient id="paint59_radial_117_1347" cx="0" cy="0" r="1" gradientUnits="userSpaceOnUse" gradientTransform="translate(246.714 131.142) scale(1313.16 1318.39)">
<stop stop-color="white"/>
<stop offset="1" stop-color="#C2C2C2"/>
</radialGradient>
<radialGradient id="paint60_radial_117_1347" cx="0" cy="0" r="1" gradientUnits="userSpaceOnUse" gradientTransform="translate(246.714 131.142) scale(1313.16 1318.39)">
<stop stop-color="white"/>
<stop offset="1" stop-color="#C2C2C2"/>
</radialGradient>
<radialGradient id="paint61_radial_117_1347" cx="0" cy="0" r="1" gradientUnits="userSpaceOnUse" gradientTransform="translate(246.714 131.142) scale(1313.16 1318.39)">
<stop stop-color="white"/>
<stop offset="1" stop-color="#C2C2C2"/>
</radialGradient>
<clipPath id="clip0_117_1347">
<rect width="1440" height="1020" fill="white"/>
</clipPath>
</defs>
</svg>
