<svg width="111" height="97" viewBox="0 0 111 97" fill="none" xmlns="http://www.w3.org/2000/svg">
<path d="M73.825 64.4041C73.4342 64.9847 72.8872 65.4425 72.2061 65.7217L58.4953 71.3265C56.7089 72.0523 54.6322 71.2372 53.4376 69.3391L51.0482 65.5207C50.222 64.192 49.9875 62.5731 50.4341 61.1774C50.7914 60.0721 51.5394 59.2235 52.5443 58.8216L67.6619 52.6361C68.6668 52.223 69.7944 52.3012 70.8216 52.8371C72.1167 53.5182 73.0881 54.8357 73.4231 56.3653L74.3944 60.7532C74.6959 62.1265 74.4615 63.4328 73.8027 64.393L73.825 64.4041ZM53.3594 61.7804C53.2924 61.8809 53.2477 61.9925 53.2142 62.0818C53.0691 62.5284 53.0802 63.2653 53.5268 63.991L55.9162 67.7983C56.374 68.5241 57.0327 68.792 57.4012 68.6357L71.1119 63.0197C71.4915 62.8634 71.7707 62.2046 71.5809 61.3784L70.6094 56.9905C70.4308 56.1643 69.9172 55.6284 69.4929 55.4162C69.3031 55.3158 69.0352 55.2264 68.7784 55.3269L53.6608 61.5124C53.5268 61.5682 53.4376 61.6575 53.3594 61.7692V61.7804Z" fill="#62308B"/>
<path d="M41.948 16.0817C41.948 16.0817 38.0403 9.43847 33.3286 11.0351C29.0077 12.4977 29.2198 16.6065 30.2246 18.5715C31.598 21.2512 34.6237 22.0551 38.5538 21.441" fill="white"/>
<g opacity="0.5">
<path d="M41.948 16.0817C41.948 16.0817 38.0403 9.43847 33.3286 11.0351C29.0077 12.4977 29.2198 16.6065 30.2246 18.5715C31.598 21.2512 34.6237 22.0551 38.5538 21.441" fill="#62308B"/>
</g>
<path d="M38.7773 22.8921C32.6811 23.8412 30.0573 21.4407 28.9408 19.2411C28.2597 17.9125 27.7796 15.5901 28.6505 13.4129C29.1418 12.1848 30.2806 10.5435 32.8597 9.66145C38.6209 7.70755 43.0088 15.0319 43.1986 15.3445L40.6976 16.8183C40.6976 16.8183 37.2699 11.2358 33.7976 12.4081C32.5583 12.8324 31.7432 13.5358 31.3413 14.496C30.8612 15.6683 31.0957 17.0863 31.5199 17.9125C32.5136 19.8552 34.8025 20.5586 38.3306 20.0115L38.7773 22.8809V22.8921Z" fill="#62308B"/>
<path d="M39.1685 19.0513C38.0073 18.3032 34.2112 16.3047 32.0452 16.8406C31.5092 16.9746 31.1184 17.2649 30.8505 17.7338L28.316 16.2935C28.9971 15.11 30.0243 14.3284 31.3417 14.0046C35.1267 13.0779 40.1734 16.2265 40.7316 16.595L39.1573 19.0401L39.1685 19.0513Z" fill="#62308B"/>
<path d="M43.1543 14.1503C43.1543 14.1503 40.8431 4.90555 46.381 2.23709C51.45 -0.219238 55.0228 3.69973 56.0611 6.22304C57.8922 10.6668 52.9796 14.8202 48.882 16.4949" fill="white"/>
<g opacity="0.5">
<path d="M43.1543 14.1503C43.1543 14.1503 40.8431 4.90555 46.381 2.23709C51.45 -0.219238 55.0228 3.69973 56.0611 6.22304C57.8922 10.6668 52.9796 14.8202 48.882 16.4949" fill="#62308B"/>
</g>
<path d="M56.4747 12.453C54.7664 14.9763 51.8523 16.8409 49.4295 17.8346L48.3242 15.1438C50.7693 14.139 53.6834 12.0734 54.6659 9.72874C55.0902 8.70155 55.1125 7.73019 54.7106 6.76999C54.1747 5.46367 52.8684 3.85589 51.1713 3.20831C49.8761 2.71705 48.4805 2.82871 47.0067 3.53211C42.6076 5.65348 44.5392 13.7147 44.5615 13.7929L41.7367 14.4963C41.6362 14.072 39.2246 4.06804 45.7338 0.919477C47.9222 -0.141209 50.1552 -0.286361 52.1984 0.495197C54.8781 1.51122 56.6645 3.91173 57.3902 5.66465C58.0825 7.32826 58.0602 9.12582 57.3456 10.8452C57.1111 11.4035 56.8208 11.9394 56.4747 12.453Z" fill="#62308B"/>
<path d="M61.1203 20.584L34.9881 31.2803C34.1264 31.633 33.7137 32.6175 34.0664 33.4792L46.3784 63.5587C46.7311 64.4204 47.7156 64.833 48.5773 64.4803L74.7095 53.784C75.5713 53.4313 75.9839 52.4468 75.6312 51.5851L63.3192 21.5056C62.9665 20.6439 61.982 20.2313 61.1203 20.584Z" fill="#F8DB63"/>
<path d="M75.1984 54.1095C74.5173 55.1032 73.5682 55.8848 72.4294 56.3537L51.9526 64.7387C48.7929 66.0339 45.1642 64.5154 43.8802 61.3557L33.8875 36.9264C33.2622 35.3968 33.2622 33.7109 33.9098 32.1813C34.5462 30.6628 35.7409 29.4681 37.2816 28.8429L57.7585 20.4579C59.2881 19.8326 60.974 19.8326 62.5037 20.4802C64.0333 21.1166 65.2168 22.3113 65.842 23.8521L75.8348 48.2813C76.4601 49.811 76.46 51.4969 75.8125 53.0265C75.645 53.4173 75.4552 53.7858 75.2207 54.1207L75.1984 54.1095ZM71.3241 53.6629C72.1391 53.328 72.7756 52.7027 73.1105 51.8877C73.4455 51.0838 73.4566 50.1794 73.1105 49.3755L63.1177 24.9463C62.7828 24.1312 62.1575 23.4948 61.3425 23.1598C60.5386 22.8249 59.6342 22.8137 58.8303 23.1598L38.3535 31.5448C37.5385 31.8798 36.9132 32.505 36.5671 33.3201C36.2209 34.1351 36.2209 35.0284 36.5559 35.8322L46.5487 60.2615C47.2409 61.9363 49.1613 62.7402 50.8361 62.0591L71.3129 53.6741L71.3241 53.6629Z" fill="#62308B"/>
<path d="M45.0526 23.8083C47.8212 23.8083 50.0657 21.5638 50.0657 18.7951C50.0657 16.0265 47.8212 13.782 45.0526 13.782C42.2839 13.782 40.0394 16.0265 40.0394 18.7951C40.0394 21.5638 42.2839 23.8083 45.0526 23.8083Z" fill="white"/>
<g opacity="0.5">
<path d="M45.0529 23.8083C47.8216 23.8083 50.066 21.5638 50.066 18.7951C50.066 16.0265 47.8216 13.782 45.0529 13.782C42.2842 13.782 40.0398 16.0265 40.0398 18.7951C40.0398 21.5638 42.2842 23.8083 45.0529 23.8083Z" fill="#62308B"/>
</g>
<path d="M50.4008 22.4347C49.7085 23.4507 48.726 24.2769 47.509 24.7793C44.2041 26.1303 40.4191 24.5449 39.0681 21.24C37.7172 17.9351 39.3027 14.1501 42.6075 12.7992C44.2041 12.1404 45.9682 12.1516 47.5537 12.8215C49.1391 13.4914 50.3896 14.7419 51.0372 16.3385C51.8857 18.4152 51.5731 20.6929 50.4008 22.4235V22.4347ZM42.1163 16.7851C41.4687 17.7453 41.29 18.9958 41.759 20.1346C42.507 21.9546 44.5837 22.8254 46.4036 22.0774C47.2857 21.7201 47.9668 21.0278 48.3352 20.157C48.7037 19.2749 48.7036 18.3148 48.3464 17.4327C47.9891 16.5507 47.308 15.8696 46.426 15.5011C45.5439 15.1327 44.5837 15.1327 43.7017 15.49C43.0318 15.7691 42.4847 16.2269 42.1051 16.7851H42.1163Z" fill="#62308B"/>
<path d="M61.2356 12.1179L28.9552 25.3308C28.4587 25.534 28.221 26.1012 28.4242 26.5977L31.6047 34.3682C31.808 34.8646 32.3752 35.1024 32.8717 34.8992L65.152 21.6863C65.6485 21.4831 65.8863 20.9159 65.6831 20.4194L62.5025 12.6489C62.2993 12.1525 61.7321 11.9147 61.2356 12.1179Z" fill="#F9C131"/>
<path d="M65.9416 22.2332C65.4839 22.9031 64.8363 23.439 64.0659 23.7517L35.0589 35.6202C32.9264 36.4911 30.4701 35.4639 29.588 33.3314L27.7458 28.8318C26.8749 26.6881 27.9021 24.2318 30.0346 23.3609L59.0416 11.4924C61.1853 10.6215 63.6305 11.6487 64.5125 13.7812L66.3547 18.2808C66.779 19.3191 66.7791 20.458 66.3436 21.4852C66.232 21.7531 66.0979 21.9988 65.9416 22.2332ZM62.9606 21.0609C63.6193 20.7929 63.9319 20.0337 63.664 19.3861L61.8217 14.8866C61.5537 14.2279 60.7945 13.9152 60.1469 14.1832L31.14 26.0517C30.4812 26.3197 30.1686 27.0789 30.4366 27.7265L32.2788 32.226C32.5468 32.8848 33.306 33.1974 33.9536 32.9294L62.9606 21.0609Z" fill="#62308B"/>
<path d="M48.4329 17.3584L41.7578 20.0906L45.6743 29.659L52.3494 26.9268L48.4329 17.3584Z" fill="white"/>
<g opacity="0.5">
<path d="M48.4329 17.3581L41.7578 20.0903L45.6743 29.6587L52.3494 26.9265L48.4329 17.3581Z" fill="#62308B"/>
</g>
<path d="M54.2413 27.7715L44.8737 31.6011L39.8606 19.3418L49.2281 15.5122L54.2413 27.7715ZM46.4703 27.8162L50.4563 26.1861L47.6427 19.3083L43.6568 20.9384L46.4703 27.8162Z" fill="#62308B"/>
<path d="M52.355 26.9174L45.6798 29.6497L58.309 60.5041L64.9841 57.7719L52.355 26.9174Z" fill="white"/>
<g opacity="0.5">
<path d="M52.3551 26.9172L45.6799 29.6494L58.3091 60.5039L64.9843 57.7716L52.3551 26.9172Z" fill="#62308B"/>
</g>
<path d="M66.8688 58.6321L57.5012 62.4617L52.4881 50.2024C52.1866 49.4655 52.5328 48.6058 53.2808 48.3043C54.0177 48.0029 54.8774 48.3601 55.1789 49.097L59.0978 58.6656L63.0838 57.0355L51.5614 28.877L47.5755 30.5071L52.0192 41.3596C52.3206 42.0965 51.9745 42.9562 51.2264 43.2577C50.4895 43.5591 49.6298 43.2019 49.3283 42.465L43.7793 28.9217L53.1468 25.092L66.8799 58.6321H66.8688Z" fill="#62308B"/>
<path d="M54.4642 5.67576C53.7162 5.46362 53.0462 5.55294 52.3652 5.95489C49.8642 7.43985 48.2452 12.4753 47.8321 14.2952L44.9962 13.6588C45.1748 12.8661 46.8608 5.84321 50.8802 3.45388C52.2312 2.64999 53.7496 2.44903 55.2569 2.8733L54.4642 5.67576Z" fill="#62308B"/>
<path d="M85.0016 80.3145C84.6108 80.8951 84.0525 81.3529 83.3826 81.6208L61.6776 90.5082C59.8354 91.2563 57.7252 90.3743 56.9771 88.532C55.6485 85.2941 55.6708 81.7436 57.0218 78.5169C58.3728 75.2902 60.8961 72.7892 64.134 71.4606L68.2986 69.7523C74.9753 67.0168 82.6346 70.2324 85.3589 76.9091C85.7273 77.8023 85.7161 78.7849 85.3589 79.6669C85.2584 79.8902 85.1467 80.1024 85.0127 80.3033L85.0016 80.3145ZM60.6728 77.8358C60.2932 78.3941 59.9694 78.997 59.7014 79.6334C58.6519 82.1456 58.6407 84.9033 59.6679 87.4267C59.8131 87.7839 60.2262 87.9515 60.5835 87.8063L82.2884 78.9188C82.5229 78.8295 82.6234 78.6397 82.6681 78.5392C82.7128 78.4387 82.7686 78.2378 82.6681 78.0033C80.5467 72.8116 74.5845 70.3106 69.3927 72.4431L65.2282 74.1514C63.3524 74.9217 61.7893 76.1946 60.6728 77.8358Z" fill="#62308B"/>
<path d="M71.5587 70.7236L68.6557 70.9469L68.3766 67.2959L66.7577 67.9547L68.7116 72.7222L63.0062 75.078L58.8304 70.1095L61.0523 68.2338L63.8547 71.5833L64.9266 71.1367L62.9727 66.3692L70.9669 63.0867L71.5587 70.7236Z" fill="#62308B"/>
<path d="M76.0803 94.6537C77.8722 93.9202 78.8458 92.1552 78.2548 90.7113C77.6639 89.2675 75.7321 88.6917 73.9402 89.4251C72.1483 90.1586 71.1748 91.9236 71.7657 93.3674C72.3567 94.8112 74.2884 95.3871 76.0803 94.6537Z" fill="#F2789D"/>
<path d="M79.095 94.1034C78.5144 94.9631 77.6547 95.6441 76.6275 96.0684C75.4552 96.5485 74.1823 96.6267 73.0547 96.2917C71.8265 95.9233 70.8663 95.0859 70.4197 93.9917C69.5265 91.8033 70.8664 89.1907 73.3897 88.1524C74.562 87.6723 75.8348 87.5941 76.9625 87.929C78.1906 88.2975 79.1509 89.1349 79.5975 90.2291C80.0441 91.3232 79.9547 92.5961 79.3295 93.7237C79.2625 93.8577 79.1843 93.9805 79.095 94.1034ZM73.3115 91.7587C73.0547 92.1383 72.9654 92.5514 73.0994 92.8864C73.2557 93.266 73.6576 93.4446 73.8809 93.5116C74.3722 93.6567 74.9639 93.6121 75.5222 93.3888C76.0804 93.1655 76.5382 92.7747 76.7838 92.3281C76.8955 92.1271 77.063 91.7252 76.9066 91.3456C76.7503 90.966 76.3484 90.7985 76.1251 90.7203C75.6338 90.5752 75.0309 90.6199 74.4838 90.8432C73.9814 91.0441 73.5683 91.3902 73.3115 91.7587Z" fill="#62308B"/>
<path d="M73.3663 84.0752L70.6797 85.1748L72.6337 89.9487L75.3203 88.849L73.3663 84.0752Z" fill="#62308B"/>
<path d="M76.0705 32.262L69.5085 34.9465L70.6077 37.6333L77.1697 34.9487L76.0705 32.262Z" fill="#62308B"/>
<path d="M39.3028 47.1771L32.7413 49.8628L33.841 52.5494L40.4024 49.8637L39.3028 47.1771Z" fill="#62308B"/>
<path d="M15.0401 69.2166L10.5964 71.0365C9.12258 71.6394 7.43665 70.936 6.83373 69.4622L1.67546 56.8679C1.07254 55.3941 1.77598 53.7082 3.24978 53.1053L26.9533 43.4028C28.4271 42.7999 30.113 43.5033 30.7159 44.9771L35.8742 57.5714C36.4771 59.0451 35.7738 60.7311 34.3 61.334L20.6673 66.9165" fill="white"/>
<path d="M36.7791 61.1105C36.299 61.8139 35.6403 62.3498 34.8364 62.6848L21.2038 68.2674C20.4669 68.5688 19.6072 68.2115 19.3057 67.4746C19.0043 66.7377 19.3504 65.878 20.0984 65.5766L33.7311 59.994C34.4568 59.6925 34.8141 58.8551 34.5126 58.1294L29.3543 45.5352C29.2092 45.1779 28.9301 44.8988 28.584 44.7536C28.2267 44.6085 27.847 44.6085 27.4897 44.7536L3.7862 54.4561C3.42892 54.6012 3.14978 54.8804 3.00463 55.2265C2.85948 55.5838 2.85948 55.9634 3.00463 56.3207L8.16291 68.9149C8.30805 69.2722 8.57602 69.5402 8.9333 69.6965C9.29059 69.8416 9.67025 69.8416 10.0275 69.6965L14.4712 67.8766C15.2193 67.5751 16.0679 67.9324 16.3693 68.6693C16.6708 69.4062 16.3246 70.2659 15.5766 70.5674L11.1329 72.3873C10.061 72.8227 8.87747 72.8227 7.80562 72.3761C6.73377 71.9295 5.90758 71.0921 5.47215 70.0203L0.325043 57.426C-0.110397 56.3542 -0.110454 55.1707 0.33615 54.11C0.782755 53.0381 1.62019 52.2119 2.69204 51.7765L26.3956 42.074C27.4674 41.6385 28.651 41.6385 29.7116 42.0851C30.7835 42.5318 31.6097 43.3691 32.0451 44.441L37.1922 57.0353C37.6277 58.1071 37.6276 59.2906 37.181 60.3513C37.0694 60.6192 36.9242 60.876 36.7679 61.1217L36.7791 61.1105Z" fill="#62308B"/>
<path d="M13.3878 66.5814C13.2315 66.8047 13.0083 66.9946 12.7403 67.1062C12.0034 67.4077 11.1437 67.0504 10.8422 66.3135L6.81164 56.4659C6.51019 55.729 6.85626 54.8692 7.60432 54.5678C8.34122 54.2663 9.20095 54.6236 9.50241 55.3605L13.533 65.2081C13.7228 65.6771 13.6558 66.1907 13.3878 66.5814Z" fill="#62308B"/>
<path d="M19.138 64.2255C18.9817 64.4488 18.7584 64.6386 18.4904 64.7502C17.7535 65.0517 16.8939 64.6944 16.5924 63.9575L12.5618 54.1099C12.2603 53.373 12.6064 52.5133 13.3545 52.2118C14.0914 51.9104 14.9511 52.2676 15.2526 53.0045L19.2832 62.8522C19.473 63.3211 19.406 63.8347 19.138 64.2255Z" fill="#62308B"/>
<path d="M24.9 61.87C24.7437 62.0933 24.5204 62.2831 24.2525 62.3948C23.5156 62.6962 22.6558 62.339 22.3544 61.6021L18.3238 51.7544C18.0223 51.0175 18.3684 50.1578 19.1165 49.8563C19.8534 49.5549 20.7131 49.9122 21.0146 50.6491L25.0451 60.4967C25.235 60.9656 25.168 61.4792 24.9 61.87Z" fill="#62308B"/>
<path d="M30.6601 59.5138C30.5037 59.7371 30.2804 59.9269 30.0125 60.0386C29.2756 60.34 28.4158 59.9827 28.1144 59.2458L24.0838 49.3982C23.7823 48.6613 24.1285 47.8016 24.8765 47.5001C25.6134 47.1987 26.4732 47.556 26.7746 48.2929L30.8052 58.1405C30.995 58.6094 30.928 59.123 30.6601 59.5138Z" fill="#62308B"/>
<path d="M88.2613 18.3149L99.9736 13.5251C101.447 12.9222 103.133 13.6256 103.736 15.0994L108.894 27.6936C109.497 29.1674 108.794 30.8534 107.32 31.4563L83.6166 41.1588C82.1429 41.7617 80.4569 41.0583 79.854 39.5845L74.6957 26.9903C74.0928 25.5165 74.7962 23.8305 76.27 23.2276L83.1924 20.3917" fill="white"/>
<path d="M109.799 31.2328C109.319 31.9362 108.66 32.4721 107.856 32.8071L84.1529 42.5096C83.0811 42.945 81.8976 42.945 80.8369 42.4984C79.765 42.0518 78.9388 41.2144 78.5034 40.1426L73.3563 27.5483C72.9208 26.4765 72.9208 25.293 73.3674 24.2323C73.814 23.1716 74.6514 22.3342 75.7233 21.8988L82.6456 19.0628C83.3825 18.7614 84.2423 19.1187 84.5437 19.8556C84.8452 20.5925 84.4879 21.4522 83.751 21.7536L76.8286 24.5896C76.4713 24.7347 76.1922 25.0027 76.0471 25.36C75.9019 25.7172 75.9019 26.0969 76.0471 26.4541L81.2054 39.0484C81.3505 39.4057 81.6296 39.6848 81.9758 39.83C82.333 39.9751 82.7126 39.9751 83.0699 39.83L106.773 30.1275C107.131 29.9823 107.399 29.7144 107.555 29.3571C107.7 28.9998 107.7 28.6202 107.555 28.2629L102.397 15.6686C102.095 14.9429 101.258 14.5856 100.532 14.8871L88.8199 19.6769C88.083 19.9784 87.2234 19.6211 86.9219 18.8842C86.6204 18.1473 86.9665 17.2876 87.7146 16.9861L99.4268 12.1963C100.499 11.7609 101.682 11.7608 102.743 12.2074C103.804 12.654 104.641 13.4915 105.076 14.5633L110.235 27.1576C110.67 28.2294 110.67 29.4129 110.223 30.4736C110.112 30.7416 109.967 30.9984 109.81 31.244L109.799 31.2328Z" fill="#62308B"/>
<path d="M86.3974 36.7035C86.2411 36.9268 86.0177 37.1166 85.7498 37.2282C85.0129 37.5297 84.1532 37.1724 83.8518 36.4355L79.8211 26.5879C79.5196 25.851 79.8658 24.9913 80.6138 24.6898C81.3507 24.3884 82.2105 24.7457 82.5119 25.4826L86.5425 35.3302C86.7323 35.7991 86.6653 36.3127 86.3974 36.7035Z" fill="#62308B"/>
<path d="M92.1579 34.3481C92.0016 34.5714 91.7783 34.7612 91.5103 34.8728C90.7734 35.1743 89.9137 34.817 89.6122 34.0801L85.5817 24.2325C85.2802 23.4956 85.6263 22.6358 86.3744 22.3344C87.1113 22.0329 87.971 22.3902 88.2724 23.1271L92.3031 32.9747C92.4929 33.4437 92.4259 33.9573 92.1579 34.3481Z" fill="#62308B"/>
<path d="M97.919 31.9923C97.7627 32.2156 97.5394 32.4054 97.2714 32.5171C96.5345 32.8185 95.6748 32.4613 95.3734 31.7244L91.3427 21.8767C91.0413 21.1398 91.3874 20.2801 92.1355 19.9787C92.8724 19.6772 93.7321 20.0345 94.0336 20.7714L98.0642 30.619C98.254 31.088 98.187 31.6015 97.919 31.9923Z" fill="#62308B"/>
<path d="M103.67 29.6361C103.514 29.8594 103.29 30.0492 103.022 30.1609C102.285 30.4624 101.426 30.1051 101.124 29.3682L97.0936 19.5205C96.7922 18.7836 97.1383 17.9239 97.8864 17.6225C98.6233 17.321 99.4829 17.6783 99.7844 18.4152L103.815 28.2628C104.005 28.7318 103.938 29.2454 103.67 29.6361Z" fill="#62308B"/>
</svg>
