<svg width="91" height="94" viewBox="0 0 91 94" fill="none" xmlns="http://www.w3.org/2000/svg">
<path d="M22.8014 9.28619L33.3412 18.3411C36.2553 20.8533 40.7884 19.6474 42.0724 16.0187L46.7058 2.92206C47.1636 1.61574 49.0394 1.7274 49.352 3.06721L52.5564 16.5882C53.4385 20.3285 57.8152 22.0144 60.9861 19.8372L72.4303 11.9658C73.5692 11.1843 75.0206 12.3678 74.4958 13.6406L69.1366 26.4581C67.6516 30.0086 70.1973 33.9388 74.0493 34.0392L87.9387 34.4077C89.3232 34.4412 89.8032 36.2611 88.6197 36.9757L76.7512 44.1995C73.4687 46.1981 73.2119 50.8762 76.2599 53.2209L87.2799 61.6729C88.3741 62.5103 87.7042 64.2632 86.3197 64.1516L72.475 63.0239C68.6342 62.7113 65.6866 66.3511 66.7808 70.0356L70.722 83.3556C71.1128 84.6842 69.5385 85.7002 68.489 84.7959L57.9491 75.741C55.035 73.2288 50.502 74.4346 49.218 78.0633L44.5845 91.16C44.1267 92.4663 42.251 92.3547 41.9384 91.0148L38.734 77.4939C37.852 73.7535 33.4752 72.0676 30.3043 74.2448L18.86 82.1162C17.7212 82.8978 16.2698 81.7143 16.7945 80.4415L22.1538 67.6239C23.6387 64.0734 21.0931 60.1433 17.2412 60.0428L3.35174 59.6743C1.96727 59.6409 1.48711 57.821 2.67062 57.1064L14.5391 49.8826C17.8217 47.884 18.0785 43.2058 15.0304 40.8611L4.01044 32.4092C2.91626 31.5718 3.58622 29.8188 4.9707 29.9305L18.8154 31.0581C22.6562 31.3708 25.6038 27.7309 24.5097 24.0465L20.5683 10.7265C20.1776 9.39783 21.7518 8.38181 22.8014 9.28619Z" fill="#F6E9B4" stroke="#62308B" stroke-width="2.46" stroke-linecap="round" stroke-linejoin="round"/>
<path d="M45.6561 64.5199C55.3125 64.5199 63.1407 56.6918 63.1407 47.0353C63.1407 37.3789 55.3125 29.5508 45.6561 29.5508C35.9996 29.5508 28.1715 37.3789 28.1715 47.0353C28.1715 56.6918 35.9996 64.5199 45.6561 64.5199Z" fill="#F9C131" stroke="#62308B" stroke-width="2.46" stroke-linecap="round" stroke-linejoin="round"/>
</svg>
