<svg width="81" height="94" viewBox="0 0 81 94" fill="none" xmlns="http://www.w3.org/2000/svg">
<path opacity="0.5" d="M32.1147 87.0944C31.3664 87.9585 30.564 88.8071 29.6999 89.6327C25.1865 93.9686 21.9384 93.0968 20.5188 92.5413C17.1241 91.2066 17.1858 87.1947 17.8648 84.016C21.8767 85.9216 26.6447 87.2178 32.1147 87.0944Z" fill="white"/>
<path opacity="0.5" d="M32.1147 87.0944C31.3664 87.9585 30.564 88.8071 29.6999 89.6327C25.1865 93.9686 21.9384 93.0968 20.5188 92.5413C17.1241 91.2066 17.1858 87.1947 17.8648 84.016C21.8767 85.9216 26.6447 87.2178 32.1147 87.0944Z" fill="#62308B"/>
<path opacity="0.5" d="M42.1751 83.129C42.1365 83.1753 42.098 83.2215 42.0594 83.2678C39.5597 86.2845 34.6759 84.1628 35.162 80.282L35.3934 78.4767C38.6647 80.1046 42.3448 79.8423 44.5051 79.472C43.9033 80.7064 43.1318 81.9331 42.1674 83.1367L42.1751 83.129Z" fill="white"/>
<path opacity="0.5" d="M42.1751 83.129C42.1365 83.1753 42.098 83.2215 42.0594 83.2678C39.5597 86.2845 34.6759 84.1628 35.162 80.282L35.3934 78.4767C38.6647 80.1046 42.3448 79.8423 44.5051 79.472C43.9033 80.7064 43.1318 81.9331 42.1674 83.1367L42.1751 83.129Z" fill="#62308B"/>
<path d="M42.1751 83.129C42.1365 83.1753 42.098 83.2215 42.0594 83.2678C39.5597 86.2845 34.6759 84.1628 35.162 80.282L35.3934 78.4767C38.6647 80.1046 42.3448 79.8423 44.5051 79.472C43.9033 80.7064 43.1318 81.9331 42.1674 83.1367L42.1751 83.129Z" stroke="#62308B" stroke-width="1.60315" stroke-linecap="round" stroke-linejoin="round"/>
<path d="M44.5127 79.4641C42.3524 79.8422 38.6723 80.0968 35.401 78.4689L35.4627 77.9751L37.1755 64.3886C37.4687 62.0895 39.6907 60.5387 41.9512 61.0711L42.8153 61.2717C44.2118 61.5957 45.3227 62.6527 45.6931 64.0337C46.5263 67.1352 47.4444 72.9834 44.7904 78.8778C44.7055 79.0784 44.613 79.2713 44.5204 79.4641H44.5127Z" fill="white" stroke="#62308B" stroke-width="1.60315" stroke-linecap="round" stroke-linejoin="round"/>
<path opacity="0.5" d="M1.19202 61.9193C1.17659 61.981 1.16116 62.035 1.14573 62.089C0.127324 65.8695 4.67928 68.6315 7.56477 65.9929L8.90724 64.7585C5.68999 63.0303 3.77662 59.8748 2.83537 57.892C2.17957 59.0955 1.61636 60.4303 1.19202 61.9116V61.9193Z" fill="white"/>
<path opacity="0.5" d="M1.19202 61.9193C1.17659 61.981 1.16116 62.035 1.14573 62.089C0.127324 65.8695 4.67928 68.6315 7.56477 65.9929L8.90724 64.7585C5.68999 63.0303 3.77662 59.8748 2.83537 57.892C2.17957 59.0955 1.61636 60.4303 1.19202 61.9116V61.9193Z" fill="#62308B"/>
<path d="M1.19202 61.9193C1.17659 61.981 1.16116 62.035 1.14573 62.089C0.127324 65.8695 4.67928 68.6315 7.56477 65.9929L8.90724 64.7585C5.68999 63.0303 3.77662 59.8748 2.83537 57.892C2.17957 59.0955 1.61636 60.4303 1.19202 61.9116V61.9193Z" stroke="#62308B" stroke-width="1.60315" stroke-linecap="round" stroke-linejoin="round"/>
<path d="M2.83539 57.8997C3.77664 59.8825 5.69001 63.038 8.90726 64.7662L9.27758 64.4345L19.3768 55.1916C21.0896 53.6254 21.0664 50.9174 19.3305 49.3821L18.667 48.7957C17.5946 47.8467 16.0901 47.5536 14.7477 48.0396C11.731 49.1506 6.43067 51.7815 3.15941 57.3519C3.0514 57.5371 2.9434 57.7222 2.83539 57.9151V57.8997Z" fill="white" stroke="#62308B" stroke-width="1.60315" stroke-linecap="round" stroke-linejoin="round"/>
<path d="M77.8582 27.6793L73.6766 40.0777" stroke="#62308B" stroke-width="1.60315" stroke-linecap="round" stroke-linejoin="round"/>
<path d="M28.9742 1L20.8115 11.2304" stroke="#62308B" stroke-width="1.60315" stroke-linecap="round" stroke-linejoin="round"/>
<path d="M74.3103 50.8056C78.0045 44.0355 76.8088 36.2607 71.6396 33.4401C66.4704 30.6194 59.2852 33.821 55.591 40.591C51.8968 47.3611 53.0924 55.136 58.2616 57.9567C63.4308 60.7773 70.6161 57.5757 74.3103 50.8056Z" fill="#F9C131"/>
<path d="M74.3103 50.8056C78.0045 44.0355 76.8088 36.2607 71.6396 33.4401C66.4704 30.6194 59.2852 33.821 55.591 40.591C51.8968 47.3611 53.0924 55.136 58.2616 57.9567C63.4308 60.7773 70.6161 57.5757 74.3103 50.8056Z" stroke="#62308B" stroke-width="1.60315" stroke-miterlimit="10"/>
<path d="M14.0457 81.902C11.7388 84.1934 8.3827 86.4385 5.41234 84.3014C4.17791 83.4065 1.83248 81.1768 2.89718 75.0046C3.06691 74.0248 3.27521 73.0681 3.51438 72.1345C4.91855 74.0247 8.50615 78.3761 14.0457 81.902Z" fill="white"/>
<path opacity="0.5" d="M14.0457 81.902C11.7388 84.1934 8.3827 86.4385 5.41234 84.3014C4.17791 83.4065 1.83248 81.1768 2.89718 75.0046C3.06691 74.0248 3.27521 73.0681 3.51438 72.1345C4.91855 74.0247 8.50615 78.3761 14.0457 81.902Z" fill="#62308B"/>
<path d="M30.017 26.6216C33.7113 19.8515 32.5156 12.0766 27.3464 9.25596C22.1772 6.43529 14.992 9.63693 11.2977 16.407C7.60352 23.1771 8.79922 30.9519 13.9684 33.7726C19.1376 36.5932 26.3228 33.3916 30.017 26.6216Z" fill="#F9C131"/>
<path d="M30.017 26.6216C33.7113 19.8515 32.5156 12.0766 27.3464 9.25596C22.1772 6.43529 14.992 9.63693 11.2977 16.407C7.60352 23.1771 8.79922 30.9519 13.9684 33.7726C19.1376 36.5932 26.3228 33.3916 30.017 26.6216Z" stroke="#62308B" stroke-width="1.60315" stroke-miterlimit="10"/>
<path d="M32.1147 87.0944C31.3664 87.9585 30.564 88.8071 29.6999 89.6327C25.1865 93.9686 21.9384 93.0968 20.5188 92.5413C17.1241 91.2066 17.1858 87.1947 17.8648 84.016C21.8767 85.9216 26.6447 87.2178 32.1147 87.0944Z" stroke="#62308B" stroke-width="1.60315" stroke-linecap="round" stroke-linejoin="round"/>
<path d="M14.0457 81.902C11.7388 84.1934 8.3827 86.4385 5.41234 84.3014C4.17791 83.4065 1.83248 81.1768 2.89718 75.0046C3.06691 74.0248 3.27521 73.0681 3.51438 72.1345C4.91855 74.0247 8.50615 78.3761 14.0457 81.902Z" stroke="#62308B" stroke-width="1.60315" stroke-linecap="round" stroke-linejoin="round"/>
<path d="M32.4691 86.693C32.3533 86.8242 32.2376 86.9631 32.1219 87.0942C26.6518 87.2254 21.8837 85.9215 17.8718 84.0159C18.1264 82.8046 18.4736 81.709 18.7514 80.9375C18.9751 80.3126 18.7514 79.6182 18.2345 79.2324C18.1805 79.1938 18.1264 79.1553 18.0647 79.1244H18.0416C17.9644 79.0704 17.8873 79.0395 17.8024 79.0164H17.7947C17.2006 78.8158 16.5371 79.0164 16.1436 79.5179C15.6421 80.166 14.9169 81.0378 14.0528 81.9019C8.51331 78.376 4.92571 74.0247 3.52155 72.1344C3.56784 71.957 3.61412 71.7795 3.66041 71.6098C8.3204 54.5823 24.1057 46.327 24.1057 46.327L42.3522 56.2874C42.3522 56.2874 43.8027 73.2531 32.4691 86.693Z" fill="white" stroke="#62308B" stroke-width="1.60315" stroke-linecap="round" stroke-linejoin="round"/>
<path d="M42.831 63.308C59.2231 63.308 72.5114 50.0196 72.5114 33.6276C72.5114 17.2355 59.2231 3.94714 42.831 3.94714C26.439 3.94714 13.1506 17.2355 13.1506 33.6276C13.1506 50.0196 26.439 63.308 42.831 63.308Z" fill="white" stroke="#62308B" stroke-width="1.60315" stroke-miterlimit="10"/>
<path d="M40.9405 57.2824C52.0915 57.2824 61.1312 48.2427 61.1312 37.0917C61.1312 25.9407 52.0915 16.901 40.9405 16.901C29.7894 16.901 20.7498 25.9407 20.7498 37.0917C20.7498 48.2427 29.7894 57.2824 40.9405 57.2824Z" fill="white"/>
<path opacity="0.5" d="M40.9405 57.2824C52.0915 57.2824 61.1312 48.2427 61.1312 37.0917C61.1312 25.9407 52.0915 16.901 40.9405 16.901C29.7894 16.901 20.7498 25.9407 20.7498 37.0917C20.7498 48.2427 29.7894 57.2824 40.9405 57.2824Z" fill="#62308B"/>
<path d="M40.9405 57.2824C52.0915 57.2824 61.1312 48.2427 61.1312 37.0917C61.1312 25.9407 52.0915 16.901 40.9405 16.901C29.7894 16.901 20.7498 25.9407 20.7498 37.0917C20.7498 48.2427 29.7894 57.2824 40.9405 57.2824Z" stroke="#62308B" stroke-width="1.60315" stroke-miterlimit="10"/>
<path d="M10.6273 57.9691C10.6273 57.9691 22.8636 73.6696 40.2691 72.2191" stroke="#62308B" stroke-width="1.60315" stroke-linecap="round" stroke-linejoin="round"/>
<path d="M8.36694 62.1047C8.36694 62.1047 20.6033 77.8052 38.0088 76.3547" stroke="#62308B" stroke-width="1.60315" stroke-linecap="round" stroke-linejoin="round"/>
<path d="M29.4566 68.7778L20.185 63.7186C19.3434 63.2594 18.2889 63.5693 17.8297 64.4109L14.7919 69.9779C14.3327 70.8195 14.6427 71.874 15.4842 72.3332L24.7559 77.3925C25.5974 77.8517 26.652 77.5418 27.1112 76.7002L30.1489 71.1332C30.6082 70.2916 30.2982 69.2371 29.4566 68.7778Z" fill="#F2789D"/>
<path d="M29.4566 68.7778L20.185 63.7186C19.3434 63.2594 18.2889 63.5693 17.8297 64.4109L14.7919 69.9779C14.3327 70.8195 14.6427 71.874 15.4842 72.3332L24.7559 77.3925C25.5974 77.8517 26.652 77.5418 27.1112 76.7002L30.1489 71.1332C30.6082 70.2916 30.2982 69.2371 29.4566 68.7778Z" stroke="#62308B" stroke-width="1.60315" stroke-miterlimit="10"/>
<path d="M31.5126 38.4728C33.0039 38.4728 34.2129 37.2638 34.2129 35.7725C34.2129 34.2811 33.0039 33.0721 31.5126 33.0721C30.0212 33.0721 28.8123 34.2811 28.8123 35.7725C28.8123 37.2638 30.0212 38.4728 31.5126 38.4728Z" fill="#62308B"/>
<path d="M46.7118 45.7251C48.2031 45.7251 49.4121 44.5161 49.4121 43.0248C49.4121 41.5334 48.2031 40.3245 46.7118 40.3245C45.2205 40.3245 44.0115 41.5334 44.0115 43.0248C44.0115 44.5161 45.2205 45.7251 46.7118 45.7251Z" fill="#62308B"/>
<path d="M40.9871 42.6313C39.9995 44.1281 38.3253 44.1126 37.0986 43.5572C35.7947 42.9631 34.7995 41.4586 35.2469 40.0159" stroke="#62308B" stroke-width="1.60315" stroke-linecap="round" stroke-linejoin="round"/>
<path d="M59.3736 8.89574L54.118 6.17615L47.9945 18.0098L53.2501 20.7294L59.3736 8.89574Z" stroke="#62308B" stroke-width="1.60315" stroke-miterlimit="10"/>
<path d="M56.1008 37.146C56.0931 38.7353 55.8308 40.4481 55.2136 42.2689" stroke="white" stroke-width="1.27837" stroke-miterlimit="10" stroke-linecap="round"/>
<path d="M50.9318 25.2103C50.9318 25.2103 53.8944 27.8258 55.3371 32.2389" stroke="white" stroke-width="1.27837" stroke-miterlimit="10" stroke-linecap="round"/>
</svg>
